<?xml version="1.0" encoding="UTF-8" standalone="no"?>
<svg
   id="Layer_1"
   viewBox="0 0 512 512"
   version="1.1"
   sodipodi:docname="icone-card-oemqualidade.svg"
   inkscape:version="1.3 (0e150ed6c4, 2023-07-21)"
   xmlns:inkscape="http://www.inkscape.org/namespaces/inkscape"
   xmlns:sodipodi="http://sodipodi.sourceforge.net/DTD/sodipodi-0.dtd"
   xmlns="http://www.w3.org/2000/svg"
   xmlns:svg="http://www.w3.org/2000/svg">
  <defs
     id="defs1" />
  <sodipodi:namedview
     id="namedview1"
     pagecolor="#505050"
     bordercolor="#ffffff"
     borderopacity="1"
     inkscape:showpageshadow="0"
     inkscape:pageopacity="0"
     inkscape:pagecheckerboard="1"
     inkscape:deskcolor="#505050"
     inkscape:zoom="1.5878906"
     inkscape:cx="255.68512"
     inkscape:cy="256"
     inkscape:window-width="1920"
     inkscape:window-height="1009"
     inkscape:window-x="-8"
     inkscape:window-y="-8"
     inkscape:window-maximized="1"
     inkscape:current-layer="Layer_1" />
  <path
     d="m176.881 424.317c0-4.418 3.582-8 8-8h62.107c4.418 0 8 3.582 8 8s-3.582 8-8 8h-62.107c-4.418 0-8-3.581-8-8zm8-26.926h124.214c4.418 0 8-3.582 8-8s-3.582-8-8-8h-124.214c-4.418 0-8 3.582-8 8s3.582 8 8 8zm0-44.723h82.667c4.418 0 8-3.582 8-8s-3.582-8-8-8h-82.667c-4.418 0-8 3.582-8 8s3.582 8 8 8zm0-79.648h82.667c4.418 0 8-3.582 8-8s-3.582-8-8-8h-82.667c-4.418 0-8 3.582-8 8s3.582 8 8 8zm0-79.649h82.667c4.418 0 8-3.582 8-8s-3.582-8-8-8h-82.667c-4.418 0-8 3.582-8 8s3.582 8 8 8zm-47.027 111.536-27.441 27.699-12.74-12.418c-3.163-3.084-8.229-3.02-11.312.145-3.084 3.164-3.02 8.229.145 11.312l18.422 17.958c1.555 1.516 3.57 2.271 5.583 2.271 2.061 0 4.12-.792 5.684-2.37l33.026-33.336c3.109-3.139 3.086-8.204-.053-11.313-3.138-3.11-8.204-3.087-11.314.052zm0-79.649-27.441 27.699-12.74-12.418c-3.163-3.084-8.229-3.02-11.312.145-3.084 3.164-3.02 8.229.145 11.312l18.422 17.958c1.555 1.516 3.57 2.271 5.583 2.271 2.061 0 4.12-.792 5.684-2.37l33.026-33.336c3.109-3.139 3.086-8.204-.053-11.313-3.138-3.11-8.204-3.088-11.314.052zm-40.182-64.369c-3.163-3.084-8.229-3.02-11.312.145-3.084 3.164-3.02 8.229.145 11.312l18.422 17.958c1.555 1.516 3.57 2.271 5.583 2.271 2.061 0 4.12-.792 5.684-2.37l33.026-33.336c3.109-3.139 3.086-8.204-.053-11.313-3.138-3.109-8.203-3.087-11.313.053l-27.441 27.699zm40.182 223.667-27.441 27.699-12.74-12.418c-3.163-3.084-8.229-3.02-11.312.145-3.084 3.164-3.02 8.229.145 11.312l18.422 17.958c1.555 1.516 3.57 2.271 5.583 2.271 2.061 0 4.12-.792 5.684-2.37l33.026-33.336c3.109-3.139 3.086-8.204-.053-11.313-3.138-3.11-8.204-3.087-11.314.052zm371.186-49.305c-2.426 3.455-6.513 5.137-10.672 4.393l-33.476-6.003-11.538 31.991c-1.434 3.974-4.937 6.674-9.141 7.047-.329.029-.657.044-.982.044-3.826 0-7.31-1.997-9.256-5.368l-30.228-52.356c-1.155.468-2.344.874-3.557 1.226v166.396c0 15.648-12.731 28.379-28.379 28.379h-342.438c-15.648 0-28.379-12.731-28.379-28.379v-409.152c0-15.648 12.731-28.378 28.379-28.378h136.32l-11.401-16.12c-3.848-5.44-4.339-12.488-1.282-18.395 3.057-5.907 9.095-9.576 15.758-9.576h63.648c6.663 0 12.701 3.669 15.758 9.575s2.566 12.955-1.281 18.395l-11.403 16.12h136.32c15.648 0 28.379 12.73 28.379 28.378v16.549c7.021 2.034 13.148 6.052 17.33 11.582 2.191 2.898 5.574 3.999 9.053 2.941 9.832-2.988 21.169-.796 30.332 5.861 9.161 6.657 14.748 16.763 14.943 27.035.069 3.632 2.162 6.511 5.596 7.701 9.708 3.361 17.593 11.798 21.093 22.568 3.5 10.771 2.079 22.231-3.8 30.657-2.079 2.98-2.079 6.539.001 9.52 5.878 8.425 7.299 19.886 3.799 30.656s-11.385 19.206-21.093 22.567c-1.175.407-2.179 1.025-3.013 1.79l35.119 60.829c2.111 3.656 1.917 8.073-.509 11.527zm-119.502-230.738c-6.34 0-12.031 2.518-15.221 6.737-6.216 8.222-16.605 11.598-26.467 8.6-5.06-1.539-11.145-.232-16.273 3.495-5.129 3.727-8.252 9.108-8.354 14.397-.196 10.305-6.617 19.143-16.357 22.514-4.998 1.73-9.152 6.363-11.111 12.393s-1.322 12.219 1.704 16.557c5.898 8.454 5.898 19.377 0 27.83-3.026 4.337-3.664 10.527-1.705 16.557s6.113 10.663 11.111 12.394c9.741 3.373 16.162 12.21 16.358 22.515.101 5.288 3.224 10.67 8.353 14.397s11.211 5.034 16.273 3.496c2.388-.726 4.808-1.078 7.192-1.078 7.458 0 14.565 3.447 19.276 9.678 3.19 4.219 8.879 6.737 15.219 6.737s12.03-2.519 15.221-6.738c6.217-8.221 16.604-11.595 26.467-8.6 5.061 1.539 11.145.232 16.273-3.495 5.129-3.727 8.252-9.108 8.353-14.396.197-10.306 6.618-19.144 16.358-22.515 4.998-1.73 9.152-6.363 11.111-12.393 1.959-6.029 1.322-12.219-1.705-16.557-5.897-8.454-5.897-19.377 0-27.83 3.027-4.338 3.664-10.528 1.705-16.558s-6.112-10.663-11.11-12.393c-9.74-3.372-16.161-12.21-16.358-22.515-.101-5.288-3.223-10.669-8.352-14.396-5.13-3.728-11.213-5.033-16.275-3.497-9.861 2.995-20.251-.378-26.467-8.6-3.189-4.217-8.879-6.736-15.219-6.736zm-100.48 217.379 28.945-5.191c3.838-.686 7.614 1.492 8.938 5.16l9.978 27.664 25.38-43.961c-.251-.305-.507-.606-.745-.921-2.191-2.899-5.577-3.998-9.053-2.941-9.832 2.987-21.17.796-30.331-5.86-4.645-3.375-8.366-7.639-10.937-12.36zm82.753-260.802h-87.731v17.207h74.903c4.418 0 8 3.582 8 8v9.775c4.784-3.788 10.753-6.281 17.207-7.178v-15.425c0-6.826-5.554-12.379-12.379-12.379zm-238.707 30.28h134.976v-30.28h-48.046c-2.99 0-5.73-1.667-7.105-4.323-1.374-2.655-1.153-5.855.574-8.297l20.327-28.74c.409-.578.454-1.184.135-1.801s-.84-.929-1.548-.929h-63.648c-.708 0-1.229.312-1.548.93-.319.617-.274 1.223.135 1.801l20.327 28.74c1.727 2.441 1.948 5.642.574 8.297-1.375 2.655-4.115 4.323-7.105 4.323h-48.046v30.279zm-8 16c-4.418 0-8-3.582-8-8v-5.072h-66.903v367.496h252.008v-40.774c0-4.418 3.582-8 8-8h40.773v-55.854l-5.884 10.191c-1.946 3.37-5.431 5.367-9.255 5.367-.326 0-.653-.014-.983-.043-4.204-.374-7.706-3.073-9.14-7.045l-11.539-31.994-33.474 6.003c-4.157.745-8.247-.938-10.672-4.392-2.426-3.454-2.621-7.871-.51-11.528l3.454-5.982h-88.098c-4.418 0-8-3.582-8-8s3.582-8 8-8h97.335l22.428-38.846c-.834-.766-1.838-1.383-3.014-1.79-9.708-3.361-17.594-11.798-21.093-22.568-.048-.147-.085-.296-.131-.444h-95.525c-4.418 0-8-3.582-8-8s3.582-8 8-8h94.076c.678-5.177 2.486-10.063 5.381-14.213 2.079-2.98 2.079-6.538-.001-9.519-5.878-8.426-7.299-19.887-3.799-30.657 1.085-3.339 2.593-6.452 4.444-9.26h-100.101c-4.418 0-8-3.582-8-8s3.582-8 8-8h120.603c1.08-1.365 1.704-3.074 1.741-5.008.197-10.273 5.784-20.379 14.946-27.036 8.694-6.316 19.345-8.603 28.811-6.267v-9.836h-66.902v5.072c0 4.418-3.582 8-8 8h-150.976zm193.105 321.649v21.46l21.46-21.46zm65.981 53.602v-165.273c-3.091-.43-6.072-1.218-8.863-2.349l-8.344 14.453v91.567c0 2.122-.843 4.157-2.343 5.657l-48.773 48.774c-1.5 1.5-3.535 2.343-5.657 2.343h-268.009c-4.418 0-8-3.582-8-8v-383.496c0-4.418 3.582-8 8-8h74.903v-17.207h-87.731c-6.826 0-12.379 5.553-12.379 12.378v409.152c0 6.826 5.553 12.379 12.379 12.379h342.438c6.825.001 12.379-5.552 12.379-12.378zm105.826-160.729-22.176-38.41c-2.571 4.721-6.292 8.986-10.938 12.361-9.162 6.657-20.5 8.847-30.33 5.859-3.477-1.055-6.861.042-9.053 2.941-.238.315-.494.615-.744.92l25.381 43.96 9.977-27.663c1.323-3.669 5.105-5.848 8.938-5.16zm-100.479-191.77c40.252 0 73 32.748 73 73s-32.748 73-73 73-73-32.748-73-73 32.748-73 73-73zm0 16c-31.43 0-57 25.57-57 57s25.57 57 57 57 57-25.57 57-57-25.57-57-57-57zm-12.464 49.125 25.323-25.322c3.7-3.701 8.62-5.739 13.854-5.739 5.233 0 10.153 2.038 13.854 5.739 3.7 3.7 5.739 8.62 5.739 13.854 0 5.233-2.038 10.154-5.74 13.855l-40.836 40.836c-3.697 3.697-8.661 5.738-13.833 5.738-.575 0-1.153-.025-1.731-.076-5.705-.503-10.866-3.444-14.204-8.083l-16.747-21.074c-6.714-8.446-5.306-20.782 3.141-27.498 4.092-3.253 9.206-4.715 14.4-4.125 5.194.593 9.846 3.174 13.099 7.266zm4.973 17.654c-1.612 1.612-3.842 2.462-6.112 2.33-2.276-.129-4.389-1.224-5.808-3.009l-9.258-11.649c-.8-1.007-1.841-1.262-2.39-1.325-.114-.013-.25-.022-.404-.022-.587 0-1.425.141-2.224.776-1.542 1.225-1.798 3.476-.573 5.018l16.882 21.245c.103.129.201.262.296.397.841 1.204 2.022 1.477 2.651 1.533.619.054 1.815-.007 2.846-1.038l40.836-40.836c.916-.917 1.053-1.985 1.053-2.541s-.137-1.625-1.052-2.54c-.917-.917-1.985-1.053-2.541-1.053s-1.625.137-2.54 1.052z"
     id="path1"
     style="fill:#ffffff" />
</svg>
