<?xml version="1.0" encoding="UTF-8" standalone="no"?>
<svg
   height="409pt"
   viewBox="0 0 409 409.78782"
   width="409pt"
   version="1.1"
   id="svg4"
   sodipodi:docname="icone-card-inovacaoconstante-lampada.svg"
   inkscape:version="1.3 (0e150ed6c4, 2023-07-21)"
   xmlns:inkscape="http://www.inkscape.org/namespaces/inkscape"
   xmlns:sodipodi="http://sodipodi.sourceforge.net/DTD/sodipodi-0.dtd"
   xmlns="http://www.w3.org/2000/svg"
   xmlns:svg="http://www.w3.org/2000/svg">
  <defs
     id="defs4" />
  <sodipodi:namedview
     id="namedview4"
     pagecolor="#505050"
     bordercolor="#ffffff"
     borderopacity="1"
     inkscape:showpageshadow="0"
     inkscape:pageopacity="0"
     inkscape:pagecheckerboard="1"
     inkscape:deskcolor="#505050"
     inkscape:document-units="pt"
     inkscape:zoom="1.4908313"
     inkscape:cx="272.33128"
     inkscape:cy="272.66667"
     inkscape:window-width="1920"
     inkscape:window-height="1009"
     inkscape:window-x="-8"
     inkscape:window-y="-8"
     inkscape:window-maximized="1"
     inkscape:current-layer="svg4" />
  <path
     d="m172.695312 176.933594 4.550782-8.308594c4.0625-7.429688 10.132812-13.511719 17.574218-17.582031l8.308594-4.546875c1.644532-.894532 2.667969-2.621094 2.667969-4.488282 0-1.871093-1.019531-3.59375-2.667969-4.492187l-8.308594-4.550781c-7.429687-4.058594-13.507812-10.132813-17.574218-17.570313l-4.546875-8.316406c-.898438-1.644531-2.621094-2.667969-4.496094-2.667969-1.867187 0-3.59375 1.019532-4.488281 2.664063l-4.550782 8.320312c-4.070312 7.433594-10.144531 13.511719-17.578124 17.574219l-8.308594 4.546875c-1.644532.898437-2.667969 2.621094-2.667969 4.492187 0 1.867188 1.019531 3.59375 2.667969 4.488282l8.308594 4.546875c7.433593 4.070312 13.511718 10.148437 17.578124 17.585937l4.550782 8.3125c.902344 1.636719 2.621094 2.660156 4.488281 2.660156 1.871094 0 3.601563-1.023437 4.492187-2.667968zm-26.195312-34.871094-.097656-.054688.097656-.050781c9.15625-5.007812 16.640625-12.488281 21.648438-21.648437l.0625-.109375.054687.105469c5.007813 9.15625 12.488281 16.644531 21.648437 21.644531l.097657.058593-.097657.054688c-9.160156 5.011719-16.644531 12.492188-21.648437 21.652344l-.054687.101562-.058594-.101562c-5.007813-9.152344-12.492188-16.640625-21.652344-21.652344zm0 0"
     id="path1"
     style="fill:#ffffff" />
  <path
     d="m213.890625 117.394531 9.171875 5.011719c8.289062 4.539062 15.066406 11.316406 19.609375 19.609375l5.011719 9.171875c.894531 1.644531 2.621094 2.667969 4.488281 2.667969 1.871094 0 3.59375-1.019531 4.492187-2.667969l5.015626-9.171875c4.53125-8.289063 11.3125-15.066406 19.605468-19.609375l9.171875-5.011719c1.640625-.894531 2.664063-2.621093 2.664063-4.488281 0-1.871094-1.015625-3.597656-2.664063-4.492188l-9.167969-5.011718c-8.296874-4.546875-15.078124-11.324219-19.613281-19.609375l-5.011719-9.171875c-1.792968-3.289063-7.1875-3.289063-8.980468 0l-5.011719 9.167968c-4.542969 8.292969-11.320313 15.070313-19.609375 19.613282l-9.171875 5.011718c-1.644531.894532-2.667969 2.621094-2.667969 4.492188 0 1.867188 1.023438 3.59375 2.667969 4.488281zm14.085937-5.015625c10.007813-5.480468 18.195313-13.667968 23.675782-23.683594l.527344-.957031.527343.957031c5.464844 10.011719 13.660157 18.203126 23.679688 23.683594l.957031.527344-.957031.527344c-10.019531 5.472656-18.214844 13.664062-23.679688 23.679687l-.527343.957031-.527344-.957031c-5.480469-10.019531-13.667969-18.214843-23.679688-23.679687l-.960937-.527344zm0 0"
     id="path2"
     style="fill:#ffffff" />
  <path
     d="m378.617188 338.710938-9.175782-5.011719c-8.289062-4.535157-15.066406-11.316407-19.605468-19.613281l-5.015626-9.171876c-1.792968-3.28125-7.1875-3.285156-8.980468.007813l-5.019532 9.167969c-4.53125 8.292968-11.308593 15.074218-19.597656 19.605468l-9.175781 5.011719c-1.644531.902344-2.667969 2.625-2.667969 4.496094 0 1.867187 1.019532 3.59375 2.667969 4.496094l9.171875 5.011719c8.292969 4.539062 15.070312 11.320312 19.609375 19.609374l5.011719 9.167969c.894531 1.644531 2.621094 2.667969 4.488281 2.667969 1.871094 0 3.59375-1.019531 4.492187-2.660156l5.015626-9.175782c4.539062-8.289062 11.316406-15.070312 19.605468-19.605468l9.175782-5.011719c1.644531-.902344 2.667968-2.628906 2.667968-4.496094 0-1.867187-1.023437-3.59375-2.667968-4.496093zm-14.089844 5.023437c-10.011719 5.480469-18.203125 13.671875-23.671875 23.675781l-.53125.960938-.527344-.960938c-5.46875-10.011718-13.660156-18.203125-23.675781-23.6875l-.957032-.519531.957032-.527344c10.015625-5.472656 18.207031-13.667969 23.675781-23.679687l.527344-.964844.527343.964844c5.472657 10.011718 13.664063 18.207031 23.679688 23.683594l.957031.523437zm0 0"
     id="path3"
     style="fill:#ffffff" />
  <path
     d="m405.429688 190.484375c0-16.027344-13.128907-29.0625-29.269532-29.0625-5.601562 0-10.824218 1.597656-15.277344 4.320313-6.601562-6.992188-13.757812-14.054688-21.410156-21.113282 57.640625-53.226562 82.101563-100.328125 65.347656-126.351562-17.414062-27.054688-70.839843-21.636719-132.550781 1.636718-22.007812-14.417968-47.964843-21.355468-74.902343-19.664062-21.453126 1.332031-41.445313 8.476562-58.628907 19.699219-67.632812-25.519531-117.40625-26.152344-133.160156-1.675781-5.203125 8.078124-6.496094 18.25-3.851563 30.238281 5.882813 26.613281 31.320313 61.082031 69.199219 96.089843-7.097656 6.566407-13.828125 13.152344-20.101562 19.742188-3.855469-1.855469-8.160157-2.925781-12.722657-2.925781-16.140624 0-29.273437 13.035156-29.273437 29.058593 0 7.015626 2.515625 13.457032 6.695313 18.484376-.015626.027343-.046876.039062-.0625.066406-15.828126 25.984375-19.242188 47.40625-9.882813 61.941406 7.757813 12.054688 23.5 18.042969 45.476563 18.042969 23.976562-.003907 55.421874-7.214844 91.917968-21.394531.355469 2.972656.585938 5.972656.710938 9.007812h-1.621094c-11.292969 0-20.484375 9.191406-20.484375 20.488281 0 9.277344 6.242187 17.042969 14.714844 19.550781v43.8125c0 10.246094 8.335937 18.582032 18.585937 18.582032h1.019532v6.847656c0 13.164062 10.714843 23.882812 23.882812 23.882812h50.839844c13.164062 0 23.882812-10.71875 23.882812-23.882812v-6.847656h1.023438c10.246094 0 18.578125-8.335938 18.578125-18.582032v-43.804687c8.480469-2.511719 14.722656-10.277344 14.722656-19.558594 0-11.296875-9.191406-20.488281-20.484375-20.488281h-1.625c.128906-3.007812.359375-5.992188.710938-8.953125 35.609374 13.804687 67.414062 21.175781 91.890624 21.171875 21.726563 0 37.707032-5.765625 45.5-17.875 9.0625-14.074219 6.109376-34.625-8.457031-59.503906 5.574219-5.292969 9.066407-12.734375 9.066407-20.980469zm-10.238282 0c0 10.382813-8.535156 18.828125-19.03125 18.828125s-19.03125-8.441406-19.03125-18.828125c0-10.375 8.535156-18.824219 19.03125-18.824219s19.03125 8.449219 19.03125 18.824219zm1.023438-166.667969c13.492187 20.957032-11.777344 65.527344-64.347656 113.921875-1.425782-1.265625-2.828126-2.527343-4.28125-3.789062.328124-3.65625.515624-7.332031.515624-11.039063 0-33.78125-14.125-66.433594-38.746093-89.574218-2.375-2.234376-4.839844-4.324219-7.351563-6.34375 59.171875-21.140626 102.398438-21.527344 114.210938-3.175782zm-302.5625 114.289063c21.664062-18.4375 46.296875-36.484375 72.96875-53.359375 37.261718-23.574219 72.625-41.289063 104.050781-53.511719 4.050781 2.914063 7.960937 6.082031 11.667969 9.566406 22.914062 21.527344 35.523437 50.6875 35.523437 82.113281 0 28.574219-10.71875 55.820313-30.171875 76.722657-13.988281 15.03125-23.515625 33.617187-28.160156 53.898437-28.554688-11.9375-59.996094-28.195312-92.914062-49.023437-25.375-16.050781-48.976563-33.363281-69.765626-50.828125-1.4375-5.085938-2.492187-10.289063-3.199218-15.578125zm104.351562-127.632813c22.21875-1.371094 43.613282 3.589844 62.320313 14.144532-32.597657 13.269531-66.953125 31.09375-99.175781 51.480468-24.800782 15.6875-47.804688 32.402344-68.449219 49.515625-.054688-2.386719-.167969-4.761719-.074219-7.167969 2.195312-57.015624 48.484375-104.445312 105.378906-107.972656zm-186.269531 35.835938c-2.035156-9.222656-1.210937-16.78125 2.457031-22.492188 12.308594-19.117187 55.929688-17.683594 114.535156 3.40625-27.003906 21.734375-44.933593 54.449219-46.335937 90.832032-.207031 5.355468-.039063 10.664062.421875 15.917968-1.417969 1.230469-2.800781 2.464844-4.1875 3.703125-36.597656-33.714843-61.464844-66.785156-66.890625-91.367187zm26.367187 125.351562c10.496094 0 19.03125 8.445313 19.03125 18.824219 0 10.382813-8.535156 18.828125-19.03125 18.828125-10.496093 0-19.03125-8.441406-19.03125-18.828125 0-10.375 8.535157-18.824219 19.03125-18.824219zm-23.910156 93.773438c-8.71875-13.546875.023438-34.308594 9.269532-49.8125 4.3125 2.488281 9.304687 3.933594 14.640624 3.933594 16.136719 0 29.269532-13.042969 29.269532-29.070313 0-7.785156-3.117188-14.847656-8.148438-20.070313 6.050782-6.308593 12.492188-12.621093 19.320313-18.914062 3.042969 2.699219 6.128906 5.394531 9.308593 8.089844 5.441407 17.46875 14.785157 33.613281 27.667969 47.347656 12.964844 13.832031 21.703125 31.226562 25.765625 50.371094-64.199218 25.28125-113.960937 28.519531-127.09375 8.125zm230.070313 120.472656c0 7.523438-6.117188 13.640625-13.640625 13.640625h-50.839844c-7.527344 0-13.644531-6.117187-13.644531-13.640625v-6.847656h78.125zm11.265625-17.089844h-100.648438c-4.597656 0-8.347656-3.738281-8.347656-8.339844v-42.878906h117.335938v42.878906c0 4.601563-3.738282 8.339844-8.339844 8.339844zm23.058594-71.703125c0 5.652344-4.589844 10.242188-10.242188 10.242188h-126.28125c-5.652344 0-10.246094-4.589844-10.246094-10.242188 0-5.652343 4.59375-10.246093 10.246094-10.246093h126.28125c5.652344 0 10.242188 4.597656 10.242188 10.246093zm-22.105469-20.488281h-102.554688c-1.148437-29.335938-11.949219-56.425781-30.941406-76.683594-7.636719-8.152344-13.898437-17.234375-18.738281-26.964844 17.464844 13.769532 36.5625 27.320313 56.894531 40.183594 33.277344 21.058594 66.117187 38.082032 96.496094 50.625-.601563 4.230469-.984375 8.511719-1.15625 12.839844zm139.734375-11.191406c-12.652344 19.65625-61.347656 17.828125-127.078125-8 4.089843-19.175782 12.933593-36.71875 26.054687-50.8125 15.867188-17.058594 26.398438-37.984375 30.703125-60.492188 9.910157 8.828125 19.054688 17.664063 27.300781 26.394532-3.9375 4.949218-6.308593 11.179687-6.308593 17.964843 0 16.03125 13.128906 29.070313 29.273437 29.070313 4.144532 0 8.089844-.871094 11.667969-2.425782 8.832031 15.191407 16.847656 35.152344 8.386719 48.300782zm0 0"
     id="path4"
     style="fill:#ffffff" />
</svg>
