<?xml version="1.0" encoding="UTF-8" standalone="no"?>
<svg
   viewBox="0 0 512 512"
   version="1.1"
   id="svg1"
   sodipodi:docname="icone-card-parceriadevalor-balanca.svg"
   inkscape:version="1.3 (0e150ed6c4, 2023-07-21)"
   xmlns:inkscape="http://www.inkscape.org/namespaces/inkscape"
   xmlns:sodipodi="http://sodipodi.sourceforge.net/DTD/sodipodi-0.dtd"
   xmlns="http://www.w3.org/2000/svg"
   xmlns:svg="http://www.w3.org/2000/svg">
  <defs
     id="defs1" />
  <sodipodi:namedview
     id="namedview1"
     pagecolor="#505050"
     bordercolor="#ffffff"
     borderopacity="1"
     inkscape:showpageshadow="0"
     inkscape:pageopacity="0"
     inkscape:pagecheckerboard="1"
     inkscape:deskcolor="#505050"
     inkscape:zoom="1.5878906"
     inkscape:cx="255.68512"
     inkscape:cy="256"
     inkscape:window-width="1920"
     inkscape:window-height="1009"
     inkscape:window-x="-8"
     inkscape:window-y="-8"
     inkscape:window-maximized="1"
     inkscape:current-layer="svg1" />
  <g
     id="_x31_3_x2C__Law_x2C__Balance_x2C__Lawyer_x2C__Judge_x2C__Court"
     style="fill:#ffffff">
    <g
       id="g1"
       style="fill:#ffffff">
      <path
         d="m504.919 292.166c-12.685-20.54-39.513-26.718-59.807-14.188l-104.777 63.758c-2.159-17.244-17.293-30.736-35.303-30.736h-19.431v-250h88.055l-47.773 90h-5.281c-5.522 0-10 4.477-10 10 0 38.598 31.402 70 70 70h20c38.598 0 70-31.402 70-70 0-5.523-4.478-10-10-10h-5.312l-48.29-90h18.602c16.542 0 30-13.458 30-30s-13.458-30-30-30h-340c-16.542 0-30 13.458-30 30s13.458 30 30 30h18.056l-47.774 90h-5.282c-5.523 0-10 4.477-10 10 0 38.598 31.402 70 70 70h20c38.598 0 70-31.402 70-70 0-5.523-4.477-10-10-10h-5.312l-48.29-90h88.601v250h-52.721c-9.271 0-18.1-2.392-25.531-6.918-23.341-14.215-51.54-16.885-76.748-7.947v-15.135c0-5.523-4.477-10-10-10h-50c-5.523 0-10 4.477-10 10v220c0 5.523 4.477 10 10 10h50c5.523 0 10-4.477 10-10v-9.08h189.1c3.043 0 6.019-.845 8.606-2.444l222.468-137.448c20.402-12.599 26.747-39.453 14.144-59.862zm-104.318-81.166h-20c-24.146 0-44.35-17.206-48.995-40h117.99c-4.645 22.794-24.849 40-48.995 40zm-52.075-60 41.807-78.761 42.259 78.761zm-272.925-120c0-5.514 4.486-10 10-10h340c5.514 0 10 4.486 10 10s-4.486 10-10 10c-112.906 0-226.38 0-340 0-5.514 0-10-4.486-10-10zm55 180h-20c-24.146 0-44.349-17.206-48.996-40h117.991c-4.646 22.794-24.849 40-48.995 40zm-52.075-60 41.808-78.761 42.258 78.761zm167.075-90h20v250h-20zm-195 430h-30v-200h30zm429.664-155.987-221.594 136.907h-188.07v-154.17c21.17-10.074 46.108-8.911 66.345 3.414 10.566 6.436 22.992 9.837 35.935 9.837h132.151c8.421 0 15.404 6.589 15.566 14.688.168 8.427-6.581 15.312-14.997 15.312h-75c-5.523 0-10 4.477-10 10s4.477 10 10 10h75c11.244 0 1.056 4.845 149.964-85.972 11.047-6.82 25.512-3.408 32.337 7.646 6.809 11.025 3.384 25.532-7.637 32.338z"
         id="path1"
         style="fill:#ffffff" />
    </g>
  </g>
  <g
     id="Layer_1" />
</svg>
