<?xml version="1.0" encoding="UTF-8" standalone="no"?>
<svg
   height="512"
   viewBox="0 0 64 64"
   width="512"
   version="1.1"
   id="svg17"
   sodipodi:docname="icone-card-qualidadegarantida-processodefabricacao.svg"
   inkscape:version="1.3 (0e150ed6c4, 2023-07-21)"
   xmlns:inkscape="http://www.inkscape.org/namespaces/inkscape"
   xmlns:sodipodi="http://sodipodi.sourceforge.net/DTD/sodipodi-0.dtd"
   xmlns="http://www.w3.org/2000/svg"
   xmlns:svg="http://www.w3.org/2000/svg">
  <defs
     id="defs17" />
  <sodipodi:namedview
     id="namedview17"
     pagecolor="#505050"
     bordercolor="#ffffff"
     borderopacity="1"
     inkscape:showpageshadow="0"
     inkscape:pageopacity="0"
     inkscape:pagecheckerboard="1"
     inkscape:deskcolor="#505050"
     inkscape:zoom="1.5878906"
     inkscape:cx="255.68512"
     inkscape:cy="256"
     inkscape:window-width="1920"
     inkscape:window-height="1009"
     inkscape:window-x="-8"
     inkscape:window-y="-8"
     inkscape:window-maximized="1"
     inkscape:current-layer="svg17" />
  <g
     id="quality_control"
     data-name="quality control"
     style="fill:#ffffff">
    <path
       d="m42 20h2v2h-2z"
       id="path1"
       style="fill:#ffffff" />
    <path
       d="m30 16a1 1 0 0 0 -1 1v26a1 1 0 0 0 1 1h26a1 1 0 0 0 1-1v-26a1 1 0 0 0 -1-1zm9 2h8v4.323l-4 1.6-4-1.6zm16 24h-24v-24h6v5a1 1 0 0 0 .628.929l5 2a1.01 1.01 0 0 0 .744 0l5-2a1 1 0 0 0 .628-.929v-5h6z"
       id="path2"
       style="fill:#ffffff" />
    <path
       d="m61 50h-1v-3a1 1 0 0 0 -1-1h-32a1 1 0 0 0 -1 1v3h-7v-3a1 1 0 0 0 -1-1h-2v-6h5a3 3 0 0 0 3-3v-24a3 3 0 0 0 -3-3h-16a3 3 0 0 0 -3 3v24a3 3 0 0 0 3 3h5v6h-2a1 1 0 0 0 -1 1v3h-4a1 1 0 0 0 -1 1v10a1 1 0 0 0 1 1h58a1 1 0 0 0 1-1v-10a1 1 0 0 0 -1-1zm-33-2h30v2h-30zm-24-11v-24a1 1 0 0 1 1-1h16a1 1 0 0 1 1 1v24a1 1 0 0 1 -1 1h-16a1 1 0 0 1 -1-1zm8 3h2v6h-2zm-3 8h8v2h-8zm51 12h-56v-8h56z"
       id="path3"
       style="fill:#ffffff" />
    <path
       d="m32 59a3 3 0 1 0 -3-3 3 3 0 0 0 3 3zm0-4a1 1 0 1 1 -1 1 1 1 0 0 1 1-1z"
       id="path4"
       style="fill:#ffffff" />
    <path
       d="m40 59a3 3 0 1 0 -3-3 3 3 0 0 0 3 3zm0-4a1 1 0 1 1 -1 1 1 1 0 0 1 1-1z"
       id="path5"
       style="fill:#ffffff" />
    <path
       d="m48 59a3 3 0 1 0 -3-3 3 3 0 0 0 3 3zm0-4a1 1 0 1 1 -1 1 1 1 0 0 1 1-1z"
       id="path6"
       style="fill:#ffffff" />
    <path
       d="m56 59a3 3 0 1 0 -3-3 3 3 0 0 0 3 3zm0-4a1 1 0 1 1 -1 1 1 1 0 0 1 1-1z"
       id="path7"
       style="fill:#ffffff" />
    <path
       d="m24 59a3 3 0 1 0 -3-3 3 3 0 0 0 3 3zm0-4a1 1 0 1 1 -1 1 1 1 0 0 1 1-1z"
       id="path8"
       style="fill:#ffffff" />
    <path
       d="m16 59a3 3 0 1 0 -3-3 3 3 0 0 0 3 3zm0-4a1 1 0 1 1 -1 1 1 1 0 0 1 1-1z"
       id="path9"
       style="fill:#ffffff" />
    <path
       d="m8 59a3 3 0 1 0 -3-3 3 3 0 0 0 3 3zm0-4a1 1 0 1 1 -1 1 1 1 0 0 1 1-1z"
       id="path10"
       style="fill:#ffffff" />
    <path
       d="m3 8h23v5a1 1 0 0 0 1 1h32a1 1 0 0 0 1-1v-10a1 1 0 0 0 -1-1h-56a1 1 0 0 0 -1 1v4a1 1 0 0 0 1 1zm1-4h54v8h-30v-5a1 1 0 0 0 -1-1h-23z"
       id="path11"
       style="fill:#ffffff" />
    <path
       d="m34 28a1 1 0 0 0 -1 1v10a1 1 0 0 0 1 1h18a1 1 0 0 0 1-1v-10a1 1 0 0 0 -1-1zm17 10h-16v-8h16z"
       id="path12"
       style="fill:#ffffff" />
    <path
       d="m43 11a3 3 0 1 0 -3-3 3 3 0 0 0 3 3zm0-4a1 1 0 1 1 -1 1 1 1 0 0 1 1-1z"
       id="path13"
       style="fill:#ffffff" />
    <path
       d="m53 11a3 3 0 1 0 -3-3 3 3 0 0 0 3 3zm0-4a1 1 0 1 1 -1 1 1 1 0 0 1 1-1z"
       id="path14"
       style="fill:#ffffff" />
    <path
       d="m33 11a3 3 0 1 0 -3-3 3 3 0 0 0 3 3zm0-4a1 1 0 1 1 -1 1 1 1 0 0 1 1-1z"
       id="path15"
       style="fill:#ffffff" />
    <path
       d="m17.293 25.293-4.293 4.293-4.293-4.293-1.414 1.414 4.293 4.293-4.293 4.293 1.414 1.414 4.293-4.293 4.293 4.293 1.414-1.414-4.293-4.293 4.293-4.293z"
       id="path16"
       style="fill:#ffffff" />
    <path
       d="m11.06 20.413-2.26-3.013-1.6 1.2 3 4a1 1 0 0 0 .762.4h.038a1 1 0 0 0 .752-.342l7-8-1.5-1.316z"
       id="path17"
       style="fill:#ffffff" />
  </g>
</svg>
