<?xml version="1.0" encoding="UTF-8" standalone="no"?>
<svg
   id="Capa_1"
   height="512"
   viewBox="0 0 512 512"
   width="512"
   version="1.1"
   sodipodi:docname="icone-card-compromissocomatransparencia-papeis.svg"
   inkscape:version="1.3 (0e150ed6c4, 2023-07-21)"
   xmlns:inkscape="http://www.inkscape.org/namespaces/inkscape"
   xmlns:sodipodi="http://sodipodi.sourceforge.net/DTD/sodipodi-0.dtd"
   xmlns="http://www.w3.org/2000/svg"
   xmlns:svg="http://www.w3.org/2000/svg">
  <defs
     id="defs12" />
  <sodipodi:namedview
     id="namedview12"
     pagecolor="#505050"
     bordercolor="#ffffff"
     borderopacity="1"
     inkscape:showpageshadow="0"
     inkscape:pageopacity="0"
     inkscape:pagecheckerboard="1"
     inkscape:deskcolor="#505050"
     inkscape:zoom="1.5878906"
     inkscape:cx="255.68512"
     inkscape:cy="256"
     inkscape:window-width="1920"
     inkscape:window-height="1009"
     inkscape:window-x="-8"
     inkscape:window-y="-8"
     inkscape:window-maximized="1"
     inkscape:current-layer="Capa_1" />
  <g
     id="g12"
     style="fill:#ffffff">
    <g
       id="g11"
       style="fill:#ffffff">
      <path
         d="m104.957 85.512h133.988c4.143 0 7.5-3.358 7.5-7.5s-3.357-7.5-7.5-7.5h-133.988c-4.143 0-7.5 3.358-7.5 7.5s3.357 7.5 7.5 7.5z"
         id="path1"
         style="fill:#ffffff" />
      <path
         d="m141.512 135.519c0 4.142 3.357 7.5 7.5 7.5h133.65c4.143 0 7.5-3.358 7.5-7.5s-3.357-7.5-7.5-7.5h-133.65c-4.143 0-7.5 3.358-7.5 7.5z"
         id="path2"
         style="fill:#ffffff" />
      <path
         d="m61.24 143.019h62.155c4.143 0 7.5-3.358 7.5-7.5s-3.357-7.5-7.5-7.5h-62.155c-4.143 0-7.5 3.358-7.5 7.5s3.358 7.5 7.5 7.5z"
         id="path3"
         style="fill:#ffffff" />
      <path
         d="m61.24 179.45h141.231c4.143 0 7.5-3.358 7.5-7.5s-3.357-7.5-7.5-7.5h-141.231c-4.143 0-7.5 3.358-7.5 7.5s3.358 7.5 7.5 7.5z"
         id="path4"
         style="fill:#ffffff" />
      <path
         d="m61.24 373.564h89.999c4.143 0 7.5-3.358 7.5-7.5s-3.357-7.5-7.5-7.5h-89.999c-4.143 0-7.5 3.358-7.5 7.5s3.358 7.5 7.5 7.5z"
         id="path5"
         style="fill:#ffffff" />
      <path
         d="m508.178 455.987-19.08-19.079c-2.928-2.93-7.677-2.929-10.606 0s-2.929 7.678.001 10.606l17.714 17.714-23.438 23.438-66.19-66.192 23.438-23.438 23.729 23.729c2.93 2.929 7.678 2.929 10.607 0s2.929-7.678 0-10.606l-25.095-25.094c-3.931-3.931-9.759-4.816-14.559-2.682l-20.844-20.845c27.018-39.546 28.802-91.264 5.365-132.424 1.572-.58 3.239-1.153 5.021-1.729 4.319-1.395 7.221-5.386 7.221-9.932-.001-4.545-2.903-8.535-7.222-9.93-19.995-6.457-26.076-12.538-32.532-32.534-1.308-4.049-4.898-6.851-9.086-7.186v-120.475c0-7.206-5.862-13.069-13.068-13.069h-15.65v-15.65c0-7.206-5.862-13.069-13.068-13.069h-317.768c-7.206 0-13.068 5.863-13.068 13.069v429.949c0 7.206 5.862 13.069 13.068 13.069h15.65v15.65c0 7.206 5.862 13.068 13.068 13.068h69.214c4.143 0 7.5-3.358 7.5-7.5s-3.357-7.5-7.5-7.5h-67.281v-13.718h287.115c7.206 0 13.068-5.863 13.068-13.069v-40.249c4.665-1.717 9.247-3.716 13.719-6.005v73.041h-211.621c-4.143 0-7.5 3.358-7.5 7.5s3.357 7.5 7.5 7.5h213.553c7.206 0 13.068-5.862 13.068-13.068v-81.421l19.302 19.302c-2.133 4.8-1.248 10.627 2.682 14.558l68.922 68.922c2.548 2.548 5.895 3.822 9.242 3.822s6.693-1.274 9.241-3.822l26.169-26.169c5.095-5.095 5.095-13.387-.001-18.482zm-110.001-236.533c-12.925 5.853-20.549 13.478-26.4 26.401-5.853-12.924-13.477-20.548-26.4-26.401 12.924-5.852 20.548-13.476 26.4-26.401 5.851 12.925 13.475 20.548 26.4 26.401zm-68.864 9.931c19.994 6.457 26.075 12.538 32.532 32.532 1.394 4.318 5.384 7.22 9.929 7.221h.002c2.042 0 3.969-.59 5.603-1.627 9.302 28.15 2.803 60.422-19.551 82.776-31.573 31.573-82.949 31.573-114.521 0-31.573-31.574-31.573-82.948 0-114.521 15.294-15.295 35.63-23.718 57.26-23.718 7.7 0 15.23 1.081 22.431 3.152-.582 1.308-.906 2.749-.906 4.253 0 4.545 2.901 8.537 7.221 9.932zm-.411 219.242h-313.902v-426.087h313.902v68.463c0 4.142 3.357 7.5 7.5 7.5s7.5-3.358 7.5-7.5v-39.744h13.719v130.432c-4.451-2.287-9.029-4.305-13.719-6.035v-49.653c0-4.142-3.357-7.5-7.5-7.5s-7.5 3.358-7.5 7.5v45.185c-9.186-2.12-18.674-3.227-28.335-3.227-3.784 0-7.541.176-11.265.506-1.255-2.387-3.755-4.017-6.639-4.017h-53.46c-4.143 0-7.5 3.358-7.5 7.5s3.357 7.5 7.5 7.5h18.865c-11.611 5.375-22.413 12.566-32.054 21.43h-154.774c-4.143 0-7.5 3.358-7.5 7.5s3.357 7.5 7.5 7.5h140.889c-8.082 10.297-14.321 21.576-18.714 33.395h-122.175c-4.143 0-7.5 3.358-7.5 7.5s3.357 7.5 7.5 7.5h117.651c-1.655 7.056-2.691 14.227-3.11 21.43h-114.541c-4.143 0-7.5 3.358-7.5 7.5s3.357 7.5 7.5 7.5h114.562c.439 7.204 1.494 14.376 3.171 21.43h-117.733c-4.143 0-7.5 3.358-7.5 7.5s3.357 7.5 7.5 7.5h122.303c2.774 7.393 6.276 14.571 10.496 21.43h-17.183c-4.143 0-7.5 3.358-7.5 7.5s3.357 7.5 7.5 7.5h28.033c2.284 2.709 4.692 5.347 7.243 7.897 5.034 5.033 10.397 9.539 16.015 13.533h-166.907c-4.143 0-7.5 3.358-7.5 7.5s3.357 7.5 7.5 7.5h195.068c14.228 5.36 29.244 8.04 44.259 8.04 9.513 0 19.023-1.089 28.335-3.241zm-106.163-77.772c-42.915-42.915-42.915-112.742 0-155.657 20.789-20.789 48.429-32.238 77.828-32.238 18.502 0 36.306 4.537 52.145 13.081-3.222 3.97-7.225 6.875-12.724 9.426-12.231-5.514-25.603-8.419-39.421-8.419-25.637 0-49.739 9.984-67.867 28.112-37.421 37.422-37.421 98.312 0 135.734 18.711 18.711 43.289 28.066 67.867 28.066s49.156-9.355 67.868-28.066c29.946-29.948 35.893-74.909 17.906-110.859 2.557-5.178 5.502-8.972 9.516-12.05 24.294 42.082 18.493 96.915-17.462 132.87-42.914 42.914-112.742 42.914-155.656 0zm160.288 16.194c2.036-1.788 4.032-3.644 5.975-5.587 1.944-1.944 3.783-3.952 5.573-5.99l18.895 18.896-11.562 11.562z"
         id="path6"
         style="fill:#ffffff" />
      <path
         d="m257.457 254.235c0 4.142 3.357 7.5 7.5 7.5h71.071c4.143 0 7.5-3.358 7.5-7.5s-3.357-7.5-7.5-7.5h-71.071c-4.142 0-7.5 3.358-7.5 7.5z"
         id="path7"
         style="fill:#ffffff" />
      <path
         d="m247.911 282.168c0 4.142 3.357 7.5 7.5 7.5h90.165c4.143 0 7.5-3.358 7.5-7.5s-3.357-7.5-7.5-7.5h-90.165c-4.143 0-7.5 3.358-7.5 7.5z"
         id="path8"
         style="fill:#ffffff" />
      <path
         d="m345.576 302.602h-90.165c-4.143 0-7.5 3.358-7.5 7.5s3.357 7.5 7.5 7.5h90.165c4.143 0 7.5-3.358 7.5-7.5s-3.358-7.5-7.5-7.5z"
         id="path9"
         style="fill:#ffffff" />
      <path
         d="m323.299 330.535h-45.612c-4.143 0-7.5 3.358-7.5 7.5s3.357 7.5 7.5 7.5h45.612c4.143 0 7.5-3.358 7.5-7.5s-3.357-7.5-7.5-7.5z"
         id="path10"
         style="fill:#ffffff" />
      <path
         d="m407.973 176.278h6.979v6.979c0 4.142 3.357 7.5 7.5 7.5s7.5-3.358 7.5-7.5v-6.979h6.979c4.143 0 7.5-3.358 7.5-7.5s-3.357-7.5-7.5-7.5h-6.979v-6.978c0-4.142-3.357-7.5-7.5-7.5s-7.5 3.358-7.5 7.5v6.979h-6.979c-4.143 0-7.5 3.358-7.5 7.5s3.357 7.499 7.5 7.499z"
         id="path11"
         style="fill:#ffffff" />
    </g>
  </g>
</svg>
