<?xml version="1.0" encoding="UTF-8" standalone="no"?>
<svg
   id="Camada_1"
   viewBox="0 0 32.000001 31.999999"
   version="1.1"
   sodipodi:docname="icone-logosite-quadrado-mask1.svg"
   width="32"
   height="32"
   inkscape:version="1.3 (0e150ed6c4, 2023-07-21)"
   xmlns:inkscape="http://www.inkscape.org/namespaces/inkscape"
   xmlns:sodipodi="http://sodipodi.sourceforge.net/DTD/sodipodi-0.dtd"
   xmlns="http://www.w3.org/2000/svg"
   xmlns:svg="http://www.w3.org/2000/svg">
  <sodipodi:namedview
     id="namedview5"
     pagecolor="#505050"
     bordercolor="#ffffff"
     borderopacity="1"
     inkscape:showpageshadow="0"
     inkscape:pageopacity="0"
     inkscape:pagecheckerboard="1"
     inkscape:deskcolor="#505050"
     inkscape:zoom="8.2939138"
     inkscape:cx="20.617528"
     inkscape:cy="30.263155"
     inkscape:window-width="958"
     inkscape:window-height="1000"
     inkscape:window-x="953"
     inkscape:window-y="0"
     inkscape:window-maximized="0"
     inkscape:current-layer="Camada_1" />
  <defs
     id="defs1">
    <style
       id="style1">.cls-1{fill:#27509c;}</style>
    <clipPath
       clipPathUnits="userSpaceOnUse"
       id="clipPath1">
      <g
         id="g2">
        <rect
           style="fill:#134596;stroke-width:2.96866"
           id="rect1"
           width="24.134645"
           height="12.821427"
           x="3.932677"
           y="9.5892859" />
      </g>
    </clipPath>
    <clipPath
       clipPathUnits="userSpaceOnUse"
       id="clipPath2">
      <g
         id="g3">
        <rect
           style="fill:#134596;stroke-width:2.96866"
           id="rect2"
           width="24.134645"
           height="12.821427"
           x="3.932677"
           y="9.5892859" />
      </g>
    </clipPath>
    <clipPath
       clipPathUnits="userSpaceOnUse"
       id="clipPath3">
      <g
         id="g4">
        <rect
           style="fill:#134596;stroke-width:2.96866"
           id="rect3"
           width="24.134645"
           height="12.821427"
           x="3.932677"
           y="9.5892859" />
      </g>
    </clipPath>
    <clipPath
       clipPathUnits="userSpaceOnUse"
       id="clipPath4">
      <g
         id="g5">
        <rect
           style="fill:#134596;stroke-width:2.96866"
           id="rect4"
           width="24.134645"
           height="12.821427"
           x="3.932677"
           y="9.5892859" />
      </g>
    </clipPath>
    <clipPath
       clipPathUnits="userSpaceOnUse"
       id="clipPath5">
      <g
         id="g6">
        <rect
           style="fill:#134596;stroke-width:2.96866"
           id="rect5"
           width="24.134645"
           height="12.821427"
           x="3.932677"
           y="9.5892859" />
      </g>
    </clipPath>
    <clipPath
       clipPathUnits="userSpaceOnUse"
       id="clipPath6">
      <rect
         style="fill:#000000;stroke-width:29.79"
         id="rect7"
         width="218.7968"
         height="116.16236"
         x="-0.0038543039"
         y="0.072500683"
         ry="0" />
    </clipPath>
    <clipPath
       clipPathUnits="userSpaceOnUse"
       id="clipPath6-4">
      <rect
         style="fill:#000000;stroke-width:29.79"
         id="rect7-3"
         width="218.7968"
         height="116.16236"
         x="-0.0038543039"
         y="0.072500683"
         ry="0" />
    </clipPath>
    <clipPath
       clipPathUnits="userSpaceOnUse"
       id="clipPath6-8">
      <rect
         style="fill:#000000;stroke-width:29.79"
         id="rect7-8"
         width="218.7968"
         height="116.16236"
         x="-0.0038543039"
         y="0.072500683"
         ry="0" />
    </clipPath>
    <clipPath
       clipPathUnits="userSpaceOnUse"
       id="clipPath8">
      <path
         style="fill:#009739;fill-opacity:1;stroke-width:3.77953"
         d="m -20.376209,22.678124 c 0,0 4.689086,-8.440355 12.5326474,-8.781379 C 0,13.555721 7.4172811,25.491575 20.802489,25.576831 34.187698,25.662087 47.200628,18.97213 47.200628,18.97213 l 0.457534,23.826434 c 0,0 -73.490762,-1.023073 -73.234993,-2.983963 0.255768,-1.960891 5.200622,-17.136477 5.200622,-17.136477 z"
         id="path9" />
    </clipPath>
    <clipPath
       clipPathUnits="userSpaceOnUse"
       id="clipPath8-2">
      <path
         style="fill:#009739;fill-opacity:1;stroke-width:3.77953"
         d="m -20.376209,22.678124 c 0,0 4.689086,-8.440355 12.5326474,-8.781379 C 0,13.555721 7.4172811,25.491575 20.802489,25.576831 34.187698,25.662087 47.200628,18.97213 47.200628,18.97213 l 0.457534,23.826434 c 0,0 -73.490762,-1.023073 -73.234993,-2.983963 0.255768,-1.960891 5.200622,-17.136477 5.200622,-17.136477 z"
         id="path9-6" />
    </clipPath>
    <clipPath
       clipPathUnits="userSpaceOnUse"
       id="clipPath9">
      <rect
         style="fill:#fedd00;fill-opacity:1;stroke-width:3.77953"
         id="rect9"
         width="32"
         height="32"
         x="0"
         y="0"
         ry="3.4965398"
         clip-path="url(#clipPath8-2)"
         transform="translate(48.510905,-0.45684134)" />
    </clipPath>
    <clipPath
       clipPathUnits="userSpaceOnUse"
       id="clipPath9-6">
      <rect
         style="fill:#fedd00;fill-opacity:1;stroke-width:3.77953"
         id="rect9-0"
         width="32"
         height="32"
         x="0"
         y="0"
         ry="3.4965398"
         clip-path="url(#clipPath8-2-1)"
         transform="translate(48.510905,-0.45684134)" />
    </clipPath>
    <clipPath
       clipPathUnits="userSpaceOnUse"
       id="clipPath8-2-1">
      <path
         style="fill:#009739;fill-opacity:1;stroke-width:3.77953"
         d="m -20.376209,22.678124 c 0,0 4.689086,-8.440355 12.5326474,-8.781379 C 0,13.555721 7.4172811,25.491575 20.802489,25.576831 34.187698,25.662087 47.200628,18.97213 47.200628,18.97213 l 0.457534,23.826434 c 0,0 -73.490762,-1.023073 -73.234993,-2.983963 0.255768,-1.960891 5.200622,-17.136477 5.200622,-17.136477 z"
         id="path9-6-8" />
    </clipPath>
    <clipPath
       clipPathUnits="userSpaceOnUse"
       id="clipPath10">
      <rect
         style="fill:#fedd00;fill-opacity:1;stroke-width:3.77953"
         id="rect10"
         width="32"
         height="32"
         x="48.510906"
         y="-2.4568412"
         ry="3.4965398"
         clip-path="url(#clipPath9-6)"
         transform="translate(-8.9858674,6.9974914)" />
    </clipPath>
    <clipPath
       clipPathUnits="userSpaceOnUse"
       id="clipPath11">
      <path
         style="fill:#009739;fill-opacity:1;stroke-width:3.77953"
         d="m 70.807509,-0.54912625 c 0,0 8.198783,-11.33361175 14.709581,-11.33361175 6.510799,0 12.901027,15.7947147 31.95114,14.2272997 19.05011,-1.56741395 30.0847,-10.060804 30.0847,-10.060804 l 5.48355,22.2384083 c 0,0 -56.065208,10.48962 -57.02977,10.248479 C 95.042147,24.529505 70.807509,-0.54912625 70.807509,-0.54912625 Z"
         id="path11" />
    </clipPath>
    <clipPath
       clipPathUnits="userSpaceOnUse"
       id="clipPath11-5">
      <path
         style="fill:#009739;fill-opacity:1;stroke-width:3.77953"
         d="m 70.807509,-0.54912625 c 0,0 8.198783,-11.33361175 14.709581,-11.33361175 6.510799,0 12.901027,15.7947147 31.95114,14.2272997 19.05011,-1.56741395 30.0847,-10.060804 30.0847,-10.060804 l 5.48355,22.2384083 c 0,0 -56.065208,10.48962 -57.02977,10.248479 C 95.042147,24.529505 70.807509,-0.54912625 70.807509,-0.54912625 Z"
         id="path11-7" />
    </clipPath>
    <clipPath
       clipPathUnits="userSpaceOnUse"
       id="clipPath11-5-1">
      <path
         style="fill:#009739;fill-opacity:1;stroke-width:3.77953"
         d="m 70.807509,-0.54912625 c 0,0 8.198783,-11.33361175 14.709581,-11.33361175 6.510799,0 12.901027,15.7947147 31.95114,14.2272997 19.05011,-1.56741395 30.0847,-10.060804 30.0847,-10.060804 l 5.48355,22.2384083 c 0,0 -56.065208,10.48962 -57.02977,10.248479 C 95.042147,24.529505 70.807509,-0.54912625 70.807509,-0.54912625 Z"
         id="path11-7-7" />
    </clipPath>
    <clipPath
       clipPathUnits="userSpaceOnUse"
       id="clipPath12">
      <rect
         style="fill:#fedd00;fill-opacity:1;stroke-width:3.77953"
         id="rect12"
         width="32"
         height="32"
         x="92.027885"
         y="-23.698631"
         ry="3.4965398"
         clip-path="url(#clipPath11-5-1)"
         transform="rotate(-4.1047519,333.80145,683.26252)" />
    </clipPath>
    <clipPath
       clipPathUnits="userSpaceOnUse"
       id="clipPath13">
      <path
         style="fill:#fedd00;fill-opacity:1;stroke-width:3.77953"
         d="m 47.590264,11.163345 c 0,0 7.354791,-8.4399227 15.071293,-8.4399227 7.716501,0 16.035855,13.5038777 27.610607,14.3478697 11.574756,0.843992 31.227716,-3.73768 31.227716,-3.73768 l 4.46111,8.319353 -28.575176,9.645627 c 0,0 -37.135664,0.361711 -38.220797,-0.602852 C 58.079884,29.731178 47.107983,11.404486 47.107983,11.404486 Z"
         id="path13" />
    </clipPath>
    <clipPath
       clipPathUnits="userSpaceOnUse"
       id="clipPath14">
      <path
         style="fill:#fedd00;fill-opacity:1;stroke-width:3.77953"
         d="m 52.28758,7.0782131 c 0,0 5.425665,12.1776039 13.745018,14.9507219 8.319353,2.773117 15.312433,2.893688 20.255817,2.411406 4.943384,-0.482281 13.262737,-4.340532 13.262737,-4.340532 l -0.361711,11.213042 c 0,0 -35.206539,10.007338 -35.68882,10.007338 -0.482282,0 -19.652965,-6.269658 -20.376387,-11.815893 C 42.400811,23.95806 52.28758,7.0782131 52.28758,7.0782131 Z"
         id="path15" />
    </clipPath>
  </defs>
  <rect
     style="fill:#009739;fill-opacity:1;stroke-width:3.77953"
     id="rect7-2-3"
     width="32"
     height="32"
     x="-0.68204886"
     y="-37.001148"
     ry="16" />
  <rect
     style="fill:#fedd00;fill-opacity:1;stroke-width:3.54331"
     id="rect7-2-8"
     width="30"
     height="30"
     x="0.31795117"
     y="-36.001148"
     ry="15" />
  <path
     class="cls-1"
     d="m 115.13941,19.647006 c -0.41365,-0.354083 -1.68327,-0.871419 -1.68327,-0.871419 l -10.50005,-4.001909 c 0,0 -0.95966,-0.354083 -0.95966,-1.151597 0,-0.797514 1.21116,-0.679486 1.21116,-0.679486 h 6.97025 V 9.5892861 H 97.32937 c 0,0 -2.436664,0.073905 -2.436664,1.6832729 0,1.609367 2.096921,2.230391 2.096921,2.230391 l 8.905023,3.411772 c 0,0 1.84652,0.871419 1.84652,1.506782 0,0.635364 -0.59124,0.827297 -1.59502,0.827297 H 95.941718 c 0,0 -0.591241,-0.04412 -0.591241,0.47211 v 2.332977 c 0,0 0.08825,0.30996 0.546016,0.30996 H 113.1164 c 0,0 1.5509,0.118028 2.34841,-0.753391 0.79752,-0.841637 0.0883,-1.595028 -0.3254,-1.964554"
     id="path2-2"
     style="fill:#ffffff;stroke-width:0.110306"
     clip-path="url(#clipPath4)" />
  <path
     class="cls-1"
     d="m 41.474718,21.212251 c -4.327313,0 -7.841669,-2.332976 -7.841669,-5.228514 0,-2.895538 3.514356,-5.228514 7.841669,-5.228514 4.327312,0 7.841668,2.332976 7.841668,5.228514 0,2.895538 -3.514356,5.228514 -7.841668,5.228514 M 93.813911,17.682453 V 9.5892861 h -4.223624 v 7.6199529 c 0,0 0.693826,3.662166 -6.616167,3.662166 -7.309992,0 -6.94157,-3.662166 -6.94157,-3.662166 V 12.04029 c 0,-2.3914385 -2.288854,-2.4510039 -2.288854,-2.4510039 H 41.53318 c -6.852222,0 -12.419376,2.8359729 -12.419376,6.3359889 0,3.500016 5.552815,6.335989 12.420479,6.335989 6.867665,0 12.420479,-2.835973 12.420479,-6.335989 0,-1.01923 -0.47211,-1.964554 -1.285067,-2.82053 v 0 c -0.679486,-0.679486 0.16215,-0.783174 0.16215,-0.783174 h 7.221748 v 10.056617 h 3.899324 c 0.443431,0 0.413649,-0.369526 0.413649,-0.369526 v -8.623739 c 0,-1.063352 1.195719,-1.093135 1.195719,-1.093135 h 5.242854 c 1.093135,0 1.003787,0.885759 1.003787,0.885759 v 4.681396 c 0,0 -0.472111,4.385775 11.209317,4.385775 11.667087,0.01434 10.795668,-4.563368 10.795668,-4.563368"
     id="path3-1"
     style="fill:#ffffff;stroke-width:0.110306"
     clip-path="url(#clipPath3)" />
  <path
     class="cls-1"
     d="m 113.58851,9.6488515 c -0.14781,0.044122 -0.29562,0.088245 -0.41365,0.1621501 -0.13237,0.073905 -0.2515,0.1621501 -0.35409,0.2658384 -0.10368,0.103687 -0.19193,0.206272 -0.28017,0.339743 -0.0739,0.118027 -0.13237,0.251498 -0.1776,0.398205 -0.0452,0.146707 -0.0596,0.295621 -0.0596,0.443431 0,0.14781 0.0143,0.295621 0.0596,0.443431 0.0441,0.14781 0.10369,0.265838 0.1776,0.398205 0.0739,0.118028 0.16215,0.236056 0.28017,0.339744 0.10369,0.103687 0.22172,0.191932 0.35409,0.265838 0.13236,0.0739 0.26584,0.132367 0.41365,0.16215 0.14781,0.04412 0.30996,0.05956 0.47211,0.05956 0.16215,0 0.3254,-0.01434 0.47211,-0.05956 0.1467,-0.04523 0.29562,-0.08825 0.42798,-0.16215 0.13237,-0.07391 0.2515,-0.162151 0.35409,-0.265838 0.10369,-0.103688 0.20627,-0.221716 0.28018,-0.339744 0.0739,-0.118027 0.13236,-0.251498 0.17759,-0.398205 0.0452,-0.146707 0.0596,-0.295621 0.0596,-0.443431 0,-0.14781 -0.0298,-0.295621 -0.0596,-0.443431 -0.0441,-0.14781 -0.10369,-0.280178 -0.17759,-0.398205 -0.0739,-0.118028 -0.16215,-0.236056 -0.28018,-0.339743 -0.11803,-0.1036883 -0.22172,-0.1919333 -0.35409,-0.2658384 -0.13236,-0.073905 -0.26583,-0.1323675 -0.42798,-0.1621501 -0.14671,-0.045226 -0.30996,-0.059565 -0.47211,-0.059565 -0.16215,0 -0.30996,0.029783 -0.47211,0.059565 m 1.18138,1.9645535 c -0.0298,-0.04412 -0.0596,-0.08825 -0.0883,-0.132367 -0.0287,-0.04412 -0.0739,-0.07391 -0.11803,-0.08825 0.0739,-0.02978 0.13237,-0.05957 0.1776,-0.08824 0.0441,-0.04412 0.0882,-0.08825 0.11802,-0.132368 0.0298,-0.04412 0.0596,-0.103688 0.0739,-0.16215 0.0143,-0.05846 0.0298,-0.118028 0.0298,-0.177593 0,-0.08825 -0.0143,-0.177593 -0.0441,-0.251498 -0.0298,-0.0739 -0.0883,-0.132368 -0.16215,-0.191933 -0.0739,-0.05957 -0.16215,-0.08825 -0.28018,-0.118028 -0.11803,-0.02978 -0.2515,-0.04412 -0.41365,-0.04412 h -0.84163 v 2.00647 h 0.63536 V 11.55384 h 0.0739 c 0.0298,0 0.0739,0 0.0883,0.01434 0.0143,0.01434 0.0441,0.02978 0.0596,0.05957 l 0.22171,0.517336 c 0.0298,0.05957 0.0882,0.08825 0.17759,0.08825 h 0.51734 c -0.11803,0.103688 -0.26584,0.191933 -0.42799,0.251498 -0.16215,0.05957 -0.3254,0.08825 -0.51733,0.08825 -0.19194,0 -0.36953,-0.02978 -0.54602,-0.103688 -0.16215,-0.0739 -0.30996,-0.16215 -0.44343,-0.280178 -0.11803,-0.118027 -0.22172,-0.265837 -0.29562,-0.427988 -0.0739,-0.16215 -0.10369,-0.339743 -0.10369,-0.531676 0,-0.191932 0.0298,-0.369525 0.10369,-0.531675 0.0739,-0.162151 0.16215,-0.309961 0.29562,-0.427989 0.11803,-0.118027 0.26584,-0.221715 0.44343,-0.2956202 0.16215,-0.073905 0.33974,-0.1036879 0.54602,-0.1036879 0.13236,0 0.25149,0.01434 0.36952,0.044123 0.11803,0.029783 0.22172,0.073905 0.3254,0.1323681 0.10369,0.05846 0.19194,0.132367 0.28018,0.206272 0.0882,0.07391 0.14781,0.177593 0.22172,0.280178 0.0596,0.103688 0.10369,0.206273 0.13237,0.325404 0.0298,0.118027 0.0441,0.236055 0.0441,0.369525 0,0.191933 -0.0298,0.354083 -0.10369,0.517337 -0.0739,0.16215 -0.16215,0.29562 -0.28018,0.413648 l -0.26584,-0.546016 z m -0.90121,-0.443431 v -0.487553 h 0.19194 c 0.0596,0 0.11802,0 0.14781,0.01434 0.0441,0.01434 0.0739,0.02978 0.0882,0.04412 0.0143,0.01434 0.0298,0.04412 0.0298,0.0739 0,0.02978 0.0143,0.05956 0.0143,0.103688 0,0.04412 0,0.0739 -0.0143,0.103688 0,0.02978 -0.0143,0.05956 -0.0441,0.0739 -0.0298,0.01434 -0.0596,0.02978 -0.10369,0.04412 -0.0441,0.01434 -0.10368,0.01434 -0.17759,0.01434 l -0.13237,0.01434 v 0 z"
     id="path4-8"
     style="fill:#ffffff;stroke-width:0.110306"
     clip-path="url(#clipPath2)" />
  <path
     class="cls-1"
     d="m 115.72955,27.680608 c -0.0596,-0.118028 -0.16215,-0.236056 -0.29562,-0.339744 -0.13347,-0.103687 -0.35408,-0.206272 -0.63537,-0.325403 -0.26583,-0.103688 -0.44343,-0.177593 -0.53167,-0.236055 -0.10369,-0.05957 -0.17759,-0.132368 -0.22172,-0.191933 -0.0441,-0.0739 -0.0596,-0.14781 -0.0596,-0.251498 0,-0.14781 0.0596,-0.251498 0.16215,-0.339743 0.10369,-0.08825 0.26584,-0.132368 0.47211,-0.132368 0.28018,0 0.59124,0.0739 0.94532,0.206273 l 0.20628,-0.501893 c -0.36953,-0.16215 -0.7534,-0.236056 -1.13726,-0.236056 -0.38387,0 -0.70927,0.08825 -0.94533,0.265838 -0.23605,0.177593 -0.35408,0.427988 -0.35408,0.737949 0,0.251498 0.0739,0.457771 0.22172,0.635364 0.14781,0.177593 0.3982,0.339743 0.76773,0.47211 0.35408,0.132368 0.59124,0.251498 0.69382,0.339743 0.11803,0.08825 0.16215,0.221716 0.16215,0.354083 0,0.16215 -0.0596,0.280178 -0.17759,0.369526 -0.11803,0.08935 -0.30996,0.132368 -0.56146,0.132368 -0.17759,0 -0.36952,-0.02978 -0.56146,-0.07391 -0.20627,-0.04412 -0.3982,-0.103687 -0.57579,-0.191932 v 0.575798 c 0.28017,0.132367 0.6497,0.191933 1.10747,0.191933 0.45777,0 0.79751,-0.08825 1.06335,-0.280178 0.2515,-0.191933 0.38387,-0.443431 0.38387,-0.783174 -0.0298,-0.118028 -0.0596,-0.265838 -0.13237,-0.398205 m -5.83299,-1.461558 c 0.19193,-0.236055 0.48755,-0.354083 0.88576,-0.354083 0.3982,0 0.67948,0.118028 0.87142,0.354083 0.19193,0.236056 0.29562,0.591242 0.29562,1.049012 0,0.457771 -0.10369,0.811854 -0.29562,1.049012 -0.19194,0.237159 -0.48756,0.354083 -0.87142,0.354083 -0.38387,0 -0.67949,-0.118027 -0.87142,-0.354083 -0.19194,-0.236055 -0.29562,-0.591241 -0.29562,-1.049012 -0.0143,-0.45777 0.0882,-0.811853 0.28017,-1.049012 m 2.24474,-0.369526 c -0.32541,-0.339743 -0.78318,-0.501893 -1.37332,-0.501893 -0.59013,0 -1.06335,0.16215 -1.38875,0.501893 -0.3254,0.325404 -0.48756,0.811854 -0.48756,1.417435 0,0.605581 0.16216,1.093135 0.48756,1.432878 0.3254,0.339743 0.78317,0.501893 1.37331,0.501893 0.59014,0 1.04901,-0.16215 1.37331,-0.501893 0.32541,-0.339743 0.48756,-0.811854 0.48756,-1.417435 0.0143,-0.619921 -0.14781,-1.107474 -0.47211,-1.432878 m -4.45968,0.08825 c 0.14781,0.04412 0.29562,0.103688 0.42798,0.162151 l 0.23606,-0.517337 c -0.33974,-0.16215 -0.72361,-0.236055 -1.12292,-0.236055 -0.39931,0 -0.72361,0.0739 -1.00378,0.236055 -0.28018,0.147811 -0.5019,0.383866 -0.64971,0.664044 -0.14781,0.280178 -0.22171,0.635364 -0.22171,1.019229 0,0.619921 0.16215,1.093135 0.47211,1.417435 0.30996,0.325403 0.75339,0.501893 1.34353,0.501893 0.3982,0 0.75339,-0.05956 1.06335,-0.16215 v -0.517336 c -0.17759,0.04412 -0.33974,0.08825 -0.48755,0.118028 -0.16216,0.02978 -0.32541,0.04412 -0.48756,0.04412 -0.38386,0 -0.69382,-0.118028 -0.88576,-0.354083 -0.20627,-0.236055 -0.30996,-0.591241 -0.30996,-1.049012 0,-0.457771 0.10369,-0.783174 0.32541,-1.033569 0.22171,-0.251498 0.50189,-0.369526 0.88575,-0.369526 0.11803,0 0.26584,0.02978 0.41365,0.0739 m -3.26396,-0.531676 h -0.6497 v 3.736072 h 0.6497 z m -3.54414,3.736072 1.19572,-3.116151 h 0.0298 c 0,0.05957 -0.0143,0.236056 -0.0298,0.546016 -0.0143,0.295621 -0.0143,0.546016 -0.0143,0.723609 v 1.846526 h 0.61992 v -3.736072 h -0.91554 l -1.13725,2.96834 h -0.0143 l -1.107479,-2.96834 H 98.57914 v 3.736072 h 0.591241 v -1.816744 c 0,-0.413648 -0.01434,-0.841636 -0.04412,-1.299407 h 0.02978 l 1.151599,3.130491 0.56146,-0.01434 v 0 z m -4.607487,-1.49134 0.945324,1.49134 h 0.737949 l -1.122917,-1.654593 c 0.517336,-0.206273 0.767731,-0.531676 0.767731,-0.989447 0,-0.369526 -0.118028,-0.635364 -0.369526,-0.811854 -0.251498,-0.177593 -0.619921,-0.265838 -1.137257,-0.265838 H 94.95889 v 3.736072 h 0.649703 v -1.49134 l 0.649704,-0.01434 v 0 z M 95.6108,25.92012 h 0.427988 c 0.29562,0 0.517336,0.04412 0.664043,0.132368 0.146707,0.08825 0.221716,0.236055 0.221716,0.457771 0,0.206272 -0.07391,0.369526 -0.206273,0.47211 -0.132368,0.102585 -0.354083,0.16215 -0.664043,0.16215 H 95.59646 l 0.01434,-1.225502 v 0 z m -2.702503,-0.827296 c 0.132368,-0.08825 0.280178,-0.221716 0.472111,-0.383866 0.191933,-0.16215 0.325403,-0.29562 0.427988,-0.398205 v -0.05956 h -0.737948 c -0.05957,0.103687 -0.147811,0.221715 -0.265838,0.369525 -0.118028,0.147811 -0.221716,0.280178 -0.325404,0.398206 v 0.05956 l 0.427988,0.01434 v 0 z m 1.151597,3.529799 h -1.609367 v -1.18138 h 1.49134 v -0.517336 h -1.49134 v -1.019229 h 1.595027 v -0.517337 h -2.244731 v 3.736072 h 2.244731 V 28.62152 h 0.01434 z M 89.98408,25.92012 h 1.167039 V 25.402784 H 88.16844 v 0.517336 h 1.167039 v 3.219839 h 0.649704 v -3.219839 0 z m -3.795637,1.757178 c -0.05957,-0.118027 -0.16215,-0.236055 -0.295621,-0.339743 -0.132367,-0.103688 -0.354082,-0.206272 -0.635363,-0.325403 -0.265838,-0.103688 -0.443431,-0.177593 -0.546016,-0.236055 -0.102585,-0.05846 -0.177593,-0.132368 -0.221716,-0.191933 -0.04412,-0.0739 -0.0739,-0.14781 -0.0739,-0.251498 0,-0.147811 0.05957,-0.251498 0.16215,-0.339743 0.102585,-0.08825 0.265838,-0.132368 0.472111,-0.132368 0.280178,0 0.591241,0.0739 0.945324,0.206273 l 0.206273,-0.501894 c -0.369526,-0.16215 -0.753392,-0.236055 -1.137257,-0.236055 -0.383866,0 -0.709269,0.08825 -0.945324,0.265838 -0.236056,0.177593 -0.354083,0.427988 -0.354083,0.737949 0,0.251498 0.0739,0.45777 0.221715,0.635363 0.14781,0.177593 0.398206,0.339744 0.767731,0.472111 0.354083,0.132368 0.591242,0.251498 0.693826,0.339743 0.118028,0.08824 0.162151,0.221716 0.162151,0.354083 0,0.16215 -0.05957,0.280178 -0.177593,0.369526 -0.118028,0.08935 -0.309961,0.132367 -0.561459,0.132367 -0.177593,0 -0.369526,-0.02978 -0.561459,-0.0739 -0.206272,-0.04412 -0.398205,-0.103688 -0.575798,-0.191933 v 0.575799 c 0.280178,0.132367 0.649704,0.191933 1.107474,0.191933 0.457771,0 0.797514,-0.08825 1.063352,-0.280178 0.251498,-0.191933 0.383866,-0.443431 0.383866,-0.783174 -0.01434,-0.118028 -0.04412,-0.265838 -0.103688,-0.398206 m -5.183289,-0.103687 0.354083,-0.975107 c 0.08825,-0.251499 0.16215,-0.472111 0.221716,-0.693826 0.01434,0.0739 0.04412,0.177593 0.103687,0.325403 0.04412,0.14781 0.08825,0.251498 0.118028,0.325403 l 0.369526,1.01923 h -1.16704 z m 2.406882,1.565245 -1.49134,-3.751515 h -0.693826 l -1.477001,3.751515 h 0.679487 l 0.383865,-1.03357 h 1.521123 l 0.398205,1.03357 z m -6.054708,0 1.195719,-3.116151 h 0.02978 c 0,0.05957 -0.01434,0.236055 -0.02978,0.546016 -0.01434,0.295621 -0.01434,0.546016 -0.01434,0.723609 v 1.846526 h 0.619921 v -3.736072 h -0.915541 l -1.137257,2.96834 h -0.01434 l -1.107475,-2.96834 H 75.06517 v 3.736072 h 0.591241 v -1.816744 c 0,-0.413648 -0.01434,-0.841636 -0.04412,-1.299407 h 0.02978 l 1.151597,3.13049 0.561459,-0.01434 v 0 z m -3.204396,-0.517336 h -1.595027 v -1.18138 h 1.49134 v -0.517336 h -1.49134 v -1.01923 h 1.595027 V 25.38514 h -2.244731 v 3.736072 h 2.244731 v -0.501894 z m -4.075814,-2.702503 h 1.16704 v -0.517336 h -2.98268 v 0.517336 h 1.167039 v 3.219839 h 0.649704 v -3.219839 0 z M 67.78496,27.675097 C 67.7254,27.55707 67.62281,27.439042 67.489339,27.335354 67.356972,27.231666 67.135256,27.129082 66.853976,27.009951 66.588138,26.906263 66.410545,26.832358 66.3223,26.773896 c -0.103688,-0.05957 -0.177593,-0.132368 -0.221716,-0.191933 -0.04412,-0.05957 -0.0739,-0.147811 -0.0739,-0.251498 0,-0.147811 0.05957,-0.251499 0.16215,-0.339744 0.102585,-0.08825 0.265838,-0.132367 0.472111,-0.132367 0.280178,0 0.591241,0.0739 0.945324,0.206273 l 0.206273,-0.501894 c -0.369526,-0.16215 -0.753392,-0.236055 -1.137257,-0.236055 -0.383866,0 -0.709269,0.08825 -0.945325,0.265838 -0.236055,0.177593 -0.354083,0.427988 -0.354083,0.737949 0,0.251498 0.07391,0.45777 0.221716,0.635363 0.14781,0.177593 0.398205,0.339743 0.767731,0.472111 0.354083,0.132367 0.591241,0.251498 0.693826,0.339743 0.118028,0.08825 0.16215,0.221716 0.16215,0.354083 0,0.16215 -0.05956,0.280178 -0.177593,0.369526 -0.118027,0.08825 -0.30996,0.132367 -0.561458,0.132367 -0.177593,0 -0.369526,-0.02978 -0.575799,-0.0739 -0.206272,-0.04412 -0.398205,-0.103688 -0.575798,-0.191933 v 0.575799 c 0.280178,0.132367 0.649703,0.191933 1.107474,0.191933 0.457771,0 0.797514,-0.08825 1.063352,-0.280178 0.251498,-0.191933 0.383866,-0.443431 0.383866,-0.783174 -0.01434,-0.118028 -0.04412,-0.265838 -0.103688,-0.398206 m -3.293744,-2.274514 h -0.649703 v 3.736072 h 0.649703 z m -1.580688,2.274514 c -0.05957,-0.118027 -0.16215,-0.236055 -0.29562,-0.339743 -0.132368,-0.103688 -0.354083,-0.206273 -0.635364,-0.325403 -0.265838,-0.103688 -0.443431,-0.177593 -0.531676,-0.236056 -0.103688,-0.05957 -0.16215,-0.132367 -0.221715,-0.191932 -0.04412,-0.0739 -0.05957,-0.147811 -0.05957,-0.251498 0,-0.147811 0.05957,-0.251499 0.16215,-0.339744 0.103688,-0.08824 0.265838,-0.132367 0.472111,-0.132367 0.280178,0 0.591241,0.0739 0.945324,0.206273 l 0.206273,-0.501894 c -0.369526,-0.16215 -0.753392,-0.236055 -1.137257,-0.236055 -0.383866,0 -0.709269,0.08825 -0.945324,0.265838 -0.236056,0.177593 -0.354083,0.427988 -0.354083,0.737949 0,0.251498 0.0739,0.45777 0.221715,0.635363 0.14781,0.177593 0.398205,0.339743 0.767731,0.472111 0.354083,0.132367 0.591242,0.251498 0.693826,0.339743 0.118028,0.08825 0.16215,0.221715 0.16215,0.354083 0,0.16215 -0.05956,0.280178 -0.177593,0.369526 -0.118027,0.08825 -0.30996,0.132367 -0.575798,0.132367 -0.177593,0 -0.369526,-0.02978 -0.575798,-0.0739 -0.206273,-0.04412 -0.398206,-0.103688 -0.575799,-0.191933 v 0.575799 c 0.280178,0.132367 0.649704,0.191932 1.107475,0.191932 0.45777,0 0.797513,-0.08825 1.063351,-0.280177 0.251499,-0.191933 0.383866,-0.443431 0.383866,-0.783174 0,-0.118028 -0.02978,-0.265838 -0.103688,-0.398206"
     id="path5-8"
     style="fill:#ffffff;stroke-width:0.110306"
     clip-path="url(#clipPath1)" />
  <g
     id="g15">
    <rect
       style="fill:#134596;fill-opacity:1;stroke-width:3.77953"
       id="rect7-2"
       width="32"
       height="32"
       x="0"
       y="0"
       ry="3.4965398" />
    <rect
       style="fill:#009739;fill-opacity:1;stroke-width:3.77953"
       id="rect7-2-1"
       width="32"
       height="32"
       x="92.027885"
       y="-23.698631"
       ry="3.4965398"
       clip-path="url(#clipPath11)"
       transform="translate(-92.027885,23.698631)" />
    <g
       id="BRNCO"
       transform="matrix(0.09588169,0,0,0.09588169,5.5110661,10.424127)"
       clip-path="url(#clipPath6)"
       style="fill:#ffffff">
      <path
         class="cls-1"
         d="m 218.64,2.68 c 0,-2.68 -2.68,-2.54 -2.68,-2.54 h -36.82 c -2.41,0 -2.28,2.68 -2.28,2.68 v 61.59 c 0,9.1 -2.95,17.67 -12.72,18.07 -9.77,0.4 -25.17,-9.91 -25.17,-9.91 0,0 -85.82,-63.6 -90.64,-67.75 C 41.78,-0.8 35.22,0.13 35.22,0.13 H 3.49 C -0.26,0.13 0,2.68 0,2.68 v 110.59 c 0,3.35 2.68,2.95 2.68,2.95 h 37.49 c 2.54,0 2.01,-3.21 2.01,-3.21 0,0 -0.13,-40.7 -0.13,-58.64 0,-17.94 12.72,-16.33 12.72,-16.33 0,0 3.88,-1.61 25.17,8.84 21.15,10.44 97.6,69.35 97.6,69.35 h 39.09 c 2.54,0 2.14,-2.81 2.14,-2.81 L 218.64,2.7 v 0 z"
         id="path1"
         style="fill:#ffffff" />
      <path
         class="cls-1"
         d="m 1008.16,91.18 c -3.75,-3.21 -15.26,-7.9 -15.26,-7.9 L 897.71,47 c 0,0 -8.7,-3.21 -8.7,-10.44 0,-7.23 10.98,-6.16 10.98,-6.16 h 63.19 V 0 H 846.7 c 0,0 -22.09,0.67 -22.09,15.26 0,14.59 19.01,20.22 19.01,20.22 l 80.73,30.93 c 0,0 16.74,7.9 16.74,13.66 0,5.76 -5.36,7.5 -14.46,7.5 h -92.51 c 0,0 -5.36,-0.4 -5.36,4.28 V 113 c 0,0 0.8,2.81 4.95,2.81 h 156.11 c 0,0 14.06,1.07 21.29,-6.83 7.23,-7.63 0.8,-14.46 -2.95,-17.81"
         id="path2"
         style="fill:#ffffff" />
      <path
         class="cls-1"
         d="m 340.34,105.37 c -39.23,0 -71.09,-21.15 -71.09,-47.4 0,-26.25 31.86,-47.4 71.09,-47.4 39.23,0 71.09,21.15 71.09,47.4 0,26.25 -31.86,47.4 -71.09,47.4 m 474.49,-32 V 0 h -38.29 v 69.08 c 0,0 6.29,33.2 -59.98,33.2 -66.27,0 -62.93,-33.2 -62.93,-33.2 V 22.22 C 653.63,0.54 632.88,0 632.88,0 H 340.87 c -62.12,0 -112.59,25.71 -112.59,57.44 0,31.73 50.34,57.44 112.6,57.44 62.26,0 112.6,-25.71 112.6,-57.44 0,-9.24 -4.28,-17.81 -11.65,-25.57 v 0 c -6.16,-6.16 1.47,-7.1 1.47,-7.1 h 65.47 v 91.17 h 35.35 c 4.02,0 3.75,-3.35 3.75,-3.35 V 34.41 c 0,-9.64 10.84,-9.91 10.84,-9.91 h 47.53 c 9.91,0 9.1,8.03 9.1,8.03 v 42.44 c 0,0 -4.28,39.76 101.62,39.76 105.77,0.13 97.87,-41.37 97.87,-41.37"
         id="path3"
         style="fill:#ffffff" />
      <path
         class="cls-1"
         d="m 994.1,0.54 c -1.34,0.4 -2.68,0.8 -3.75,1.47 -1.2,0.67 -2.28,1.47 -3.21,2.41 -0.94,0.94 -1.74,1.87 -2.54,3.08 -0.67,1.07 -1.2,2.28 -1.61,3.61 -0.41,1.33 -0.54,2.68 -0.54,4.02 0,1.34 0.13,2.68 0.54,4.02 0.4,1.34 0.94,2.41 1.61,3.61 0.67,1.07 1.47,2.14 2.54,3.08 0.94,0.94 2.01,1.74 3.21,2.41 1.2,0.67 2.41,1.2 3.75,1.47 1.34,0.4 2.81,0.54 4.28,0.54 1.47,0 2.95,-0.13 4.28,-0.54 1.33,-0.41 2.68,-0.8 3.88,-1.47 1.2,-0.67 2.28,-1.47 3.21,-2.41 0.94,-0.94 1.87,-2.01 2.54,-3.08 0.67,-1.07 1.2,-2.28 1.61,-3.61 0.41,-1.33 0.54,-2.68 0.54,-4.02 0,-1.34 -0.27,-2.68 -0.54,-4.02 -0.4,-1.34 -0.94,-2.54 -1.61,-3.61 -0.67,-1.07 -1.47,-2.14 -2.54,-3.08 -1.07,-0.94 -2.01,-1.74 -3.21,-2.41 -1.2,-0.67 -2.41,-1.2 -3.88,-1.47 C 1001.33,0.13 999.85,0 998.38,0 c -1.47,0 -2.81,0.27 -4.28,0.54 m 10.71,17.81 c -0.27,-0.4 -0.54,-0.8 -0.8,-1.2 -0.26,-0.4 -0.67,-0.67 -1.07,-0.8 0.67,-0.27 1.2,-0.54 1.61,-0.8 0.4,-0.4 0.8,-0.8 1.07,-1.2 0.27,-0.4 0.54,-0.94 0.67,-1.47 0.13,-0.53 0.27,-1.07 0.27,-1.61 0,-0.8 -0.13,-1.61 -0.4,-2.28 -0.27,-0.67 -0.8,-1.2 -1.47,-1.74 -0.67,-0.54 -1.47,-0.8 -2.54,-1.07 -1.07,-0.27 -2.28,-0.4 -3.75,-0.4 h -7.63 v 18.19 h 5.76 v -6.16 h 0.67 c 0.27,0 0.67,0 0.8,0.13 0.13,0.13 0.4,0.27 0.54,0.54 l 2.01,4.69 c 0.27,0.54 0.8,0.8 1.61,0.8 h 4.69 c -1.07,0.94 -2.41,1.74 -3.88,2.28 -1.47,0.54 -2.95,0.8 -4.69,0.8 -1.74,0 -3.35,-0.27 -4.95,-0.94 -1.47,-0.67 -2.81,-1.47 -4.02,-2.54 -1.07,-1.07 -2.01,-2.41 -2.68,-3.88 -0.67,-1.47 -0.94,-3.08 -0.94,-4.82 0,-1.74 0.27,-3.35 0.94,-4.82 0.67,-1.47 1.47,-2.81 2.68,-3.88 1.07,-1.07 2.41,-2.01 4.02,-2.68 1.47,-0.67 3.08,-0.94 4.95,-0.94 1.2,0 2.28,0.13 3.35,0.4 1.07,0.27 2.01,0.67 2.95,1.2 0.94,0.53 1.74,1.2 2.54,1.87 0.8,0.67 1.34,1.61 2.01,2.54 0.54,0.94 0.94,1.87 1.2,2.95 0.27,1.07 0.4,2.14 0.4,3.35 0,1.74 -0.27,3.21 -0.94,4.69 -0.67,1.47 -1.47,2.68 -2.54,3.75 l -2.41,-4.95 z m -8.17,-4.02 V 9.91 h 1.74 c 0.54,0 1.07,0 1.34,0.13 0.4,0.13 0.67,0.27 0.8,0.4 0.13,0.13 0.27,0.4 0.27,0.67 0,0.27 0.13,0.54 0.13,0.94 0,0.4 0,0.67 -0.13,0.94 0,0.27 -0.13,0.54 -0.4,0.67 -0.27,0.13 -0.54,0.27 -0.94,0.4 -0.4,0.13 -0.94,0.13 -1.61,0.13 l -1.2,0.13 v 0 z"
         id="path4"
         style="fill:#ffffff" />
      <path
         class="cls-1"
         d="m 1013.51,164.01 c -0.54,-1.07 -1.47,-2.14 -2.68,-3.08 -1.21,-0.94 -3.21,-1.87 -5.76,-2.95 -2.41,-0.94 -4.02,-1.61 -4.82,-2.14 -0.94,-0.54 -1.61,-1.2 -2.01,-1.74 -0.4,-0.67 -0.54,-1.34 -0.54,-2.28 0,-1.34 0.54,-2.28 1.47,-3.08 0.94,-0.8 2.41,-1.2 4.28,-1.2 2.54,0 5.36,0.67 8.57,1.87 l 1.87,-4.55 c -3.35,-1.47 -6.83,-2.14 -10.31,-2.14 -3.48,0 -6.43,0.8 -8.57,2.41 -2.14,1.61 -3.21,3.88 -3.21,6.69 0,2.28 0.67,4.15 2.01,5.76 1.34,1.61 3.61,3.08 6.96,4.28 3.21,1.2 5.36,2.28 6.29,3.08 1.07,0.8 1.47,2.01 1.47,3.21 0,1.47 -0.54,2.54 -1.61,3.35 -1.07,0.81 -2.81,1.2 -5.09,1.2 -1.61,0 -3.35,-0.27 -5.09,-0.67 -1.87,-0.4 -3.61,-0.94 -5.22,-1.74 v 5.22 c 2.54,1.2 5.89,1.74 10.04,1.74 4.15,0 7.23,-0.8 9.64,-2.54 2.28,-1.74 3.48,-4.02 3.48,-7.1 -0.27,-1.07 -0.54,-2.41 -1.2,-3.61 M 960.6,150.75 c 1.74,-2.14 4.42,-3.21 8.03,-3.21 3.61,0 6.16,1.07 7.9,3.21 1.74,2.14 2.68,5.36 2.68,9.51 0,4.15 -0.94,7.36 -2.68,9.51 -1.74,2.15 -4.42,3.21 -7.9,3.21 -3.48,0 -6.16,-1.07 -7.9,-3.21 -1.74,-2.14 -2.68,-5.36 -2.68,-9.51 -0.13,-4.15 0.8,-7.36 2.54,-9.51 m 20.35,-3.35 c -2.95,-3.08 -7.1,-4.55 -12.45,-4.55 -5.35,0 -9.64,1.47 -12.59,4.55 -2.95,2.95 -4.42,7.36 -4.42,12.85 0,5.49 1.47,9.91 4.42,12.99 2.95,3.08 7.1,4.55 12.45,4.55 5.35,0 9.51,-1.47 12.45,-4.55 2.95,-3.08 4.42,-7.36 4.42,-12.85 0.13,-5.62 -1.34,-10.04 -4.28,-12.99 m -40.43,0.8 c 1.34,0.4 2.68,0.94 3.88,1.47 l 2.14,-4.69 c -3.08,-1.47 -6.56,-2.14 -10.18,-2.14 -3.62,0 -6.56,0.67 -9.1,2.14 -2.54,1.34 -4.55,3.48 -5.89,6.02 -1.34,2.54 -2.01,5.76 -2.01,9.24 0,5.62 1.47,9.91 4.28,12.85 2.81,2.95 6.83,4.55 12.18,4.55 3.61,0 6.83,-0.54 9.64,-1.47 v -4.69 c -1.61,0.4 -3.08,0.8 -4.42,1.07 -1.47,0.27 -2.95,0.4 -4.42,0.4 -3.48,0 -6.29,-1.07 -8.03,-3.21 -1.87,-2.14 -2.81,-5.36 -2.81,-9.51 0,-4.15 0.94,-7.1 2.95,-9.37 2.01,-2.28 4.55,-3.35 8.03,-3.35 1.07,0 2.41,0.27 3.75,0.67 m -29.59,-4.82 h -5.89 v 33.87 h 5.89 z m -32.13,33.87 10.84,-28.25 h 0.27 c 0,0.54 -0.13,2.14 -0.27,4.95 -0.13,2.68 -0.13,4.95 -0.13,6.56 v 16.74 h 5.62 v -33.87 h -8.3 l -10.31,26.91 h -0.13 l -10.04,-26.91 h -8.3 v 33.87 h 5.36 v -16.47 c 0,-3.75 -0.13,-7.63 -0.4,-11.78 h 0.27 l 10.44,28.38 5.09,-0.13 v 0 z m -41.77,-13.52 8.57,13.52 h 6.69 l -10.18,-15 c 4.69,-1.87 6.96,-4.82 6.96,-8.97 0,-3.35 -1.07,-5.76 -3.35,-7.36 -2.28,-1.61 -5.62,-2.41 -10.31,-2.41 h -10.18 v 33.87 h 5.89 v -13.52 l 5.89,-0.13 v 0 z m -5.89,-15.66 H 835 c 2.68,0 4.69,0.4 6.02,1.2 1.33,0.8 2.01,2.14 2.01,4.15 0,1.87 -0.67,3.35 -1.87,4.28 -1.2,0.93 -3.21,1.47 -6.02,1.47 h -4.15 l 0.13,-11.11 v 0 z m -24.5,-7.5 c 1.2,-0.8 2.54,-2.01 4.28,-3.48 1.74,-1.47 2.95,-2.68 3.88,-3.61 v -0.54 h -6.69 c -0.54,0.94 -1.34,2.01 -2.41,3.35 -1.07,1.34 -2.01,2.54 -2.95,3.61 v 0.54 l 3.88,0.13 v 0 z m 10.44,32 h -14.59 v -10.71 h 13.52 v -4.69 h -13.52 v -9.24 h 14.46 v -4.69 h -20.35 v 33.87 h 20.35 v -4.55 h 0.13 z m -36.95,-24.5 h 10.58 v -4.69 h -27.04 v 4.69 h 10.58 v 29.19 h 5.89 v -29.19 0 z m -34.41,15.93 c -0.54,-1.07 -1.47,-2.14 -2.68,-3.08 -1.2,-0.94 -3.21,-1.87 -5.76,-2.95 -2.41,-0.94 -4.02,-1.61 -4.95,-2.14 -0.93,-0.53 -1.61,-1.2 -2.01,-1.74 -0.4,-0.67 -0.67,-1.34 -0.67,-2.28 0,-1.34 0.54,-2.28 1.47,-3.08 0.93,-0.8 2.41,-1.2 4.28,-1.2 2.54,0 5.36,0.67 8.57,1.87 l 1.87,-4.55 c -3.35,-1.47 -6.83,-2.14 -10.31,-2.14 -3.48,0 -6.43,0.8 -8.57,2.41 -2.14,1.61 -3.21,3.88 -3.21,6.69 0,2.28 0.67,4.15 2.01,5.76 1.34,1.61 3.61,3.08 6.96,4.28 3.21,1.2 5.36,2.28 6.29,3.08 1.07,0.8 1.47,2.01 1.47,3.21 0,1.47 -0.54,2.54 -1.61,3.35 -1.07,0.81 -2.81,1.2 -5.09,1.2 -1.61,0 -3.35,-0.27 -5.09,-0.67 -1.87,-0.4 -3.61,-0.94 -5.22,-1.74 v 5.22 c 2.54,1.2 5.89,1.74 10.04,1.74 4.15,0 7.23,-0.8 9.64,-2.54 2.28,-1.74 3.48,-4.02 3.48,-7.1 -0.13,-1.07 -0.4,-2.41 -0.94,-3.61 m -46.99,-0.94 3.21,-8.84 c 0.8,-2.28 1.47,-4.28 2.01,-6.29 0.13,0.67 0.4,1.61 0.94,2.95 0.4,1.34 0.8,2.28 1.07,2.95 l 3.35,9.24 h -10.58 z m 21.82,14.19 -13.52,-34.01 h -6.29 l -13.39,34.01 h 6.16 l 3.48,-9.37 h 13.79 l 3.61,9.37 z m -54.89,0 10.84,-28.25 h 0.27 c 0,0.54 -0.13,2.14 -0.27,4.95 -0.13,2.68 -0.13,4.95 -0.13,6.56 v 16.74 h 5.62 v -33.87 h -8.3 l -10.31,26.91 h -0.13 l -10.04,-26.91 h -8.3 v 33.87 h 5.36 v -16.47 c 0,-3.75 -0.13,-7.63 -0.4,-11.78 h 0.27 l 10.44,28.38 5.09,-0.13 v 0 z m -29.05,-4.69 H 622.1 v -10.71 h 13.52 v -4.69 H 622.1 v -9.24 h 14.46 v -4.69 h -20.35 v 33.87 h 20.35 v -4.55 z m -36.95,-24.5 h 10.58 v -4.69 h -27.04 v 4.69 h 10.58 v 29.19 h 5.89 v -29.19 0 z m -20.75,15.93 c -0.54,-1.07 -1.47,-2.14 -2.68,-3.08 -1.2,-0.94 -3.21,-1.87 -5.76,-2.95 -2.41,-0.94 -4.02,-1.61 -4.82,-2.14 -0.94,-0.54 -1.61,-1.2 -2.01,-1.74 -0.4,-0.54 -0.67,-1.34 -0.67,-2.28 0,-1.34 0.54,-2.28 1.47,-3.08 0.93,-0.8 2.41,-1.2 4.28,-1.2 2.54,0 5.36,0.67 8.57,1.87 l 1.87,-4.55 c -3.35,-1.47 -6.83,-2.14 -10.31,-2.14 -3.48,0 -6.43,0.8 -8.57,2.41 -2.14,1.61 -3.21,3.88 -3.21,6.69 0,2.28 0.67,4.15 2.01,5.76 1.34,1.61 3.61,3.08 6.96,4.28 3.21,1.2 5.36,2.28 6.29,3.08 1.07,0.8 1.47,2.01 1.47,3.21 0,1.47 -0.54,2.54 -1.61,3.35 -1.07,0.8 -2.81,1.2 -5.09,1.2 -1.61,0 -3.35,-0.27 -5.22,-0.67 -1.87,-0.4 -3.61,-0.94 -5.22,-1.74 v 5.22 c 2.54,1.2 5.89,1.74 10.04,1.74 4.15,0 7.23,-0.8 9.64,-2.54 2.28,-1.74 3.48,-4.02 3.48,-7.1 -0.13,-1.07 -0.4,-2.41 -0.94,-3.61 m -29.86,-20.62 h -5.89 v 33.87 h 5.89 z m -14.33,20.62 c -0.54,-1.07 -1.47,-2.14 -2.68,-3.08 -1.2,-0.94 -3.21,-1.87 -5.76,-2.95 -2.41,-0.94 -4.02,-1.61 -4.82,-2.14 -0.94,-0.54 -1.47,-1.2 -2.01,-1.74 -0.4,-0.67 -0.54,-1.34 -0.54,-2.28 0,-1.34 0.54,-2.28 1.47,-3.08 0.94,-0.8 2.41,-1.2 4.28,-1.2 2.54,0 5.36,0.67 8.57,1.87 l 1.87,-4.55 c -3.35,-1.47 -6.83,-2.14 -10.31,-2.14 -3.48,0 -6.43,0.8 -8.57,2.41 -2.14,1.61 -3.21,3.88 -3.21,6.69 0,2.28 0.67,4.15 2.01,5.76 1.34,1.61 3.61,3.08 6.96,4.28 3.21,1.2 5.36,2.28 6.29,3.08 1.07,0.8 1.47,2.01 1.47,3.21 0,1.47 -0.54,2.54 -1.61,3.35 -1.07,0.8 -2.81,1.2 -5.22,1.2 -1.61,0 -3.35,-0.27 -5.22,-0.67 -1.87,-0.4 -3.61,-0.94 -5.22,-1.74 v 5.22 c 2.54,1.2 5.89,1.74 10.04,1.74 4.15,0 7.23,-0.8 9.64,-2.54 2.28,-1.74 3.48,-4.02 3.48,-7.1 0,-1.07 -0.27,-2.41 -0.94,-3.61"
         id="path5"
         style="fill:#ffffff" />
    </g>
    <rect
       style="fill:#fedd00;fill-opacity:1;stroke-width:3.77953"
       id="rect7-2-34"
       width="32"
       height="32"
       x="60.727505"
       y="-5.5816727"
       ry="3.4965398"
       clip-path="url(#clipPath14)"
       transform="translate(-60.727504,5.5816724)" />
  </g>
</svg>
