<?xml version="1.0" encoding="UTF-8" standalone="no"?>
<svg
   id="Capa_1"
   height="512"
   viewBox="0 0 512.009 512.009"
   width="512"
   version="1.1"
   sodipodi:docname="icone-card-iso9001.svg"
   inkscape:version="1.3 (0e150ed6c4, 2023-07-21)"
   xmlns:inkscape="http://www.inkscape.org/namespaces/inkscape"
   xmlns:sodipodi="http://sodipodi.sourceforge.net/DTD/sodipodi-0.dtd"
   xmlns="http://www.w3.org/2000/svg"
   xmlns:svg="http://www.w3.org/2000/svg">
  <defs
     id="defs5" />
  <sodipodi:namedview
     id="namedview5"
     pagecolor="#505050"
     bordercolor="#ffffff"
     borderopacity="1"
     inkscape:showpageshadow="0"
     inkscape:pageopacity="0"
     inkscape:pagecheckerboard="1"
     inkscape:deskcolor="#505050"
     inkscape:zoom="1.5878906"
     inkscape:cx="255.68512"
     inkscape:cy="256"
     inkscape:window-width="1920"
     inkscape:window-height="1009"
     inkscape:window-x="-8"
     inkscape:window-y="-8"
     inkscape:window-maximized="1"
     inkscape:current-layer="Capa_1" />
  <g
     id="g5"
     style="fill:#ffffff">
    <path
       d="m512.006 256c0-68.38-26.629-132.668-74.98-181.02-48.353-48.351-112.641-74.98-181.02-74.98-57.76 0-112.277 18.774-157.659 54.293-3.262 2.553-3.836 7.267-1.284 10.528 2.554 3.262 7.267 3.837 10.529 1.284 26.27-20.561 55.793-35.16 87.28-43.354-5.202 4.085-10.269 8.703-15.172 13.842-20.56 21.545-37.847 51.77-50.175 87.657h-3.587c-17.62 0-33.917 5.774-47.098 15.528h-34.05c10.207-18.501 22.922-35.751 37.963-51.304 2.879-2.978 2.8-7.726-.177-10.604-2.978-2.882-7.726-2.801-10.605.177-46.417 47.992-71.968 111.201-71.968 177.962 0 68.347 26.622 132.65 74.983 181.011 48.263 48.262 112.403 74.882 180.642 74.98.252.012.499.012.751 0 68.241-.097 132.383-26.716 180.647-74.98 48.351-48.352 74.98-112.64 74.98-181.02zm-15.115-7.491h-31.479v-44.92c0-18.391-6.29-35.341-16.832-48.811h26.125c13.316 28.657 21.161 60.35 22.186 93.731zm-31.479 59.902v-44.902h31.478c-1.026 33.373-8.871 65.059-22.184 93.71h-26.124c10.541-13.47 16.83-30.418 16.83-48.808zm1.673-168.633h-33.913c-13.181-9.755-29.478-15.528-47.098-15.528h-3.587c-12.328-35.887-29.616-66.112-50.175-87.657-4.841-5.073-9.842-9.64-14.975-13.687 64.342 16.943 118.247 59.889 149.748 116.872zm-218.582-124.38v108.852h-103.074c23.105-63.835 61.61-104.453 103.074-108.852zm74.361 123.852c4.142 0 7.5-3.357 7.5-7.5s-3.358-7.5-7.5-7.5h-59.36v-108.852c41.466 4.396 79.974 45.015 103.079 108.852h-8.719c-4.142 0-7.5 3.357-7.5 7.5s3.358 7.5 7.5 7.5h28.21c35.476 0 64.338 28.862 64.338 64.339v104.822c0 35.477-28.862 64.339-64.338 64.339-30.431 0-233.939 0-260.136 0-35.476 0-64.338-28.862-64.338-64.339 0-.101 0-90.485 0-104.822 0-35.477 28.862-64.339 64.338-64.339zm-74.361 357.352c-41.464-4.399-79.97-45.017-103.074-108.852h103.074zm15-108.852h103.079c-23.106 63.837-61.614 104.456-103.079 108.852zm-248.382-124.241h31.478v44.902c0 18.39 6.289 35.338 16.829 48.808h-26.123c-13.313-28.651-21.157-60.337-22.184-93.71zm48.31-108.731c-10.542 13.47-16.832 30.419-16.832 48.811v44.92h-31.479c1.001-32.815 8.571-64.586 22.07-93.73h26.241zm-18.506 217.441h33.911c13.182 9.756 29.48 15.531 47.102 15.531h3.587c12.328 35.887 29.616 66.111 50.175 87.656 4.842 5.074 9.843 9.641 14.976 13.688-64.344-16.942-118.251-59.89-149.751-116.875zm272.41 116.875c5.133-4.047 10.134-8.614 14.976-13.688 20.56-21.545 37.847-51.77 50.175-87.656h3.587c17.622 0 33.92-5.775 47.102-15.531h33.911c-31.5 56.985-85.407 99.933-149.751 116.875z"
       id="path1"
       style="fill:#ffffff" />
    <path
       d="m116.224 356.688c12.699 0 23.031-10.332 23.031-23.031v-155.313c0-12.699-10.332-23.031-23.031-23.031s-23.031 10.332-23.031 23.031v95.931c0 4.143 3.358 7.5 7.5 7.5s7.5-3.357 7.5-7.5v-95.931c0-4.429 3.603-8.031 8.031-8.031s8.031 3.603 8.031 8.031v155.312c0 4.429-3.603 8.031-8.031 8.031s-8.031-3.603-8.031-8.031v-24.382c0-4.143-3.358-7.5-7.5-7.5s-7.5 3.357-7.5 7.5v24.382c0 12.699 10.332 23.032 23.031 23.032z"
       id="path2"
       style="fill:#ffffff" />
    <path
       d="m232.709 279.031c4.406 0 8.495 1.77 11.514 4.981 3.016 3.209 4.525 7.413 4.251 11.837-.483 7.784-6.959 14.261-14.743 14.744-6.702.415-12.955-3.441-15.57-9.594-3.53-8.306-11.79-13.672-21.042-13.672-7.801 0-15.012 3.898-19.287 10.43-4.265 6.515-4.955 14.66-1.844 21.788 10.252 23.498 33.474 38.086 59.123 37.096 32.096-1.219 58.192-27.315 59.412-59.411.645-16.991-5.479-33.079-17.246-45.301-11.771-12.228-27.599-18.961-44.568-18.961-4.406 0-8.495-1.77-11.514-4.981-3.016-3.209-4.525-7.413-4.251-11.837.483-7.784 6.959-14.261 14.743-14.744 6.691-.412 12.954 3.44 15.57 9.594 3.53 8.306 11.79 13.672 21.042 13.672 7.801 0 15.011-3.898 19.287-10.429 4.266-6.516 4.956-14.661 1.845-21.79-10.256-23.508-33.452-38.085-59.123-37.095-32.096 1.219-58.192 27.315-59.412 59.411-.645 16.991 5.479 33.079 17.246 45.301 11.77 12.228 27.598 18.961 44.567 18.961zm-46.825-63.692c.923-24.306 20.686-44.068 44.992-44.992 19.453-.725 37.035 10.294 44.806 28.104 1.096 2.513.861 5.274-.646 7.575-1.517 2.316-3.973 3.646-6.737 3.646-3.174 0-6.083-1.824-7.237-4.539-5.097-11.991-17.275-19.518-30.304-18.697-15.451.96-27.826 13.335-28.785 28.785-.534 8.6 2.41 16.781 8.291 23.039 5.799 6.17 13.98 9.709 22.445 9.709 12.854 0 24.844 5.102 33.762 14.364 8.913 9.258 13.552 21.449 13.062 34.328-.923 24.306-20.686 44.068-44.992 44.992-19.442.717-37.034-10.294-44.806-28.105-1.096-2.513-.861-5.273.646-7.574 1.517-2.316 3.972-3.646 6.737-3.646 3.174 0 6.083 1.824 7.237 4.539 5.097 11.991 17.272 19.517 30.304 18.697 15.451-.96 27.826-13.335 28.785-28.785.534-8.6-2.41-16.781-8.291-23.039-5.799-6.17-13.98-9.709-22.445-9.709-12.854 0-24.844-5.102-33.762-14.364-8.912-9.258-13.551-21.449-13.062-34.328z"
       id="path3"
       style="fill:#ffffff" />
    <path
       d="m372.49 325.625c16.981 0 30.797-13.815 30.797-30.797v-77.656c0-16.981-13.815-30.797-30.797-30.797s-30.797 13.815-30.797 30.797v77.656c0 16.982 13.816 30.797 30.797 30.797zm-15.797-108.453c0-8.71 7.086-15.797 15.797-15.797s15.797 7.087 15.797 15.797v77.656c0 8.71-7.086 15.797-15.797 15.797s-15.797-7.087-15.797-15.797z"
       id="path4"
       style="fill:#ffffff" />
    <path
       d="m372.49 356.688c34.109 0 61.859-27.75 61.859-61.859v-77.656c0-34.109-27.75-61.859-61.859-61.859s-61.859 27.75-61.859 61.859v77.656c0 34.109 27.75 61.859 61.859 61.859zm-46.859-139.516c0-25.838 21.021-46.859 46.859-46.859s46.859 21.021 46.859 46.859v77.656c0 25.838-21.021 46.859-46.859 46.859s-46.859-21.021-46.859-46.859z"
       id="path5"
       style="fill:#ffffff" />
  </g>
</svg>
