<svg xmlns="http://www.w3.org/2000/svg" viewBox="0 0 200.9 196.4"><defs><style>      .cls-1 {        fill: #fff;        opacity: .5;      }      .cls-1, .cls-2 {        isolation: isolate;      }      .cls-2 {        font-family: ArialMT, Arial;        font-size: 13.6px;      }      .cls-2, .cls-3 {        fill: #5b5a5a;      }    </style></defs><g><g id="Camada_1"><g id="g224"><g id="OBJECTS"><g id="g423"><text id="text416" class="cls-2" transform="translate(105.5 22.7) rotate(11.6)"><tspan x="0" y="0">N</tspan></text><text id="text417" class="cls-2" transform="translate(72.9 182.9) rotate(11.6)"><tspan x="0" y="0">S</tspan></text><text id="text418" class="cls-2" transform="translate(8.4 85.8) rotate(11.6)"><tspan x="0" y="0">W</tspan></text><text id="text419" class="cls-2" transform="translate(171.6 119.4) rotate(11.6)"><tspan x="0" y="0">E</tspan></text><g id="g422"><path id="path419" class="cls-1" d="M147.9,110.6c6-29-11.9-57.3-40.1-64.7-1-.3-.3-12.9-.3-12.9,0,0-3.6,12-4.1,11.9-29.5-5.3-57.9,13.9-64,43.3-6.2,30,13.1,59.2,43.1,65.4,30,6.2,59.2-13.1,65.4-43.1Z"></path><g id="g421"><path id="path420" class="cls-3" d="M95.1,99c0,0,0-.2,0-.3,0,0,0,0,0,0,0,0,0,0,0-.1,0,0,0,0,0,0,0,0,0-.2-.2-.2,0,0-.1-.1-.2-.2,0,0-.1-.1-.2-.2,0,0-.2,0-.2-.1,0,0,0,0-.1,0,0,0,0,0-.1,0h0c0,0-.2,0-.3,0,0,0-.2,0-.3,0,0,0-.2,0-.3,0,0,0-.2,0-.3.1,0,0,0,0-.1,0s0,0-.1,0c0,0,0,0,0,0,0,0-.1.1-.2.2,0,0-.1.1-.2.2,0,0,0,.2-.1.2,0,0,0,.2,0,.3h0c0,0,0,.1,0,.2,0,0,0,0,0,.1,0,0,0,.2,0,.3,0,0,0,.2,0,.3,0,0,0,.2.1.3,0,0,0,.1.1.2,0,0,0,0,0,0,0,0,0,0,0,0,0,0,0,0,.1.1,0,0,.1.1.2.2,0,0,.2,0,.2.1,0,0,.2,0,.3,0s.1,0,.2,0c0,0,0,0,.1,0h0c0,0,.2,0,.3,0,0,0,.2,0,.3,0,0,0,.2,0,.3-.1,0,0,0,0,.1,0,0,0,0,0,0,0,0,0,0,0,0,0,0,0,.1-.1.2-.2,0,0,.1-.1.2-.2,0,0,0-.2.1-.2h0s0,0,0-.1c0,0,0-.1,0-.2,0,0,0-.2,0-.3,0,0,0-.2,0-.3Z"></path><path id="path421" class="cls-3" d="M151.7,109.4c2.5-14.8-.7-29.4-8.2-41.3.7-.6,1.3-1.2,2-1.8.4-.4,1.8-1.6,2-1.9.2-.3,0-.7-.4-.7,0,0,0,0,0,0,0,0,0,0,0,0,0,0,0,0,0,0s0,0,0,0c0,0-4.8,2.2-4.8,2.2-7.9-11.4-19.8-20.1-34.2-23.7l.3-14-5,13.1c-14.7-2.5-29.2.9-41.1,8.3l-3.4-4h0s0,0,0,0c0,0,0,0,0,0,0,0-.2,0-.3,0,0,0,0,0,0,0,0,0,0,0,0,0,0,0,0,0,0,0,0,0,0,0,0,0,0,0,0,0,0,0,0,0,0,0,0,0,0,0,0,0,0,0,0,0,0,0,0,0,0,0,0,0,0,0,0,0,0,0,0,0,0,0,0,0,0,0,0,0,0,0,0,0,0,0,0,0,0,0,0,0,0,0,0,0,0,0,0,0,0,0,0,0,0,0,0,0,0,0,0,0,0,0,0,0,0,0,0,0,0,0,0,0,0,0,0,0,0,0,0,0l2.3,4.7c-11.6,7.9-20.3,20-23.9,34.5l-14-.6s13.1,4.7,13.1,4.7c-2.5,14.8.7,29.4,8.2,41.3,0,0-3.8,3.4-3.9,3.5-.2.2-.2.4,0,.6.4.4,1.5-.3,1.9-.5.8-.4,1.6-.7,2.4-1.1,0,0,1.1-.5,1.1-.5,7.9,11.4,19.8,20.1,34.2,23.7l-.3,14,5-13c14.7,2.4,29.2-.9,41.1-8.3,0,0,3.4,4,3.5,4,0,0,0,0,0,0,0,0,.1,0,.2,0,0,0,0,0,.1,0,0,0,0,0,0,0,0,0,0,0,0,0,0,0,0,0,0,0,0,0,0,0,0,0,0,0,0,0,0,0,0,0,0,0,0,0,0,0,0,0,0,0,0,0,0,0,0,0,0,0,0,0,0,0,0,0,0,0,0,0,0,0,0,0,0,0,0,0,0,0,0,0,0,0,0,0,0,0,0,0,0,0,0,0,0,0,0,0,0,0,0,0,0,0,0,0,0,0,0,0,0,0,0,0,0,0,0,0,0,0-2.3-4.7-2.3-4.7,11.6-7.9,20.3-20,23.9-34.5l14,.6s-13.1-4.7-13.1-4.7h0ZM71,58.5l1.5,2.9s0,0-.1,0h0s-2.2-2.5-2.2-2.5c.3-.2.5-.3.8-.4ZM130.9,71.2l-2,.9,1.6-1.3c.1.1.2.3.3.4h0ZM130.5,114.5l3,1.2c-1.8,4.4-4.3,8.4-7.4,12l-2.4-2.2c2.9-3.3,5.2-7,6.8-11h0ZM123.1,126.2l2.4,2.2c-1.7,1.9-3.6,3.6-5.6,5.1l-1.5-3c1.6-1.3,3.2-2.7,4.6-4.3ZM98.5,118.7l8.6,10c-1.7.8-3.4,1.4-5.1,1.9,0,0,0,0,0,0,0-.8-.5-1.5-1.3-1.7s-1.8.4-2,1.3,0,.8.1,1.1c0,0,0,0,0,0-1.7.3-3.4.4-5.2.4l4.8-12.9ZM114.5,137.2v-.2c-.1,0-.1,0-.1,0l.2.2s0,0,0,0ZM70.6,135.9c-4-2.5-7.6-5.7-10.5-9.4l1.5-1.2,1.2-.6c2.7,3.3,5.9,6.1,9.5,8.4l-1.7,2.8ZM55.7,120c-1.1-2.1-2.1-4.3-2.9-6.5l3.1-1c.6,1.8,1.4,3.6,2.3,5.3h0s-2.5,2.3-2.5,2.3ZM56.8,84.4l-3-1.2c1.8-4.4,4.3-8.4,7.4-12l2.4,2.2c-2.9,3.3-5.2,7-6.8,11ZM64.1,72.7l-2.4-2.2c1.7-1.9,3.6-3.6,5.6-5.1l1.5,3c-1.6,1.3-3.2,2.7-4.6,4.3ZM72.8,61.7v.2c.1,0,0-.2,0-.2,0,0,0,0,0,0ZM116.6,63c4,2.5,7.6,5.7,10.5,9.4l-1.5,1.2-1.2.6c-2.7-3.3-5.9-6.1-9.5-8.4l1.7-2.8ZM131.5,78.9c1.1,2.1,2.1,4.3,2.9,6.5l-3.1,1c-.6-1.8-1.4-3.6-2.3-5.3h0s2.5-2.3,2.5-2.3ZM100,88.3l-2.4,3.9s0,0,0,0c-.3-.2-.6-.3-1-.5,0,0,0,0,0,0l1.7-4.3c.6.2,1.2.5,1.7.8ZM91.1,91.5s0,0,0,0l-1.4-4.3s0,0,0,0c.6-.2,1.2-.3,1.8-.4h0l.7,4.5s0,0,0,0c-.4,0-.7.1-1.1.3ZM93.8,81.3v4.7q-.1,0-.1,0c0,0-.2,0-.3,0-.5,0-1.1,0-1.7.1l-.7-4.7c.9-.1,1.9-.2,2.8-.2ZM93.7,86.6h0c0,0,0,0,0,0,0,0,0,0,0,0,0,0,0,0,0,0h0ZM94,86.5c.6,0,1.3,0,1.9.2l-.9,4.5s0,0,0,0c-.1,0-.3,0-.4,0-.2,0-.5,0-.7,0,0,0,0,0,0,0v-4.6ZM89.5,92.1s0,0,0,0c-.2,0-.3.2-.5.3-.2,0-.3.2-.4.3,0,0,0,0,0,0l-2.8-3.5s0,0,0,0h0s0,0,0,0c0,0,.1,0,.2-.1.2-.1.4-.3.6-.4.3-.2.5-.3.8-.5h0l2.2,4ZM80.2,87.2c.6-.7,1.3-1.3,2-1.9l2.9,3.7s0,0,0,0c-.5.4-.9.8-1.3,1.3l-3.5-3.1ZM79,88.7h0c0,.1-.1.1-.1.1,0,0,0,0,0-.1ZM82.7,92.4c.3-.5.7-1,1.1-1.5,0,0,0,0,0,0l3.4,3s0,0,0,0c-.2.3-.5.6-.7.9,0,0,0,0,0,0l-3.9-2.4ZM80.5,96.8h0c0,.4-.1.8-.2,1.2,0,.3,0,.5,0,.7h0s-4.7-.1-4.7-.1c0-.9.1-1.9.3-2.8l4.6,1h0ZM80.8,101c0-.6-.1-1.3-.1-1.9,0,0,0,0,0,0h4.6c0,.1,0,.1,0,.1,0,.4,0,.7,0,1.1,0,0,0,0,0,0l-4.5.7ZM82.2,105.2c-.3-.6-.5-1.1-.8-1.7,0,0,0,0,0,0l4.3-1.4s0,0,0,0c.1.3.3.7.4,1,0,0,0,0,0,0l-4,2.2s0,0,0,0ZM92,107.3c.2,0,.5,0,.7,0,.1,0,.3,0,.4,0,0,0,0,0,0,0v4.6c-.8,0-1.4,0-2-.2h0s.9-4.5.9-4.5c0,0,0,0,0,0ZM95.9,107.1s0,0,0,0l1.4,4.3c-.6.2-1.2.3-1.8.4h0s-.7-4.5-.7-4.5c0,0,0,0,0,0,.4,0,.7-.1,1.1-.3h0ZM93.3,112.5h0c0,0,.1,0,.2,0,.6,0,1.2,0,1.8-.1l.7,4.7c-.9.1-1.9.2-2.8.2v-4.7ZM97.5,106.4s0,0,0,0c.2,0,.3-.2.5-.3s.3-.2.4-.3c0,0,0,0,0,0l2.8,3.6h0c-.2.2-.5.4-.8.6-.3.2-.5.3-.8.5h0l-2.2-4ZM106.8,111.3c-.6.7-1.3,1.3-2,1.9l-2.9-3.7c.5-.4,1-.9,1.4-1.4,0,0,0,0,0,0l3.5,3.1ZM104.3,106.1c-.3.5-.7,1-1.1,1.5l-3.4-3s0,0,0,0c.2-.3.5-.6.7-.9,0,0,0,0,0,0l3.9,2.4h0s0,0,0,0ZM96.7,100.4s0,0,0,.1c0,.2-.2.4-.3.5-.1.2-.2.3-.3.5-.1.1-.3.3-.4.4,0,0,0,0,0,0,0,0-.1.1-.2.2,0,0-.2.1-.3.1-.2,0-.3.2-.5.2-.2,0-.4.1-.6.1-.2,0-.4,0-.6,0,0,0-.1,0-.2,0,0,0-.2,0-.3,0,0,0-.1,0-.2,0-.2,0-.4,0-.6-.2-.2,0-.4-.2-.5-.3-.2-.1-.3-.2-.5-.3-.1-.1-.3-.3-.4-.4,0,0,0,0,0,0,0,0-.1-.2-.2-.2,0,0,0-.1-.1-.2,0-.2-.2-.3-.2-.5s-.1-.4-.1-.6c0-.2,0-.4,0-.6,0-.1,0-.3,0-.4,0,0,0-.1,0-.2s0,0,0-.1c0-.1,0-.3.1-.4,0-.2.2-.4.3-.5.1-.2.2-.3.3-.5.1-.1.3-.3.4-.4,0,0,0,0,0,0,0,0,.2-.1.2-.2s.2-.1.3-.1c.2,0,.3-.2.5-.2s.4-.1.6-.1c.2,0,.4,0,.6,0,.1,0,.3,0,.4,0,0,0,0,0,.1,0s.1,0,.2,0c.1,0,.3,0,.4.1.2,0,.4.2.5.3.2.1.3.2.5.3.1.1.3.3.4.4.1.1.2.3.3.4,0,0,0,0,0,0,0,0,0,.1,0,.2,0,.1,0,.2.1.3,0,.2.1.4.1.6,0,.2,0,.4,0,.6,0,.2,0,.4,0,.6s0,.1,0,.2c0,0,0,.2,0,.3ZM106.2,99.5s0,0,0,0h-4.6c0-.1,0-.1,0-.1,0-.4,0-.7,0-1.1,0,0,0,0,0,0l4.5-.7c0,.6.1,1.3.1,1.9h0ZM106.4,101.8c0-.2,0-.4,0-.6,0-.5.1-.9.1-1.4h0s4.7.1,4.7.1c0,.9-.1,1.9-.3,2.8l-4.6-1h0ZM104.8,93.3s0,0,0,0h0s0,0,0,0c.3.5.5,1.1.7,1.7l-4.3,1.4s0,0,0,0c-.1-.3-.3-.7-.4-1,0,0,0,0,0,0,0,0,0,0,0,0l4-2.2ZM102.1,89.8c.5.4.9.9,1.3,1.4h0s-3.6,2.8-3.6,2.8c0,0,0,0,0,0-.2-.3-.5-.6-.8-.8,0,0,0,0,0,0l3-3.4s0,0,0,0h0ZM85.8,96.4s0,0,0,0c0,.2-.2.4-.2.7,0,.1,0,.3,0,.4,0,0,0,0,0,0l-4.5-.9c.1-.6.3-1.2.5-1.8l4.3,1.7ZM84.9,108.7c-.5-.4-.9-.9-1.3-1.4h0s3.6-2.8,3.6-2.8c0,0,0,0,0,0,.2.3.5.6.8.8,0,0,0,0,0,0l-3,3.4ZM88.6,111.1c-.6-.2-1.2-.5-1.7-.8l2.4-3.9s0,0,0,0c.3.2.6.3,1,.5,0,0,0,0,0,0l-1.7,4.3s0,0,0,0h0ZM101.1,102.1s0,0,0,0c0-.1.1-.3.1-.4,0-.2.1-.4.2-.7,0,0,0,0,0,0l4.5.9h0c-.1.6-.3,1.2-.5,1.8l-4.3-1.7ZM133.3,102.9c0-.7,0-1.3.1-1.9h3.3c0,1.1-.1,2.1-.2,3l-3.2-1.1ZM133.4,100.1c0-4.4-.5-8.7-1.9-12.8l3.1-1c1.5,4.5,2.1,9.2,2.1,14h-3.3ZM128.3,81.8c.9,1.7,1.6,3.5,2.2,5.4,1.4,4.3,2.1,8.8,2,13.4,0,.7,0,1.3-.1,2.1l-6.2-2.2h0c0-2.3,0-4.5-.5-6.7,0,0,0,0,0,0,.3-.2.5-.6.6-1,.2-.9-.4-1.8-1.3-2,0,0,0,0,0,0-.4-1.6-1-3.1-1.6-4.5l4.9-4.5ZM124.6,90.8s0,0,0,0c-.7,0-1.4.6-1.5,1.3s.4,1.8,1.3,2,.7,0,1,0h0c.4,2.1.5,4.2.5,6.3h0s-12.9-4.5-12.9-4.5h0s10.2-9.2,10.2-9.2c.6,1.4,1.1,2.8,1.5,4.2h0ZM111.2,96.4s0,0,0,0c0,0,0,0,0,0l-4.7.7c0-.6-.3-1.3-.5-1.9l4.5-1.5c.2.6.4,1.2.5,1.9,0,.3.1.5.1.8ZM105,92.8c-.1-.2-.2-.4-.4-.7-.2-.3-.4-.7-.7-1t0,0l3.7-2.9c.3.4.7.9.9,1.3,0,0,0,0,0,0,0,0,0,0,0,0,0,0,0,0,0,0,.2.3.4.7.6,1l-4.2,2.2ZM96.4,59.7c-2.7-.2-5.4-.1-8.1.3l-.5-3.2c3.2-.4,6.5-.5,9.8-.2l-1.2,3.2ZM87.4,60.1c-4.3.7-8.5,2.1-12.3,4.1l-1.6-2.9c4.2-2.2,8.7-3.7,13.4-4.5l.5,3.2ZM87.9,60.9s0,0,0,0c2.7-.4,5.4-.5,8.1-.3l-2.3,6.3c-1.9,0-3.8.1-5.6.5,0,0,0,0,0,0-.2-.4-.6-.8-1.1-.9-.9-.2-1.8.4-2,1.3s0,.2,0,.3c0,0,0,0,0,0-1.8.5-3.5,1.1-5.2,1.9l-4.3-5c3.9-2.1,8.1-3.4,12.4-4.1ZM85,68.4s0,0,0,0c.1.6.6,1.1,1.3,1.3s1.8-.4,2-1.3,0-.5,0-.7c0,0,0,0,0,0,1.7-.3,3.5-.4,5.3-.4l-4.8,12.9-8.6-9.9c1.6-.7,3.2-1.4,4.9-1.8ZM87.7,82.3l1.5,4.5c-.6.2-1.2.5-1.8.8l-2.2-4.2c.8-.4,1.7-.8,2.6-1.1ZM53.9,96c0,.7,0,1.3-.1,1.9h-3.3c0-1.1.1-2.1.2-3l3.2,1.1ZM53.8,98.7c0,4.4.5,8.7,1.9,12.8l-3.1,1c-1.5-4.5-2.1-9.2-2.1-14h3.3ZM58.9,117.1c-.9-1.7-1.6-3.5-2.2-5.4h0s0,0,0,0h0c-1.4-4.3-2.1-8.8-2-13.4h0s0,0,0,0c0-.7,0-1.3.1-2.1l6.2,2.2h0c0,2.1,0,4.2.4,6.2,0,0,0,0,0,0-.4.2-.7.6-.8,1.1-.2.9.4,1.8,1.3,2s0,0,.1,0c0,0,0,0,0,0,.4,1.7,1,3.3,1.7,4.9l-4.9,4.5ZM62.5,107.7h0c.7,0,1.3-.6,1.4-1.3s-.4-1.8-1.3-2-.5,0-.8,0h0c-.3-1.9-.4-3.9-.4-5.9,0,0,0,0,0,0l12.9,4.5h0s-10.2,9.2-10.2,9.2c-.6-1.5-1.2-3-1.6-4.6h0ZM75.9,102.6c0-.2,0-.4,0-.6l4.7-.7c.1.6.3,1.3.5,1.9l-4.5,1.5c-.2-.5-.3-1-.4-1.5,0,0,0,0,0,0,0-.2,0-.4-.1-.6ZM82,105.7s0,0,0,0c0,0,0,0,0,0,0,0,0,.1,0,.1.2.3.4.6.6.9.2.2.3.4.4.6t0,0l-3.7,2.9c-.2-.3-.5-.6-.7-.9,0,0,0,0,0,0h0s0,0,0,0c-.3-.4-.6-.9-.8-1.4l4.2-2.2ZM90.8,139.2c2.7.2,5.4.1,8.1-.3l.5,3.2c-3.2.4-6.5.5-9.8.2l1.2-3.2ZM99.8,138.8c4.3-.7,8.5-2.1,12.3-4.1l1.6,2.9c-4.2,2.2-8.7,3.7-13.4,4.5l-.5-3.2ZM99.3,138s0,0,0,0c-2.7.4-5.4.5-8.1.3l2.3-6.3c1.9,0,3.8-.1,5.6-.5,0,0,0,0,0,0,.2.2.5.4.9.5.8.2,1.7-.3,1.9-1.1,0,0,0,0,0,0,1.9-.5,3.8-1.2,5.5-2l4.3,5c-3.9,2.1-8.1,3.4-12.5,4.1h0ZM99.3,116.2l-1.5-4.5c.6-.2,1.2-.5,1.8-.8l2.2,4.2c-.8.4-1.7.8-2.6,1.1ZM136.9,104.2c.1-1,.2-2,.2-3.1h3.3c0,1.5-.2,2.8-.3,4.2l-3.2-1.1ZM137.1,100.3c0-4.8-.6-9.5-2.1-14.1l3.1-1c1.6,4.9,2.3,10.1,2.2,15.2h-3.3ZM134.8,85.3c-.8-2.3-1.8-4.5-2.9-6.7h0s2.5-2.3,2.5-2.3c1.4,2.5,2.6,5.2,3.6,7.9l-3.1,1ZM134.2,75.4h0s-6,5.4-6,5.4l-5.1,4.7-.3.3-10.7,9.7h0s0,0,0,0c0,0,0,0,0,0-.2-.7-.3-1.4-.6-2.1-.3-1-.8-2-1.3-3-.2-.3-.3-.6-.5-.8l11.2-7.4.4-.2,19-12.5c0,.1.2.3.2.4l-6.2,5.6ZM127.5,72.1c-3-3.7-6.6-6.9-10.6-9.5l1.7-2.8c4.4,2.8,8.2,6.2,11.5,10.2l-2.6,2ZM116.1,62.1c-2.8-1.7-5.8-3.1-8.9-4.1h0s.2-3.4.2-3.4c3.7,1.1,7.2,2.7,10.4,4.7l-1.7,2.8ZM115.8,62.5l-1.7,2.8c-2.3-1.4-4.7-2.5-7.2-3.4l.2-3.4c3,1,6,2.3,8.7,4ZM114,66.3s0,0,0,0c3.6,2.2,6.8,5,9.5,8.2l-6,2.8s0,0,0,0c-1.5-1.7-3.3-3.2-5.1-4.5,0,0,0,0,0,0,.1-.4,0-.9-.2-1.3-.5-.8-1.5-1-2.3-.5,0,0,0,0-.1,0,0,0,0,0,0,0-1-.6-2-1.1-3.1-1.5l.3-6.7c2.5.9,4.9,2,7.1,3.4h0ZM109.4,71.4s0,0,0,0c-.4.5-.4,1.3,0,1.9.5.8,1.6,1,2.3.5.2-.2.4-.4.5-.6,0,0,0,0,0,0,1.8,1.3,3.4,2.7,4.9,4.3,0,0,0,0,0,0l-11.1,5.1.6-12.5c1,.4,1.9.9,2.8,1.4h0ZM105.1,85.6s0,0,0,0c0,0,0,0,0,0h.2c0,.1-3.1,3.7-3.1,3.7-.5-.4-1-.8-1.6-1.2l2.5-4c.2,0,.3.2.5.3.6.4,1.1.8,1.6,1.2h0ZM99.9,82.5l-1.7,4.4h0c-.2,0-.4-.2-.7-.2-.4-.1-.8-.2-1.2-.3h0s0,0,0,0l1-4.6c.9.2,1.8.5,2.7.8ZM97.7,56.1c-3.3-.3-6.7-.3-10,.2l-.5-3.2c3.9-.5,7.8-.6,11.7-.1l-1.2,3.1ZM86.4,53.2l.5,3.2c-4.7.7-9.3,2.3-13.5,4.5l-1.5-2.9c4.6-2.4,9.5-4.1,14.6-4.9ZM69.2,59.1h0s9.7,11.2,9.7,11.2l.3.3,9.1,10.5h0s0,0,0,0c-.3,0-.5.2-.8.2-1,.3-2,.8-3,1.3-.3.2-.7.4-1,.6h0s-7.2-11-7.2-11l-.2-.4-12.5-19c0,0,.2,0,.2-.1l5.5,6.3ZM67.1,65c-2.1,1.6-4,3.3-5.7,5.2l-2.4-2.2c2-2.2,4.3-4.3,6.7-6.1l1.4,3ZM58.3,68.7l2.4,2.2c-3.2,3.6-5.7,7.7-7.5,12.1l-3-1.2c1.9-4.8,4.7-9.2,8.1-13.1ZM50,82.6l3,1.2c-.3.9-.7,1.8-.9,2.7h0s-3.3-.2-3.3-.2h0c.4-1.2.8-2.5,1.2-3.7ZM53.4,84l3,1.2c-.2.5-.4,1-.6,1.6l-3.3-.2c.3-.9.6-1.7.9-2.6ZM57.4,85.1s0,0,0,0h0c1.7-4.2,4.1-8.1,7.1-11.5h0s0,0,0,0c1.4-1.6,3-3.1,4.6-4.4l2.8,5.9c-1.8,1.6-3.4,3.4-4.8,5.3,0,0,0,0,0,0-.5-.1-1-.1-1.4.2-.8.5-1,1.5-.5,2.3,0,0,.1.1.2.2,0,0,0,0,0,0-.8,1.3-1.4,2.7-2,4.1l-6.6-.5c.2-.6.4-1.2.6-1.7ZM65.7,83.4h0c.5.3,1.3.4,1.8,0,.8-.5,1-1.6.5-2.3-.1-.2-.3-.4-.5-.5,0,0,0,0,0,0,1.4-1.9,2.9-3.6,4.6-5.1l6.1,12.7s0,0,0,.1h0s0,0,0,0l-14.4-1c.5-1.3,1.2-2.6,1.9-3.9ZM78.1,90l4,2.5c-.3.5-.6,1-.8,1.5,0,0,0,.2-.1.3,0,0,0,0,0,0l-4.4-1.7c.4-.9.8-1.7,1.3-2.5ZM50.3,94.7c-.1,1-.2,2-.2,3.1h-3.3c0-1.5.2-2.8.3-4.2l3.2,1.1ZM50.1,98.6c0,4.8.6,9.5,2.1,14.1l-3.1,1c-1.6-4.9-2.3-10.1-2.2-15.2h3.3ZM52.4,113.6c.8,2.3,1.8,4.5,2.9,6.7h0s-2.5,2.3-2.5,2.3c-1.4-2.5-2.6-5.2-3.6-7.9l3.1-1ZM53.1,123.5h0s6-5.4,6-5.4l5.1-4.7.3-.3,10.7-9.7c.1.6.3,1.1.5,1.7.3,1,.8,2,1.3,3,.2.4.5.8.7,1.2h0s-11.2,7.3-11.2,7.3l-.4.2-19,12.5c0-.1-.2-.3-.2-.4l6.2-5.6ZM56.3,127.7l1.9-.9-1.6,1.3c-.1-.1-.2-.3-.3-.4ZM59.8,126.8c3,3.7,6.6,6.9,10.6,9.5l-1.7,2.8c-4.4-2.8-8.2-6.2-11.5-10.2l2.6-2ZM71.1,136.7c2.8,1.7,5.8,3.1,8.9,4.1h0s-.2,3.4-.2,3.4c-3.7-1.1-7.2-2.7-10.4-4.7l1.7-2.8ZM71.4,136.4l1.7-2.8c2.3,1.4,4.7,2.5,7.2,3.4l-.2,3.4c-3-1-6-2.3-8.7-4ZM73.2,132.6s0,0,0,0c0,0,0,0,0,0-3.6-2.2-6.8-5-9.5-8.2l6-2.8h0c1.5,1.6,3.1,3,4.9,4.3,0,0,0,0,0,0,0,.4,0,.8.3,1.1.5.8,1.5,1,2.3.5,0,0,0,0,0,0,1.1.7,2.3,1.3,3.5,1.8l-.3,6.7c-2.5-.9-4.8-2-7.1-3.4h0ZM77.5,127.3s0,0,0,0c.5-.6.6-1.4.2-2.1-.5-.8-1.6-1-2.3-.5-.3.2-.5.4-.6.7,0,0,0,0,0,0-1.7-1.2-3.2-2.6-4.6-4,0,0,0,0,0,0l11.1-5.1h0s-.6,12.5-.6,12.5c-1.1-.5-2.1-1-3.2-1.6h0ZM82.1,113.1c-.1-.1-.3-.2-.4-.3l3.1-3.5c.5.4,1,.8,1.6,1.2l-2.5,4s0,0,0,0c-.6-.4-1.2-.8-1.8-1.3h0ZM88.8,111.6h0c.4.2.9.3,1.3.4.2,0,.4,0,.6.1l-1,4.6c-.9-.2-1.8-.5-2.7-.8l1.7-4.4ZM89.5,142.8c3.3.3,6.7.3,10-.2l.5,3.2c-3.9.5-7.8.6-11.7.1l1.2-3.1ZM100.9,145.7l-.5-3.2c4.7-.7,9.3-2.3,13.5-4.5l1.5,2.9c-4.6,2.4-9.5,4.1-14.6,4.9h0ZM116.2,140.4l-1.5-2.9s0,0,.1,0h0s2.2,2.5,2.2,2.5c-.3.2-.5.3-.8.4ZM118.1,139.9h0s0,0,0,0l-9.7-11.2-.3-.3-9.1-10.5h0l.2-.5s0,0,0,0c.1,0,.2,0,.3-.1,1-.3,2-.8,3-1.3.3-.2.7-.4,1-.6h0s7.5,11.3,7.5,11.3l.2.4,12.5,19c0,0-.2,0-.2.1l-5.4-6.2ZM120.2,133.9c2.1-1.6,4-3.3,5.7-5.2l2.4,2.2c-2,2.2-4.3,4.3-6.7,6.1l-1.4-3ZM128.9,130.2l-2.4-2.2c3.2-3.6,5.7-7.7,7.5-12.1l3,1.2c-1.9,4.8-4.7,9.2-8.1,13.1h0ZM137.3,116.3l-3-1.2c.3-.9.7-1.8.9-2.7h0s3.3.2,3.3.2h0c-.4,1.2-.8,2.5-1.2,3.7h0ZM133.8,114.9l-3-1.2c.2-.5.4-1,.6-1.6l3.3.2c-.3.9-.6,1.7-.9,2.6ZM129.8,113.8c-1.7,4.2-4.1,8.1-7.1,11.5-1.4,1.6-3,3.1-4.6,4.4l-2.8-5.9s0,0,0,0c1.9-1.7,3.6-3.6,5-5.6,0,0,0,0,0,0,.3,0,.7,0,1-.3.7-.5.9-1.4.6-2.1,0,0,0,0,0,0,.8-1.3,1.4-2.7,2-4.1l6.6.5h0c-.2.6-.4,1.2-.6,1.7h0ZM121.6,115.3s0,0,0,0c-.5-.6-1.5-.7-2.1-.2-.8.5-1,1.6-.5,2.3.2.3.5.5.9.7,0,0,0,0,0,0-1.4,2-3,3.7-4.8,5.3h0s-6.2-12.8-6.2-12.8h0s14.5,1,14.5,1c-.5,1.3-1.1,2.6-1.8,3.8h0ZM108.8,108.5l-4-2.5c.3-.5.6-1,.8-1.6,0,0,0-.1,0-.2h0s4.4,1.7,4.4,1.7c-.4.9-.8,1.7-1.2,2.5ZM148.3,108.2h0s-7.5-2.6-7.5-2.6c.2-1.6.3-3.2.4-4.8.2-5.6-.6-11.1-2.4-16.4-1-3-2.3-5.9-3.9-8.6h0s5.8-5.3,5.8-5.3c6.7,10.9,9.7,24.2,7.5,37.7ZM138.9,67.5s0,0,0,0l-7.2,3.3c-.2-.3-.5-.6-.7-.9,0,0,0,0,0,0,0,0,0,0,0,0,0,0,0,0,0,0-3.5-4.4-7.6-8.1-12.4-11-3.5-2.2-7.3-3.9-11.2-5h0s.4-7.9.4-7.9c13,3.4,23.8,11.3,31.1,21.6h0ZM107.5,34.4l-.4,7.7-.2,3.6-.4,8.5-.4,8.1-.3,7v.5s-.7,13.5-.7,13.5h0s0,0,0,0h0s0,1.2,0,1.2h0c-.3-.2-.7-.5-1-.7-.2-.1-.4-.3-.6-.4-.9-.6-1.9-1.1-2.9-1.5,0,0,0,0,0,0-.8-.3-1.7-.6-2.6-.8l2.7-13v-.4c0,0,4.7-22.3,4.7-22.3l.7-3.4,1.5-7.5ZM102,44.7l-2.8,7.4c-4.2-.5-8.4-.4-12.5.2-5.5.8-10.8,2.6-15.7,5.2,0,0,0,0,0,0,0,0,0,0,0,0,0,0,0,0,0,0-.4.2-.8.5-1.3.7h0s-5.1-5.9-5.1-5.9c10.9-6.7,24.1-9.7,37.5-7.7h0ZM61.8,54.1l3.4,7.1c-2.6,2-5.1,4.2-7.2,6.6-3.7,4.2-6.6,8.9-8.7,14.1-.6,1.4-1.1,2.9-1.5,4.3l-7.9-.6c3.4-13.2,11.4-24.2,21.9-31.6ZM36.2,86.3l3.5.3h0s8.3.6,8.3.6h0s0,0,0,0h0s14.9,1.1,14.9,1.1h.5s14.2,1,14.2,1h0c0,0-.1.2-.2.2-.6.9-1.1,1.9-1.5,2.9,0,0,0,0,0,0-.4.9-.7,1.9-.9,2.9l-12.9-2.7h-.4c0,0-22.3-4.7-22.3-4.7l-3.4-.7-6.6-1.4,6.8.5ZM38.9,90.7h0s7.5,2.6,7.5,2.6c-.2,1.6-.3,3.2-.4,4.8-.2,5.6.6,11.1,2.4,16.4,1,3,2.3,5.9,3.9,8.6h0s-5.8,5.3-5.8,5.3c-6.7-10.9-9.7-24.2-7.5-37.7h0ZM48.4,131.4s0,0,0,0l7.2-3.3c.2.3.5.6.7.9,0,0,0,0,0,0,0,0,0,0,0,0,3.5,4.4,7.6,8.1,12.4,11,3.5,2.2,7.3,3.9,11.2,5h0s-.4,7.9-.4,7.9c-13-3.4-23.8-11.3-31.1-21.6ZM79.8,164.5l.4-7.7.2-3.6.4-8.5.7-15.1v-.5s.7-13.6.7-13.6v-1.4c0,0,0,0,0,0h0c.4.3.8.6,1.2.9,0,0,.1,0,.2,0,.9.6,1.9,1.1,2.9,1.5.9.4,1.9.7,2.9.9l-2.7,13.3v.4c0,0-1.5,6.9-1.5,6.9,0,.2-3.2,15.4-3.2,15.4l-.7,3.4-1.5,7.5h0ZM85.2,154.2l2.8-7.4c4.2.5,8.4.4,12.5-.2,5.5-.8,10.8-2.6,15.7-5.2.4-.2.9-.5,1.3-.7h0s5.1,5.9,5.1,5.9c-10.9,6.7-24.1,9.7-37.5,7.7h0ZM125.4,144.8h0s-3.4-7.1-3.4-7.1c2.6-2,5.1-4.2,7.2-6.6,3.7-4.2,6.6-8.9,8.7-14.1.6-1.4,1.1-2.9,1.5-4.3h0l7.9.6c-3.4,13.2-11.4,24.2-21.9,31.6h0ZM151,112.6l-3.5-.2-8.3-.6h0s-8-.6-8-.6l-6.9-.5h-.5s-14.6-1.1-14.6-1.1c.1-.2.3-.4.4-.6.6-.9,1.1-1.9,1.5-2.9.3-.8.6-1.7.8-2.6l13.3,2.7h.4c0,0,22.3,4.7,22.3,4.7l3.4.7,6.6,1.4-6.8-.5Z"></path></g></g></g></g></g></g></g></svg>