<?xml version="1.0" encoding="UTF-8" standalone="no"?>
<svg
   id="Camada_1"
   viewBox="0 0 32.000001 31.999999"
   version="1.1"
   sodipodi:docname="icone-logosite-quadrado.svg"
   width="32"
   height="32"
   inkscape:version="1.3 (0e150ed6c4, 2023-07-21)"
   xmlns:inkscape="http://www.inkscape.org/namespaces/inkscape"
   xmlns:sodipodi="http://sodipodi.sourceforge.net/DTD/sodipodi-0.dtd"
   xmlns="http://www.w3.org/2000/svg"
   xmlns:svg="http://www.w3.org/2000/svg">
  <sodipodi:namedview
     id="namedview5"
     pagecolor="#505050"
     bordercolor="#ffffff"
     borderopacity="1"
     inkscape:showpageshadow="0"
     inkscape:pageopacity="0"
     inkscape:pagecheckerboard="1"
     inkscape:deskcolor="#505050"
     inkscape:zoom="8.2939138"
     inkscape:cx="25.802053"
     inkscape:cy="30.504296"
     inkscape:window-width="958"
     inkscape:window-height="1000"
     inkscape:window-x="953"
     inkscape:window-y="0"
     inkscape:window-maximized="0"
     inkscape:current-layer="Camada_1" />
  <defs
     id="defs1">
    <style
       id="style1">.cls-1{fill:#27509c;}</style>
    <clipPath
       clipPathUnits="userSpaceOnUse"
       id="clipPath5">
      <rect
         style="fill:#134596;stroke-width:26.9129"
         id="rect6"
         width="218.7968"
         height="116.23486"
         x="-0.0038558869"
         y="0" />
    </clipPath>
  </defs>
  <g
     id="BRNCO"
     transform="matrix(0.13115034,0,0,0.13115034,0.9650684,-30.624866)">
    <path
       class="cls-1"
       d="m 218.64,2.68 c 0,-2.68 -2.68,-2.54 -2.68,-2.54 h -36.82 c -2.41,0 -2.28,2.68 -2.28,2.68 v 61.59 c 0,9.1 -2.95,17.67 -12.72,18.07 -9.77,0.4 -25.17,-9.91 -25.17,-9.91 0,0 -85.82,-63.6 -90.64,-67.75 C 41.78,-0.8 35.22,0.13 35.22,0.13 H 3.49 C -0.26,0.13 0,2.68 0,2.68 v 110.59 c 0,3.35 2.68,2.95 2.68,2.95 h 37.49 c 2.54,0 2.01,-3.21 2.01,-3.21 0,0 -0.13,-40.7 -0.13,-58.64 0,-17.94 12.72,-16.33 12.72,-16.33 0,0 3.88,-1.61 25.17,8.84 21.15,10.44 97.6,69.35 97.6,69.35 h 39.09 c 2.54,0 2.14,-2.81 2.14,-2.81 L 218.64,2.7 v 0 z"
       id="path1" />
    <path
       class="cls-1"
       d="m 1008.16,91.18 c -3.75,-3.21 -15.26,-7.9 -15.26,-7.9 L 897.71,47 c 0,0 -8.7,-3.21 -8.7,-10.44 0,-7.23 10.98,-6.16 10.98,-6.16 h 63.19 V 0 H 846.7 c 0,0 -22.09,0.67 -22.09,15.26 0,14.59 19.01,20.22 19.01,20.22 l 80.73,30.93 c 0,0 16.74,7.9 16.74,13.66 0,5.76 -5.36,7.5 -14.46,7.5 h -92.51 c 0,0 -5.36,-0.4 -5.36,4.28 V 113 c 0,0 0.8,2.81 4.95,2.81 h 156.11 c 0,0 14.06,1.07 21.29,-6.83 7.23,-7.63 0.8,-14.46 -2.95,-17.81"
       id="path2" />
    <path
       class="cls-1"
       d="m 340.34,105.37 c -39.23,0 -71.09,-21.15 -71.09,-47.4 0,-26.25 31.86,-47.4 71.09,-47.4 39.23,0 71.09,21.15 71.09,47.4 0,26.25 -31.86,47.4 -71.09,47.4 m 474.49,-32 V 0 h -38.29 v 69.08 c 0,0 6.29,33.2 -59.98,33.2 -66.27,0 -62.93,-33.2 -62.93,-33.2 V 22.22 C 653.63,0.54 632.88,0 632.88,0 H 340.87 c -62.12,0 -112.59,25.71 -112.59,57.44 0,31.73 50.34,57.44 112.6,57.44 62.26,0 112.6,-25.71 112.6,-57.44 0,-9.24 -4.28,-17.81 -11.65,-25.57 v 0 c -6.16,-6.16 1.47,-7.1 1.47,-7.1 h 65.47 v 91.17 h 35.35 c 4.02,0 3.75,-3.35 3.75,-3.35 V 34.41 c 0,-9.64 10.84,-9.91 10.84,-9.91 h 47.53 c 9.91,0 9.1,8.03 9.1,8.03 v 42.44 c 0,0 -4.28,39.76 101.62,39.76 105.77,0.13 97.87,-41.37 97.87,-41.37"
       id="path3" />
    <path
       class="cls-1"
       d="m 994.1,0.54 c -1.34,0.4 -2.68,0.8 -3.75,1.47 -1.2,0.67 -2.28,1.47 -3.21,2.41 -0.94,0.94 -1.74,1.87 -2.54,3.08 -0.67,1.07 -1.2,2.28 -1.61,3.61 -0.41,1.33 -0.54,2.68 -0.54,4.02 0,1.34 0.13,2.68 0.54,4.02 0.4,1.34 0.94,2.41 1.61,3.61 0.67,1.07 1.47,2.14 2.54,3.08 0.94,0.94 2.01,1.74 3.21,2.41 1.2,0.67 2.41,1.2 3.75,1.47 1.34,0.4 2.81,0.54 4.28,0.54 1.47,0 2.95,-0.13 4.28,-0.54 1.33,-0.41 2.68,-0.8 3.88,-1.47 1.2,-0.67 2.28,-1.47 3.21,-2.41 0.94,-0.94 1.87,-2.01 2.54,-3.08 0.67,-1.07 1.2,-2.28 1.61,-3.61 0.41,-1.33 0.54,-2.68 0.54,-4.02 0,-1.34 -0.27,-2.68 -0.54,-4.02 -0.4,-1.34 -0.94,-2.54 -1.61,-3.61 -0.67,-1.07 -1.47,-2.14 -2.54,-3.08 -1.07,-0.94 -2.01,-1.74 -3.21,-2.41 -1.2,-0.67 -2.41,-1.2 -3.88,-1.47 C 1001.33,0.13 999.85,0 998.38,0 c -1.47,0 -2.81,0.27 -4.28,0.54 m 10.71,17.81 c -0.27,-0.4 -0.54,-0.8 -0.8,-1.2 -0.26,-0.4 -0.67,-0.67 -1.07,-0.8 0.67,-0.27 1.2,-0.54 1.61,-0.8 0.4,-0.4 0.8,-0.8 1.07,-1.2 0.27,-0.4 0.54,-0.94 0.67,-1.47 0.13,-0.53 0.27,-1.07 0.27,-1.61 0,-0.8 -0.13,-1.61 -0.4,-2.28 -0.27,-0.67 -0.8,-1.2 -1.47,-1.74 -0.67,-0.54 -1.47,-0.8 -2.54,-1.07 -1.07,-0.27 -2.28,-0.4 -3.75,-0.4 h -7.63 v 18.19 h 5.76 v -6.16 h 0.67 c 0.27,0 0.67,0 0.8,0.13 0.13,0.13 0.4,0.27 0.54,0.54 l 2.01,4.69 c 0.27,0.54 0.8,0.8 1.61,0.8 h 4.69 c -1.07,0.94 -2.41,1.74 -3.88,2.28 -1.47,0.54 -2.95,0.8 -4.69,0.8 -1.74,0 -3.35,-0.27 -4.95,-0.94 -1.47,-0.67 -2.81,-1.47 -4.02,-2.54 -1.07,-1.07 -2.01,-2.41 -2.68,-3.88 -0.67,-1.47 -0.94,-3.08 -0.94,-4.82 0,-1.74 0.27,-3.35 0.94,-4.82 0.67,-1.47 1.47,-2.81 2.68,-3.88 1.07,-1.07 2.41,-2.01 4.02,-2.68 1.47,-0.67 3.08,-0.94 4.95,-0.94 1.2,0 2.28,0.13 3.35,0.4 1.07,0.27 2.01,0.67 2.95,1.2 0.94,0.53 1.74,1.2 2.54,1.87 0.8,0.67 1.34,1.61 2.01,2.54 0.54,0.94 0.94,1.87 1.2,2.95 0.27,1.07 0.4,2.14 0.4,3.35 0,1.74 -0.27,3.21 -0.94,4.69 -0.67,1.47 -1.47,2.68 -2.54,3.75 l -2.41,-4.95 z m -8.17,-4.02 V 9.91 h 1.74 c 0.54,0 1.07,0 1.34,0.13 0.4,0.13 0.67,0.27 0.8,0.4 0.13,0.13 0.27,0.4 0.27,0.67 0,0.27 0.13,0.54 0.13,0.94 0,0.4 0,0.67 -0.13,0.94 0,0.27 -0.13,0.54 -0.4,0.67 -0.27,0.13 -0.54,0.27 -0.94,0.4 -0.4,0.13 -0.94,0.13 -1.61,0.13 l -1.2,0.13 v 0 z"
       id="path4" />
    <path
       class="cls-1"
       d="m 1013.51,164.01 c -0.54,-1.07 -1.47,-2.14 -2.68,-3.08 -1.21,-0.94 -3.21,-1.87 -5.76,-2.95 -2.41,-0.94 -4.02,-1.61 -4.82,-2.14 -0.94,-0.54 -1.61,-1.2 -2.01,-1.74 -0.4,-0.67 -0.54,-1.34 -0.54,-2.28 0,-1.34 0.54,-2.28 1.47,-3.08 0.94,-0.8 2.41,-1.2 4.28,-1.2 2.54,0 5.36,0.67 8.57,1.87 l 1.87,-4.55 c -3.35,-1.47 -6.83,-2.14 -10.31,-2.14 -3.48,0 -6.43,0.8 -8.57,2.41 -2.14,1.61 -3.21,3.88 -3.21,6.69 0,2.28 0.67,4.15 2.01,5.76 1.34,1.61 3.61,3.08 6.96,4.28 3.21,1.2 5.36,2.28 6.29,3.08 1.07,0.8 1.47,2.01 1.47,3.21 0,1.47 -0.54,2.54 -1.61,3.35 -1.07,0.81 -2.81,1.2 -5.09,1.2 -1.61,0 -3.35,-0.27 -5.09,-0.67 -1.87,-0.4 -3.61,-0.94 -5.22,-1.74 v 5.22 c 2.54,1.2 5.89,1.74 10.04,1.74 4.15,0 7.23,-0.8 9.64,-2.54 2.28,-1.74 3.48,-4.02 3.48,-7.1 -0.27,-1.07 -0.54,-2.41 -1.2,-3.61 M 960.6,150.75 c 1.74,-2.14 4.42,-3.21 8.03,-3.21 3.61,0 6.16,1.07 7.9,3.21 1.74,2.14 2.68,5.36 2.68,9.51 0,4.15 -0.94,7.36 -2.68,9.51 -1.74,2.15 -4.42,3.21 -7.9,3.21 -3.48,0 -6.16,-1.07 -7.9,-3.21 -1.74,-2.14 -2.68,-5.36 -2.68,-9.51 -0.13,-4.15 0.8,-7.36 2.54,-9.51 m 20.35,-3.35 c -2.95,-3.08 -7.1,-4.55 -12.45,-4.55 -5.35,0 -9.64,1.47 -12.59,4.55 -2.95,2.95 -4.42,7.36 -4.42,12.85 0,5.49 1.47,9.91 4.42,12.99 2.95,3.08 7.1,4.55 12.45,4.55 5.35,0 9.51,-1.47 12.45,-4.55 2.95,-3.08 4.42,-7.36 4.42,-12.85 0.13,-5.62 -1.34,-10.04 -4.28,-12.99 m -40.43,0.8 c 1.34,0.4 2.68,0.94 3.88,1.47 l 2.14,-4.69 c -3.08,-1.47 -6.56,-2.14 -10.18,-2.14 -3.62,0 -6.56,0.67 -9.1,2.14 -2.54,1.34 -4.55,3.48 -5.89,6.02 -1.34,2.54 -2.01,5.76 -2.01,9.24 0,5.62 1.47,9.91 4.28,12.85 2.81,2.95 6.83,4.55 12.18,4.55 3.61,0 6.83,-0.54 9.64,-1.47 v -4.69 c -1.61,0.4 -3.08,0.8 -4.42,1.07 -1.47,0.27 -2.95,0.4 -4.42,0.4 -3.48,0 -6.29,-1.07 -8.03,-3.21 -1.87,-2.14 -2.81,-5.36 -2.81,-9.51 0,-4.15 0.94,-7.1 2.95,-9.37 2.01,-2.28 4.55,-3.35 8.03,-3.35 1.07,0 2.41,0.27 3.75,0.67 m -29.59,-4.82 h -5.89 v 33.87 h 5.89 z m -32.13,33.87 10.84,-28.25 h 0.27 c 0,0.54 -0.13,2.14 -0.27,4.95 -0.13,2.68 -0.13,4.95 -0.13,6.56 v 16.74 h 5.62 v -33.87 h -8.3 l -10.31,26.91 h -0.13 l -10.04,-26.91 h -8.3 v 33.87 h 5.36 v -16.47 c 0,-3.75 -0.13,-7.63 -0.4,-11.78 h 0.27 l 10.44,28.38 5.09,-0.13 v 0 z m -41.77,-13.52 8.57,13.52 h 6.69 l -10.18,-15 c 4.69,-1.87 6.96,-4.82 6.96,-8.97 0,-3.35 -1.07,-5.76 -3.35,-7.36 -2.28,-1.61 -5.62,-2.41 -10.31,-2.41 h -10.18 v 33.87 h 5.89 v -13.52 l 5.89,-0.13 v 0 z m -5.89,-15.66 H 835 c 2.68,0 4.69,0.4 6.02,1.2 1.33,0.8 2.01,2.14 2.01,4.15 0,1.87 -0.67,3.35 -1.87,4.28 -1.2,0.93 -3.21,1.47 -6.02,1.47 h -4.15 l 0.13,-11.11 v 0 z m -24.5,-7.5 c 1.2,-0.8 2.54,-2.01 4.28,-3.48 1.74,-1.47 2.95,-2.68 3.88,-3.61 v -0.54 h -6.69 c -0.54,0.94 -1.34,2.01 -2.41,3.35 -1.07,1.34 -2.01,2.54 -2.95,3.61 v 0.54 l 3.88,0.13 v 0 z m 10.44,32 h -14.59 v -10.71 h 13.52 v -4.69 h -13.52 v -9.24 h 14.46 v -4.69 h -20.35 v 33.87 h 20.35 v -4.55 h 0.13 z m -36.95,-24.5 h 10.58 v -4.69 h -27.04 v 4.69 h 10.58 v 29.19 h 5.89 v -29.19 0 z m -34.41,15.93 c -0.54,-1.07 -1.47,-2.14 -2.68,-3.08 -1.2,-0.94 -3.21,-1.87 -5.76,-2.95 -2.41,-0.94 -4.02,-1.61 -4.95,-2.14 -0.93,-0.53 -1.61,-1.2 -2.01,-1.74 -0.4,-0.67 -0.67,-1.34 -0.67,-2.28 0,-1.34 0.54,-2.28 1.47,-3.08 0.93,-0.8 2.41,-1.2 4.28,-1.2 2.54,0 5.36,0.67 8.57,1.87 l 1.87,-4.55 c -3.35,-1.47 -6.83,-2.14 -10.31,-2.14 -3.48,0 -6.43,0.8 -8.57,2.41 -2.14,1.61 -3.21,3.88 -3.21,6.69 0,2.28 0.67,4.15 2.01,5.76 1.34,1.61 3.61,3.08 6.96,4.28 3.21,1.2 5.36,2.28 6.29,3.08 1.07,0.8 1.47,2.01 1.47,3.21 0,1.47 -0.54,2.54 -1.61,3.35 -1.07,0.81 -2.81,1.2 -5.09,1.2 -1.61,0 -3.35,-0.27 -5.09,-0.67 -1.87,-0.4 -3.61,-0.94 -5.22,-1.74 v 5.22 c 2.54,1.2 5.89,1.74 10.04,1.74 4.15,0 7.23,-0.8 9.64,-2.54 2.28,-1.74 3.48,-4.02 3.48,-7.1 -0.13,-1.07 -0.4,-2.41 -0.94,-3.61 m -46.99,-0.94 3.21,-8.84 c 0.8,-2.28 1.47,-4.28 2.01,-6.29 0.13,0.67 0.4,1.61 0.94,2.95 0.4,1.34 0.8,2.28 1.07,2.95 l 3.35,9.24 h -10.58 z m 21.82,14.19 -13.52,-34.01 h -6.29 l -13.39,34.01 h 6.16 l 3.48,-9.37 h 13.79 l 3.61,9.37 z m -54.89,0 10.84,-28.25 h 0.27 c 0,0.54 -0.13,2.14 -0.27,4.95 -0.13,2.68 -0.13,4.95 -0.13,6.56 v 16.74 h 5.62 v -33.87 h -8.3 l -10.31,26.91 h -0.13 l -10.04,-26.91 h -8.3 v 33.87 h 5.36 v -16.47 c 0,-3.75 -0.13,-7.63 -0.4,-11.78 h 0.27 l 10.44,28.38 5.09,-0.13 v 0 z m -29.05,-4.69 H 622.1 v -10.71 h 13.52 v -4.69 H 622.1 v -9.24 h 14.46 v -4.69 h -20.35 v 33.87 h 20.35 v -4.55 z m -36.95,-24.5 h 10.58 v -4.69 h -27.04 v 4.69 h 10.58 v 29.19 h 5.89 v -29.19 0 z m -20.75,15.93 c -0.54,-1.07 -1.47,-2.14 -2.68,-3.08 -1.2,-0.94 -3.21,-1.87 -5.76,-2.95 -2.41,-0.94 -4.02,-1.61 -4.82,-2.14 -0.94,-0.54 -1.61,-1.2 -2.01,-1.74 -0.4,-0.54 -0.67,-1.34 -0.67,-2.28 0,-1.34 0.54,-2.28 1.47,-3.08 0.93,-0.8 2.41,-1.2 4.28,-1.2 2.54,0 5.36,0.67 8.57,1.87 l 1.87,-4.55 c -3.35,-1.47 -6.83,-2.14 -10.31,-2.14 -3.48,0 -6.43,0.8 -8.57,2.41 -2.14,1.61 -3.21,3.88 -3.21,6.69 0,2.28 0.67,4.15 2.01,5.76 1.34,1.61 3.61,3.08 6.96,4.28 3.21,1.2 5.36,2.28 6.29,3.08 1.07,0.8 1.47,2.01 1.47,3.21 0,1.47 -0.54,2.54 -1.61,3.35 -1.07,0.8 -2.81,1.2 -5.09,1.2 -1.61,0 -3.35,-0.27 -5.22,-0.67 -1.87,-0.4 -3.61,-0.94 -5.22,-1.74 v 5.22 c 2.54,1.2 5.89,1.74 10.04,1.74 4.15,0 7.23,-0.8 9.64,-2.54 2.28,-1.74 3.48,-4.02 3.48,-7.1 -0.13,-1.07 -0.4,-2.41 -0.94,-3.61 m -29.86,-20.62 h -5.89 v 33.87 h 5.89 z m -14.33,20.62 c -0.54,-1.07 -1.47,-2.14 -2.68,-3.08 -1.2,-0.94 -3.21,-1.87 -5.76,-2.95 -2.41,-0.94 -4.02,-1.61 -4.82,-2.14 -0.94,-0.54 -1.47,-1.2 -2.01,-1.74 -0.4,-0.67 -0.54,-1.34 -0.54,-2.28 0,-1.34 0.54,-2.28 1.47,-3.08 0.94,-0.8 2.41,-1.2 4.28,-1.2 2.54,0 5.36,0.67 8.57,1.87 l 1.87,-4.55 c -3.35,-1.47 -6.83,-2.14 -10.31,-2.14 -3.48,0 -6.43,0.8 -8.57,2.41 -2.14,1.61 -3.21,3.88 -3.21,6.69 0,2.28 0.67,4.15 2.01,5.76 1.34,1.61 3.61,3.08 6.96,4.28 3.21,1.2 5.36,2.28 6.29,3.08 1.07,0.8 1.47,2.01 1.47,3.21 0,1.47 -0.54,2.54 -1.61,3.35 -1.07,0.8 -2.81,1.2 -5.22,1.2 -1.61,0 -3.35,-0.27 -5.22,-0.67 -1.87,-0.4 -3.61,-0.94 -5.22,-1.74 v 5.22 c 2.54,1.2 5.89,1.74 10.04,1.74 4.15,0 7.23,-0.8 9.64,-2.54 2.28,-1.74 3.48,-4.02 3.48,-7.1 0,-1.07 -0.27,-2.41 -0.94,-3.61"
       id="path5" />
  </g>
  <g
     id="g10">
    <g
       id="g9">
      <g
         id="g8">
        <g
           id="g7">
          <rect
             style="fill:#009739;fill-opacity:1;stroke-width:3.77953"
             id="rect7-2-3"
             width="32"
             height="32"
             x="0"
             y="0"
             ry="3.0205021" />
          <rect
             style="fill:#fedd00;fill-opacity:1;stroke-width:3.54331"
             id="rect7-2-8"
             width="30"
             height="30"
             x="1"
             y="1"
             ry="2.8317208" />
          <rect
             style="fill:#134596;fill-opacity:1;stroke-width:3.30709"
             id="rect7-2"
             width="28"
             height="28"
             x="2"
             y="2"
             ry="2.6429393" />
        </g>
        <g
           id="BRNCO-6"
           transform="matrix(0.11030621,0,0,0.11030621,3.9331023,9.5892861)"
           clip-path="url(#clipPath5)"
           style="fill:#ffffff">
          <path
             class="cls-1"
             d="m 218.64,2.68 c 0,-2.68 -2.68,-2.54 -2.68,-2.54 h -36.82 c -2.41,0 -2.28,2.68 -2.28,2.68 v 61.59 c 0,9.1 -2.95,17.67 -12.72,18.07 -9.77,0.4 -25.17,-9.91 -25.17,-9.91 0,0 -85.82,-63.6 -90.64,-67.75 C 41.78,-0.8 35.22,0.13 35.22,0.13 H 3.49 C -0.26,0.13 0,2.68 0,2.68 v 110.59 c 0,3.35 2.68,2.95 2.68,2.95 h 37.49 c 2.54,0 2.01,-3.21 2.01,-3.21 0,0 -0.13,-40.7 -0.13,-58.64 0,-17.94 12.72,-16.33 12.72,-16.33 0,0 3.88,-1.61 25.17,8.84 21.15,10.44 97.6,69.35 97.6,69.35 h 39.09 c 2.54,0 2.14,-2.81 2.14,-2.81 L 218.64,2.7 v 0 z"
             id="path1-7"
             style="fill:#ffffff" />
          <path
             class="cls-1"
             d="m 1008.16,91.18 c -3.75,-3.21 -15.26,-7.9 -15.26,-7.9 L 897.71,47 c 0,0 -8.7,-3.21 -8.7,-10.44 0,-7.23 10.98,-6.16 10.98,-6.16 h 63.19 V 0 H 846.7 c 0,0 -22.09,0.67 -22.09,15.26 0,14.59 19.01,20.22 19.01,20.22 l 80.73,30.93 c 0,0 16.74,7.9 16.74,13.66 0,5.76 -5.36,7.5 -14.46,7.5 h -92.51 c 0,0 -5.36,-0.4 -5.36,4.28 V 113 c 0,0 0.8,2.81 4.95,2.81 h 156.11 c 0,0 14.06,1.07 21.29,-6.83 7.23,-7.63 0.8,-14.46 -2.95,-17.81"
             id="path2-2"
             style="fill:#ffffff" />
          <path
             class="cls-1"
             d="m 340.34,105.37 c -39.23,0 -71.09,-21.15 -71.09,-47.4 0,-26.25 31.86,-47.4 71.09,-47.4 39.23,0 71.09,21.15 71.09,47.4 0,26.25 -31.86,47.4 -71.09,47.4 m 474.49,-32 V 0 h -38.29 v 69.08 c 0,0 6.29,33.2 -59.98,33.2 -66.27,0 -62.93,-33.2 -62.93,-33.2 V 22.22 C 653.63,0.54 632.88,0 632.88,0 H 340.87 c -62.12,0 -112.59,25.71 -112.59,57.44 0,31.73 50.34,57.44 112.6,57.44 62.26,0 112.6,-25.71 112.6,-57.44 0,-9.24 -4.28,-17.81 -11.65,-25.57 v 0 c -6.16,-6.16 1.47,-7.1 1.47,-7.1 h 65.47 v 91.17 h 35.35 c 4.02,0 3.75,-3.35 3.75,-3.35 V 34.41 c 0,-9.64 10.84,-9.91 10.84,-9.91 h 47.53 c 9.91,0 9.1,8.03 9.1,8.03 v 42.44 c 0,0 -4.28,39.76 101.62,39.76 105.77,0.13 97.87,-41.37 97.87,-41.37"
             id="path3-1"
             style="fill:#ffffff" />
          <path
             class="cls-1"
             d="m 994.1,0.54 c -1.34,0.4 -2.68,0.8 -3.75,1.47 -1.2,0.67 -2.28,1.47 -3.21,2.41 -0.94,0.94 -1.74,1.87 -2.54,3.08 -0.67,1.07 -1.2,2.28 -1.61,3.61 -0.41,1.33 -0.54,2.68 -0.54,4.02 0,1.34 0.13,2.68 0.54,4.02 0.4,1.34 0.94,2.41 1.61,3.61 0.67,1.07 1.47,2.14 2.54,3.08 0.94,0.94 2.01,1.74 3.21,2.41 1.2,0.67 2.41,1.2 3.75,1.47 1.34,0.4 2.81,0.54 4.28,0.54 1.47,0 2.95,-0.13 4.28,-0.54 1.33,-0.41 2.68,-0.8 3.88,-1.47 1.2,-0.67 2.28,-1.47 3.21,-2.41 0.94,-0.94 1.87,-2.01 2.54,-3.08 0.67,-1.07 1.2,-2.28 1.61,-3.61 0.41,-1.33 0.54,-2.68 0.54,-4.02 0,-1.34 -0.27,-2.68 -0.54,-4.02 -0.4,-1.34 -0.94,-2.54 -1.61,-3.61 -0.67,-1.07 -1.47,-2.14 -2.54,-3.08 -1.07,-0.94 -2.01,-1.74 -3.21,-2.41 -1.2,-0.67 -2.41,-1.2 -3.88,-1.47 C 1001.33,0.13 999.85,0 998.38,0 c -1.47,0 -2.81,0.27 -4.28,0.54 m 10.71,17.81 c -0.27,-0.4 -0.54,-0.8 -0.8,-1.2 -0.26,-0.4 -0.67,-0.67 -1.07,-0.8 0.67,-0.27 1.2,-0.54 1.61,-0.8 0.4,-0.4 0.8,-0.8 1.07,-1.2 0.27,-0.4 0.54,-0.94 0.67,-1.47 0.13,-0.53 0.27,-1.07 0.27,-1.61 0,-0.8 -0.13,-1.61 -0.4,-2.28 -0.27,-0.67 -0.8,-1.2 -1.47,-1.74 -0.67,-0.54 -1.47,-0.8 -2.54,-1.07 -1.07,-0.27 -2.28,-0.4 -3.75,-0.4 h -7.63 v 18.19 h 5.76 v -6.16 h 0.67 c 0.27,0 0.67,0 0.8,0.13 0.13,0.13 0.4,0.27 0.54,0.54 l 2.01,4.69 c 0.27,0.54 0.8,0.8 1.61,0.8 h 4.69 c -1.07,0.94 -2.41,1.74 -3.88,2.28 -1.47,0.54 -2.95,0.8 -4.69,0.8 -1.74,0 -3.35,-0.27 -4.95,-0.94 -1.47,-0.67 -2.81,-1.47 -4.02,-2.54 -1.07,-1.07 -2.01,-2.41 -2.68,-3.88 -0.67,-1.47 -0.94,-3.08 -0.94,-4.82 0,-1.74 0.27,-3.35 0.94,-4.82 0.67,-1.47 1.47,-2.81 2.68,-3.88 1.07,-1.07 2.41,-2.01 4.02,-2.68 1.47,-0.67 3.08,-0.94 4.95,-0.94 1.2,0 2.28,0.13 3.35,0.4 1.07,0.27 2.01,0.67 2.95,1.2 0.94,0.53 1.74,1.2 2.54,1.87 0.8,0.67 1.34,1.61 2.01,2.54 0.54,0.94 0.94,1.87 1.2,2.95 0.27,1.07 0.4,2.14 0.4,3.35 0,1.74 -0.27,3.21 -0.94,4.69 -0.67,1.47 -1.47,2.68 -2.54,3.75 l -2.41,-4.95 z m -8.17,-4.02 V 9.91 h 1.74 c 0.54,0 1.07,0 1.34,0.13 0.4,0.13 0.67,0.27 0.8,0.4 0.13,0.13 0.27,0.4 0.27,0.67 0,0.27 0.13,0.54 0.13,0.94 0,0.4 0,0.67 -0.13,0.94 0,0.27 -0.13,0.54 -0.4,0.67 -0.27,0.13 -0.54,0.27 -0.94,0.4 -0.4,0.13 -0.94,0.13 -1.61,0.13 l -1.2,0.13 v 0 z"
             id="path4-8"
             style="fill:#ffffff" />
          <path
             class="cls-1"
             d="m 1013.51,164.01 c -0.54,-1.07 -1.47,-2.14 -2.68,-3.08 -1.21,-0.94 -3.21,-1.87 -5.76,-2.95 -2.41,-0.94 -4.02,-1.61 -4.82,-2.14 -0.94,-0.54 -1.61,-1.2 -2.01,-1.74 -0.4,-0.67 -0.54,-1.34 -0.54,-2.28 0,-1.34 0.54,-2.28 1.47,-3.08 0.94,-0.8 2.41,-1.2 4.28,-1.2 2.54,0 5.36,0.67 8.57,1.87 l 1.87,-4.55 c -3.35,-1.47 -6.83,-2.14 -10.31,-2.14 -3.48,0 -6.43,0.8 -8.57,2.41 -2.14,1.61 -3.21,3.88 -3.21,6.69 0,2.28 0.67,4.15 2.01,5.76 1.34,1.61 3.61,3.08 6.96,4.28 3.21,1.2 5.36,2.28 6.29,3.08 1.07,0.8 1.47,2.01 1.47,3.21 0,1.47 -0.54,2.54 -1.61,3.35 -1.07,0.81 -2.81,1.2 -5.09,1.2 -1.61,0 -3.35,-0.27 -5.09,-0.67 -1.87,-0.4 -3.61,-0.94 -5.22,-1.74 v 5.22 c 2.54,1.2 5.89,1.74 10.04,1.74 4.15,0 7.23,-0.8 9.64,-2.54 2.28,-1.74 3.48,-4.02 3.48,-7.1 -0.27,-1.07 -0.54,-2.41 -1.2,-3.61 M 960.6,150.75 c 1.74,-2.14 4.42,-3.21 8.03,-3.21 3.61,0 6.16,1.07 7.9,3.21 1.74,2.14 2.68,5.36 2.68,9.51 0,4.15 -0.94,7.36 -2.68,9.51 -1.74,2.15 -4.42,3.21 -7.9,3.21 -3.48,0 -6.16,-1.07 -7.9,-3.21 -1.74,-2.14 -2.68,-5.36 -2.68,-9.51 -0.13,-4.15 0.8,-7.36 2.54,-9.51 m 20.35,-3.35 c -2.95,-3.08 -7.1,-4.55 -12.45,-4.55 -5.35,0 -9.64,1.47 -12.59,4.55 -2.95,2.95 -4.42,7.36 -4.42,12.85 0,5.49 1.47,9.91 4.42,12.99 2.95,3.08 7.1,4.55 12.45,4.55 5.35,0 9.51,-1.47 12.45,-4.55 2.95,-3.08 4.42,-7.36 4.42,-12.85 0.13,-5.62 -1.34,-10.04 -4.28,-12.99 m -40.43,0.8 c 1.34,0.4 2.68,0.94 3.88,1.47 l 2.14,-4.69 c -3.08,-1.47 -6.56,-2.14 -10.18,-2.14 -3.62,0 -6.56,0.67 -9.1,2.14 -2.54,1.34 -4.55,3.48 -5.89,6.02 -1.34,2.54 -2.01,5.76 -2.01,9.24 0,5.62 1.47,9.91 4.28,12.85 2.81,2.95 6.83,4.55 12.18,4.55 3.61,0 6.83,-0.54 9.64,-1.47 v -4.69 c -1.61,0.4 -3.08,0.8 -4.42,1.07 -1.47,0.27 -2.95,0.4 -4.42,0.4 -3.48,0 -6.29,-1.07 -8.03,-3.21 -1.87,-2.14 -2.81,-5.36 -2.81,-9.51 0,-4.15 0.94,-7.1 2.95,-9.37 2.01,-2.28 4.55,-3.35 8.03,-3.35 1.07,0 2.41,0.27 3.75,0.67 m -29.59,-4.82 h -5.89 v 33.87 h 5.89 z m -32.13,33.87 10.84,-28.25 h 0.27 c 0,0.54 -0.13,2.14 -0.27,4.95 -0.13,2.68 -0.13,4.95 -0.13,6.56 v 16.74 h 5.62 v -33.87 h -8.3 l -10.31,26.91 h -0.13 l -10.04,-26.91 h -8.3 v 33.87 h 5.36 v -16.47 c 0,-3.75 -0.13,-7.63 -0.4,-11.78 h 0.27 l 10.44,28.38 5.09,-0.13 v 0 z m -41.77,-13.52 8.57,13.52 h 6.69 l -10.18,-15 c 4.69,-1.87 6.96,-4.82 6.96,-8.97 0,-3.35 -1.07,-5.76 -3.35,-7.36 -2.28,-1.61 -5.62,-2.41 -10.31,-2.41 h -10.18 v 33.87 h 5.89 v -13.52 l 5.89,-0.13 v 0 z m -5.89,-15.66 H 835 c 2.68,0 4.69,0.4 6.02,1.2 1.33,0.8 2.01,2.14 2.01,4.15 0,1.87 -0.67,3.35 -1.87,4.28 -1.2,0.93 -3.21,1.47 -6.02,1.47 h -4.15 l 0.13,-11.11 v 0 z m -24.5,-7.5 c 1.2,-0.8 2.54,-2.01 4.28,-3.48 1.74,-1.47 2.95,-2.68 3.88,-3.61 v -0.54 h -6.69 c -0.54,0.94 -1.34,2.01 -2.41,3.35 -1.07,1.34 -2.01,2.54 -2.95,3.61 v 0.54 l 3.88,0.13 v 0 z m 10.44,32 h -14.59 v -10.71 h 13.52 v -4.69 h -13.52 v -9.24 h 14.46 v -4.69 h -20.35 v 33.87 h 20.35 v -4.55 h 0.13 z m -36.95,-24.5 h 10.58 v -4.69 h -27.04 v 4.69 h 10.58 v 29.19 h 5.89 v -29.19 0 z m -34.41,15.93 c -0.54,-1.07 -1.47,-2.14 -2.68,-3.08 -1.2,-0.94 -3.21,-1.87 -5.76,-2.95 -2.41,-0.94 -4.02,-1.61 -4.95,-2.14 -0.93,-0.53 -1.61,-1.2 -2.01,-1.74 -0.4,-0.67 -0.67,-1.34 -0.67,-2.28 0,-1.34 0.54,-2.28 1.47,-3.08 0.93,-0.8 2.41,-1.2 4.28,-1.2 2.54,0 5.36,0.67 8.57,1.87 l 1.87,-4.55 c -3.35,-1.47 -6.83,-2.14 -10.31,-2.14 -3.48,0 -6.43,0.8 -8.57,2.41 -2.14,1.61 -3.21,3.88 -3.21,6.69 0,2.28 0.67,4.15 2.01,5.76 1.34,1.61 3.61,3.08 6.96,4.28 3.21,1.2 5.36,2.28 6.29,3.08 1.07,0.8 1.47,2.01 1.47,3.21 0,1.47 -0.54,2.54 -1.61,3.35 -1.07,0.81 -2.81,1.2 -5.09,1.2 -1.61,0 -3.35,-0.27 -5.09,-0.67 -1.87,-0.4 -3.61,-0.94 -5.22,-1.74 v 5.22 c 2.54,1.2 5.89,1.74 10.04,1.74 4.15,0 7.23,-0.8 9.64,-2.54 2.28,-1.74 3.48,-4.02 3.48,-7.1 -0.13,-1.07 -0.4,-2.41 -0.94,-3.61 m -46.99,-0.94 3.21,-8.84 c 0.8,-2.28 1.47,-4.28 2.01,-6.29 0.13,0.67 0.4,1.61 0.94,2.95 0.4,1.34 0.8,2.28 1.07,2.95 l 3.35,9.24 h -10.58 z m 21.82,14.19 -13.52,-34.01 h -6.29 l -13.39,34.01 h 6.16 l 3.48,-9.37 h 13.79 l 3.61,9.37 z m -54.89,0 10.84,-28.25 h 0.27 c 0,0.54 -0.13,2.14 -0.27,4.95 -0.13,2.68 -0.13,4.95 -0.13,6.56 v 16.74 h 5.62 v -33.87 h -8.3 l -10.31,26.91 h -0.13 l -10.04,-26.91 h -8.3 v 33.87 h 5.36 v -16.47 c 0,-3.75 -0.13,-7.63 -0.4,-11.78 h 0.27 l 10.44,28.38 5.09,-0.13 v 0 z m -29.05,-4.69 H 622.1 v -10.71 h 13.52 v -4.69 H 622.1 v -9.24 h 14.46 v -4.69 h -20.35 v 33.87 h 20.35 v -4.55 z m -36.95,-24.5 h 10.58 v -4.69 h -27.04 v 4.69 h 10.58 v 29.19 h 5.89 v -29.19 0 z m -20.75,15.93 c -0.54,-1.07 -1.47,-2.14 -2.68,-3.08 -1.2,-0.94 -3.21,-1.87 -5.76,-2.95 -2.41,-0.94 -4.02,-1.61 -4.82,-2.14 -0.94,-0.54 -1.61,-1.2 -2.01,-1.74 -0.4,-0.54 -0.67,-1.34 -0.67,-2.28 0,-1.34 0.54,-2.28 1.47,-3.08 0.93,-0.8 2.41,-1.2 4.28,-1.2 2.54,0 5.36,0.67 8.57,1.87 l 1.87,-4.55 c -3.35,-1.47 -6.83,-2.14 -10.31,-2.14 -3.48,0 -6.43,0.8 -8.57,2.41 -2.14,1.61 -3.21,3.88 -3.21,6.69 0,2.28 0.67,4.15 2.01,5.76 1.34,1.61 3.61,3.08 6.96,4.28 3.21,1.2 5.36,2.28 6.29,3.08 1.07,0.8 1.47,2.01 1.47,3.21 0,1.47 -0.54,2.54 -1.61,3.35 -1.07,0.8 -2.81,1.2 -5.09,1.2 -1.61,0 -3.35,-0.27 -5.22,-0.67 -1.87,-0.4 -3.61,-0.94 -5.22,-1.74 v 5.22 c 2.54,1.2 5.89,1.74 10.04,1.74 4.15,0 7.23,-0.8 9.64,-2.54 2.28,-1.74 3.48,-4.02 3.48,-7.1 -0.13,-1.07 -0.4,-2.41 -0.94,-3.61 m -29.86,-20.62 h -5.89 v 33.87 h 5.89 z m -14.33,20.62 c -0.54,-1.07 -1.47,-2.14 -2.68,-3.08 -1.2,-0.94 -3.21,-1.87 -5.76,-2.95 -2.41,-0.94 -4.02,-1.61 -4.82,-2.14 -0.94,-0.54 -1.47,-1.2 -2.01,-1.74 -0.4,-0.67 -0.54,-1.34 -0.54,-2.28 0,-1.34 0.54,-2.28 1.47,-3.08 0.94,-0.8 2.41,-1.2 4.28,-1.2 2.54,0 5.36,0.67 8.57,1.87 l 1.87,-4.55 c -3.35,-1.47 -6.83,-2.14 -10.31,-2.14 -3.48,0 -6.43,0.8 -8.57,2.41 -2.14,1.61 -3.21,3.88 -3.21,6.69 0,2.28 0.67,4.15 2.01,5.76 1.34,1.61 3.61,3.08 6.96,4.28 3.21,1.2 5.36,2.28 6.29,3.08 1.07,0.8 1.47,2.01 1.47,3.21 0,1.47 -0.54,2.54 -1.61,3.35 -1.07,0.8 -2.81,1.2 -5.22,1.2 -1.61,0 -3.35,-0.27 -5.22,-0.67 -1.87,-0.4 -3.61,-0.94 -5.22,-1.74 v 5.22 c 2.54,1.2 5.89,1.74 10.04,1.74 4.15,0 7.23,-0.8 9.64,-2.54 2.28,-1.74 3.48,-4.02 3.48,-7.1 0,-1.07 -0.27,-2.41 -0.94,-3.61"
             id="path5-8"
             style="fill:#ffffff" />
        </g>
      </g>
    </g>
  </g>
</svg>
