<?xml version="1.0" encoding="UTF-8" standalone="no"?>
<svg
   id="Слой_1"
   viewBox="0 0 4000 4000"
   version="1.1"
   sodipodi:docname="icone-card-maiorvariedadedomercado-caixa.svg"
   inkscape:version="1.3 (0e150ed6c4, 2023-07-21)"
   xmlns:inkscape="http://www.inkscape.org/namespaces/inkscape"
   xmlns:sodipodi="http://sodipodi.sourceforge.net/DTD/sodipodi-0.dtd"
   xmlns="http://www.w3.org/2000/svg"
   xmlns:svg="http://www.w3.org/2000/svg">
  <defs
     id="defs9" />
  <sodipodi:namedview
     id="namedview9"
     pagecolor="#505050"
     bordercolor="#ffffff"
     borderopacity="1"
     inkscape:showpageshadow="0"
     inkscape:pageopacity="0"
     inkscape:pagecheckerboard="1"
     inkscape:deskcolor="#505050"
     inkscape:zoom="0.20325"
     inkscape:cx="1997.54"
     inkscape:cy="2000"
     inkscape:window-width="1920"
     inkscape:window-height="1009"
     inkscape:window-x="-8"
     inkscape:window-y="-8"
     inkscape:window-maximized="1"
     inkscape:current-layer="Слой_1" />
  <g
     id="g9"
     style="fill:#ffffff">
    <path
       d="m3257.71 2109.371h-929.65c-60.318 0-109.371 49.053-109.371 109.371 0 55.916-21.765 108.496-61.33 148.033l-157.412 157.412-157.412-157.412c-39.537-39.537-61.33-92.117-61.33-148.033 0-60.318-49.053-109.371-109.371-109.371h-929.65c-60.318 0-109.371 49.053-109.371 109.371 0 85.118 33.139 165.177 93.348 225.385l180.079 180.079v1016.355c0 60.318 49.053 109.371 109.371 109.371h1968.672c60.318 0 109.371-49.053 109.371-109.371v-1016.355l180.079-180.079c60.208-60.181 93.348-140.24 93.348-225.358 0-60.346-49.08-109.398-109.371-109.398zm-2515.526 109.37h929.651c0 85.118 33.139 165.177 93.348 225.385l102.726 102.727h-884.343l-180.079-180.079c-39.538-39.537-61.303-92.117-61.303-148.033zm273.427 437.483h929.651v984.336h-929.651zm1039.022 984.337v-984.336h929.651l.055 984.336zm1141.748-1273.786-180.079 180.079h-884.344l102.727-102.754c60.209-60.181 93.348-140.24 93.348-225.358h929.651c.026 55.915-21.766 108.495-61.303 148.033z"
       id="path1"
       style="fill:#ffffff" />
    <path
       d="m2820.228 3203.078h-218.741c-30.186 0-54.685 24.499-54.685 54.685 0 30.187 24.499 54.686 54.685 54.686h218.741c30.186 0 54.685-24.499 54.685-54.686 0-30.186-24.499-54.685-54.685-54.685z"
       id="path2"
       style="fill:#ffffff" />
    <path
       d="m2820.228 3421.819h-328.112c-30.186 0-54.686 24.499-54.686 54.685 0 30.187 24.499 54.685 54.686 54.685h328.112c30.186 0 54.685-24.499 54.685-54.685s-24.499-54.685-54.685-54.685z"
       id="path3"
       style="fill:#ffffff" />
    <path
       d="m2437.43 714.894c0-241.217-196.266-437.483-437.483-437.483s-437.483 196.266-437.483 437.483 196.266 437.483 437.483 437.483 437.483-196.266 437.483-437.483zm-437.482 328.112c-180.926 0-328.112-147.186-328.112-328.112s147.186-328.112 328.112-328.112 328.112 147.186 328.112 328.112-147.213 328.112-328.112 328.112z"
       id="path4"
       style="fill:#ffffff" />
    <path
       d="m903.998 1165.255c18.402 9.679 38.28 14.437 58.103 14.437 25.73 0 51.268-8.066 73.114-23.925 38.635-28.081 57.638-74.755 49.545-121.839l-30.897-180.188 145.955-142.264c31.335-30.569 42.436-75.411 28.901-117.081-13.535-41.643-48.861-71.446-92.2-77.735l-201.68-29.284-82.3-166.736c-21.191-42.873-64.501-70.571-110.355-70.571s-89.192 27.698-110.328 70.571l-82.301 166.736-201.68 29.284c-43.338 6.289-78.665 36.092-92.2 77.735s-2.461 86.512 28.901 117.081l145.957 142.264-30.897 180.188c-8.066 47.084 10.91 93.758 49.545 121.839 38.663 28.081 88.918 31.718 131.19 9.488l161.814-85.063zm-374.54-96.793c-6.918 3.637-12.523 1.367-16.023-1.148-3.472-2.543-7.383-7.164-6.043-14.874l35.764-208.515c3.035-17.745-2.844-35.846-15.722-48.397l-166.543-162.361c-.793-.766-2.16-2.105-1.203-4.976.93-2.844 2.789-3.117 3.91-3.281l230.143-33.44c17.8-2.598 33.194-13.781 41.178-29.913l95.016-192.52c6.508-13.179 17.992-13.179 24.499 0l95.016 192.492c7.984 16.132 23.351 27.343 41.178 29.913l230.143 33.44c1.121.164 2.98.437 3.91 3.281.93 2.871-.41 4.183-1.203 4.976l-166.544 162.362c-12.906 12.55-18.784 30.651-15.722 48.397l35.764 208.515c1.312 7.711-2.57 12.331-6.043 14.874-3.5 2.516-9.105 4.785-16.023 1.148l-187.27-98.461c-7.957-4.183-16.706-6.289-25.456-6.289s-17.499 2.105-25.456 6.289z"
       id="path5"
       style="fill:#ffffff" />
    <path
       d="m3352.59 333.491c-32.264-52.225-88.18-83.422-149.592-83.422s-117.327 31.198-149.592 83.422l-373.474 604.711c-30.596 49.545-31.936 109.453-3.582 160.31s80.06 81.208 138.299 81.208h776.696c58.24 0 109.945-30.35 138.299-81.208s27.015-110.765-3.582-160.31zm281.547 711.758c-4.211 7.519-16.816 25.101-42.764 25.101h-776.696c-25.948 0-38.553-17.581-42.764-25.101-4.211-7.547-12.55-27.479 1.094-49.572l373.501-604.683c12.386-20.042 32.975-31.526 56.517-31.526s44.159 11.484 56.517 31.526l373.501 604.683c13.617 22.065 5.305 42.025 1.094 49.572z"
       id="path6"
       style="fill:#ffffff" />
    <path
       d="m1999.948 1371.119c-30.186 0-54.685 24.499-54.685 54.685v414.816l-70.708-70.681c-21.355-21.355-55.97-21.355-77.325 0s-21.355 55.97 0 77.325l164.056 164.056c10.691 10.691 24.663 16.023 38.663 16.023s27.972-5.332 38.663-16.023l164.056-164.056c21.355-21.355 21.355-55.97 0-77.325-21.354-21.355-55.97-21.355-77.325 0l-70.708 70.681v-414.816c-.002-30.186-24.501-54.685-54.687-54.685z"
       id="path7"
       style="fill:#ffffff" />
    <path
       d="m1124.982 1835.944c0 30.186 24.499 54.685 54.685 54.685h218.741c30.186 0 54.685-24.499 54.685-54.685v-218.741c0-30.186-24.499-54.685-54.685-54.685s-54.685 24.499-54.685 54.685v86.704l-316.792-316.765c-21.355-21.355-55.971-21.355-77.325 0-21.355 21.355-21.355 55.97 0 77.325l316.765 316.792h-86.704c-30.214 0-54.685 24.499-54.685 54.685z"
       id="path8"
       style="fill:#ffffff" />
    <path
       d="m2601.486 1562.517c-30.186 0-54.685 24.499-54.685 54.685v218.741c0 30.186 24.499 54.685 54.685 54.685h218.741c30.186 0 54.685-24.499 54.685-54.685s-24.499-54.685-54.685-54.685h-86.704l316.765-316.792c21.355-21.355 21.355-55.97 0-77.325s-55.97-21.355-77.325 0l-316.792 316.765v-86.704c.001-30.186-24.498-54.685-54.685-54.685z"
       id="path9"
       style="fill:#ffffff" />
  </g>
</svg>
