<?xml version="1.0" encoding="UTF-8" standalone="no"?>
<svg
   id="Layer_1"
   height="512"
   viewBox="0 0 512 512"
   width="512"
   data-name="Layer 1"
   version="1.1"
   sodipodi:docname="icone-telefone.svg"
   inkscape:version="1.3 (0e150ed6c4, 2023-07-21)"
   xml:space="preserve"
   xmlns:inkscape="http://www.inkscape.org/namespaces/inkscape"
   xmlns:sodipodi="http://sodipodi.sourceforge.net/DTD/sodipodi-0.dtd"
   xmlns="http://www.w3.org/2000/svg"
   xmlns:svg="http://www.w3.org/2000/svg"><defs
     id="defs1"><clipPath
       clipPathUnits="userSpaceOnUse"
       id="clipPath2"><path
         style="fill:#134596;stroke-width:3.77953"
         d="m 1042.1137,557.65283 395.585,-12.19866 -40.0813,-235.25978 -216.0905,-13.94133 -88.8759,8.71333 -99.3319,-111.53057 48.1858,-83.46024 L 928.84049,-106.30257 700.55136,26.139976 745.86066,372.93033 1042.1137,548.9395 Z"
         id="path3" /></clipPath><clipPath
       clipPathUnits="userSpaceOnUse"
       id="clipPath2-9"><path
         style="fill:#134596;stroke-width:3.77953"
         d="m 1042.1137,557.65283 395.585,-12.19866 -40.0813,-235.25978 -216.0905,-13.94133 -88.8759,8.71333 -99.3319,-111.53057 48.1858,-83.46024 L 928.84049,-106.30257 700.55136,26.139976 745.86066,372.93033 1042.1137,548.9395 Z"
         id="path3-2" /></clipPath></defs><sodipodi:namedview
     id="namedview1"
     pagecolor="#505050"
     bordercolor="#ffffff"
     borderopacity="1"
     inkscape:showpageshadow="0"
     inkscape:pageopacity="0"
     inkscape:pagecheckerboard="1"
     inkscape:deskcolor="#505050"
     inkscape:zoom="0.81152344"
     inkscape:cx="878.59446"
     inkscape:cy="422.04573"
     inkscape:window-width="1920"
     inkscape:window-height="1009"
     inkscape:window-x="-8"
     inkscape:window-y="-8"
     inkscape:window-maximized="1"
     inkscape:current-layer="Layer_1" /><path
     d="m252.282 259.675.013.017 56.853-22.107 7.135 4.207a129.162 129.162 0 0 0 65.849 17.908c71.588 0 129.857-58.262 129.857-129.852s-58.269-129.848-129.857-129.848-129.857 58.263-129.857 129.852a129.251 129.251 0 0 0 17.913 65.848l4.206 7.136-22.112 56.836zm256.9 160.006c-6.156 15.7-22.512 59.918-33.7 71.106-15.9 15.9-37.753 21.213-59.685 21.213-26.2 0-53.494-7.434-77.76-16.84-69.978-27.123-137.265-78.529-189.982-131.239-52.7-52.69-104.109-120.009-131.2-189.966-14.717-37.991-28.716-95.9-.855-131.539a64.612 64.612 0 0 1 5.212-5.891c11.538-11.547 55.574-27.725 71.296-33.781l1.006-.388a32.87 32.87 0 0 1 40.624 14.157l46.643 80.747a33.046 33.046 0 0 1 -12.108 45.014l-5.485 3.186c-14.024 8.144-22.883 20.364-26.157 36.256a52.818 52.818 0 0 0 9.807 43.686 700.893 700.893 0 0 0 65.032 74.7 702.811 702.811 0 0 0 74.73 65.03 52.821 52.821 0 0 0 43.661 9.806c15.869-3.25 28.064-12.117 36.221-26.087l3.22-5.515a32.955 32.955 0 0 1 45.008-12.131l80.758 46.628a32.61 32.61 0 0 1 14.193 40.533l-.118.3z"
     fill-rule="evenodd"
     id="path1" /><path
     d="m 1064.294,259.675 0.013,0.017 56.853,-22.107 7.135,4.207 a 129.162,129.162 0 0 0 65.849,17.908 c 71.588,0 129.857,-58.262 129.857,-129.852 C 1324.001,58.258001 1265.732,1.5e-6 1194.144,1.5e-6 1122.556,1.5e-6 1064.287,58.263001 1064.287,129.852 A 129.251,129.251 0 0 0 1082.2,195.7 l 4.206,7.136 -22.112,56.836 z m 256.9,160.006 c -6.156,15.7 -22.512,59.918 -33.7,71.106 -15.9,15.9 -37.753,21.213 -59.685,21.213 -26.2,0 -53.494,-7.434 -77.76,-16.84 C 1080.071,468.037 1012.784,416.631 960.067,363.921 907.367,311.231 855.958,243.912 828.867,173.955 814.15,135.964 800.151,78.055002 828.012,42.416002 a 64.612,64.612 0 0 1 5.212,-5.891 c 11.538,-11.547 55.574,-27.7250009 71.296,-33.7810009 l 1.006,-0.388 A 32.87,32.87 0 0 1 946.15,16.513001 l 46.643,80.747001 A 33.046,33.046 0 0 1 980.685,142.274 l -5.485,3.186 c -14.024,8.144 -22.883,20.364 -26.157,36.256 a 52.818,52.818 0 0 0 9.807,43.686 700.893,700.893 0 0 0 65.032,74.7 702.811,702.811 0 0 0 74.73,65.03 52.821,52.821 0 0 0 43.661,9.806 c 15.869,-3.25 28.064,-12.117 36.221,-26.087 l 3.22,-5.515 a 32.955,32.955 0 0 1 45.008,-12.131 l 80.758,46.628 a 32.61,32.61 0 0 1 14.193,40.533 l -0.118,0.3 z"
     fill-rule="evenodd"
     id="path1-4"
     clip-path="url(#clipPath2)"
     style="fill:#134596;fill-opacity:1"
     inkscape:export-filename="icone-telefone.webp"
     inkscape:export-xdpi="96"
     inkscape:export-ydpi="96" /><path
     d="m 1064.294,259.675 0.013,0.017 56.853,-22.107 7.135,4.207 a 129.162,129.162 0 0 0 65.849,17.908 c 71.588,0 129.857,-58.262 129.857,-129.852 C 1324.001,58.258001 1265.732,1.5e-6 1194.144,1.5e-6 1122.556,1.5e-6 1064.287,58.263001 1064.287,129.852 A 129.251,129.251 0 0 0 1082.2,195.7 l 4.206,7.136 -22.112,56.836 z m 256.9,160.006 c -6.156,15.7 -22.512,59.918 -33.7,71.106 -15.9,15.9 -37.753,21.213 -59.685,21.213 -26.2,0 -53.494,-7.434 -77.76,-16.84 C 1080.071,468.037 1012.784,416.631 960.067,363.921 907.367,311.231 855.958,243.912 828.867,173.955 814.15,135.964 800.151,78.055002 828.012,42.416002 a 64.612,64.612 0 0 1 5.212,-5.891 c 11.538,-11.547 55.574,-27.7250009 71.296,-33.7810009 l 1.006,-0.388 A 32.87,32.87 0 0 1 946.15,16.513001 l 46.643,80.747001 A 33.046,33.046 0 0 1 980.685,142.274 l -5.485,3.186 c -14.024,8.144 -22.883,20.364 -26.157,36.256 a 52.818,52.818 0 0 0 9.807,43.686 700.893,700.893 0 0 0 65.032,74.7 702.811,702.811 0 0 0 74.73,65.03 52.821,52.821 0 0 0 43.661,9.806 c 15.869,-3.25 28.064,-12.117 36.221,-26.087 l 3.22,-5.515 a 32.955,32.955 0 0 1 45.008,-12.131 l 80.758,46.628 a 32.61,32.61 0 0 1 14.193,40.533 l -0.118,0.3 z"
     fill-rule="evenodd"
     id="path1-4-0"
     clip-path="url(#clipPath2-9)"
     style="fill:#134596;fill-opacity:1"
     inkscape:export-filename="icone-telefone-pequeno.webp"
     inkscape:export-xdpi="96"
     inkscape:export-ydpi="96"
     transform="matrix(0.03436107,0,0,0.03436107,874.69936,374.84339)" /></svg>
