<?xml version="1.0" encoding="UTF-8" standalone="no"?>
<svg
   id="Icons"
   viewBox="0 0 60 60"
   width="512"
   height="512"
   version="1.1"
   sodipodi:docname="icone-card-especialistasemarrefecimentoautomotivo-engrenagem.svg"
   inkscape:version="1.3 (0e150ed6c4, 2023-07-21)"
   xmlns:inkscape="http://www.inkscape.org/namespaces/inkscape"
   xmlns:sodipodi="http://sodipodi.sourceforge.net/DTD/sodipodi-0.dtd"
   xmlns="http://www.w3.org/2000/svg"
   xmlns:svg="http://www.w3.org/2000/svg">
  <defs
     id="defs3" />
  <sodipodi:namedview
     id="namedview3"
     pagecolor="#505050"
     bordercolor="#ffffff"
     borderopacity="1"
     inkscape:showpageshadow="0"
     inkscape:pageopacity="0"
     inkscape:pagecheckerboard="1"
     inkscape:deskcolor="#505050"
     inkscape:zoom="1.5878906"
     inkscape:cx="255.68512"
     inkscape:cy="242.77491"
     inkscape:window-width="1920"
     inkscape:window-height="1009"
     inkscape:window-x="-8"
     inkscape:window-y="-8"
     inkscape:window-maximized="1"
     inkscape:current-layer="Icons" />
  <g
     id="g3"
     style="fill:#ffffff">
    <path
       d="M30,10A20,20,0,1,0,50,30,20.023,20.023,0,0,0,30,10Zm0,38A18,18,0,1,1,48,30,18.021,18.021,0,0,1,30,48Z"
       id="path1"
       style="fill:#ffffff" />
    <path
       d="M59.849,27.168a2.793,2.793,0,0,0-2.336-2.414l-3.183-.522a24.711,24.711,0,0,0-3.052-7.351l1.88-2.626A2.8,2.8,0,0,0,53.1,10.88a29.5,29.5,0,0,0-4.005-4,2.782,2.782,0,0,0-3.351-.039L43.119,8.721A24.783,24.783,0,0,0,35.768,5.67l-.521-3.181A2.8,2.8,0,0,0,32.82.15a26.294,26.294,0,0,0-5.651,0,2.794,2.794,0,0,0-2.416,2.337L24.232,5.67a24.783,24.783,0,0,0-7.351,3.051l-2.626-1.88A2.792,2.792,0,0,0,10.88,6.9a29.6,29.6,0,0,0-3.993,4,2.794,2.794,0,0,0-.048,3.36l1.883,2.63A24.711,24.711,0,0,0,5.67,24.232l-3.181.521a2.8,2.8,0,0,0-2.34,2.428,26.7,26.7,0,0,0,0,5.653,2.8,2.8,0,0,0,2.336,2.412l3.183.522a24.711,24.711,0,0,0,3.052,7.351L6.85,45.734A2.8,2.8,0,0,0,6.9,49.12a26.868,26.868,0,0,0,4.005,4,2.756,2.756,0,0,0,3.351.039l2.629-1.882a24.783,24.783,0,0,0,7.351,3.051l.521,3.181A2.8,2.8,0,0,0,27.18,59.85a26.623,26.623,0,0,0,5.652,0,2.8,2.8,0,0,0,2.415-2.337l.521-3.182a24.783,24.783,0,0,0,7.351-3.051l2.626,1.88a2.765,2.765,0,0,0,3.387-.064,26.782,26.782,0,0,0,3.99-4,2.79,2.79,0,0,0,.039-3.349l-1.883-2.63a24.711,24.711,0,0,0,3.052-7.351l3.182-.522a2.8,2.8,0,0,0,2.339-2.427A27.493,27.493,0,0,0,59.849,27.168ZM57.862,32.6a.812.812,0,0,1-.674.669l-3.85.632a1,1,0,0,0-.817.784A22.75,22.75,0,0,1,49.236,42.6a1,1,0,0,0,.023,1.13l2.286,3.194a.783.783,0,0,1,.011.928,25.229,25.229,0,0,1-3.68,3.684.792.792,0,0,1-.964,0L43.733,49.26a1,1,0,0,0-1.13-.023,22.783,22.783,0,0,1-7.915,3.284,1,1,0,0,0-.785.817l-.631,3.852a.784.784,0,0,1-.655.67,24.374,24.374,0,0,1-5.222,0,.786.786,0,0,1-.667-.672L26.1,53.338a1,1,0,0,0-.785-.817A22.783,22.783,0,0,1,17.4,49.237a1,1,0,0,0-.548-.164c-.454,0-.387.035-3.764,2.464a.783.783,0,0,1-.928.028,24.974,24.974,0,0,1-3.695-3.689.792.792,0,0,1,0-.963l2.275-3.18a1,1,0,0,0,.023-1.13,22.75,22.75,0,0,1-3.285-7.915,1,1,0,0,0-.817-.784l-3.851-.632a.809.809,0,0,1-.671-.654,24.645,24.645,0,0,1,0-5.223.787.787,0,0,1,.674-.667l3.85-.632a1,1,0,0,0,.817-.784A22.75,22.75,0,0,1,10.764,17.4a1,1,0,0,0-.023-1.13L8.463,13.084a.8.8,0,0,1-.019-.939,27.837,27.837,0,0,1,3.68-3.684.8.8,0,0,1,.964,0l3.179,2.275a.994.994,0,0,0,1.13.023,22.783,22.783,0,0,1,7.915-3.284,1,1,0,0,0,.785-.817l.631-3.852a.783.783,0,0,1,.655-.67,24.384,24.384,0,0,1,5.223,0,.785.785,0,0,1,.666.672L33.9,6.662a1,1,0,0,0,.785.817A22.783,22.783,0,0,1,42.6,10.763a1,1,0,0,0,1.13-.023l3.182-2.277a.793.793,0,0,1,.939-.018,27.5,27.5,0,0,1,3.693,3.689.8.8,0,0,1-.013.953l-2.275,3.18a1,1,0,0,0-.023,1.13,22.75,22.75,0,0,1,3.285,7.915,1,1,0,0,0,.817.784l3.852.632a.788.788,0,0,1,.671.662A24.683,24.683,0,0,1,57.862,32.6Z"
       id="path2"
       style="fill:#ffffff" />
    <path
       d="M35.238,22.413,32.3,16.438a2.565,2.565,0,0,0-4.608,0l-2.934,5.975-6.563.958a2.578,2.578,0,0,0-1.424,4.391l4.751,4.654-1.121,6.57A2.57,2.57,0,0,0,24.132,41.7L30,38.6l5.868,3.1A2.57,2.57,0,0,0,39.6,38.986l-1.121-6.57,4.751-4.654A2.578,2.578,0,0,0,41.8,23.371Zm6.586,3.92L36.7,31.353a1,1,0,0,0-.285.883l1.21,7.087a.569.569,0,0,1-.822.608l-6.335-3.346a1,1,0,0,0-.934,0L23.2,39.931a.569.569,0,0,1-.822-.608l1.21-7.087a1,1,0,0,0-.285-.883l-5.125-5.02a.575.575,0,0,1,.312-.982l7.083-1.035a1,1,0,0,0,.753-.548l3.167-6.449a.565.565,0,0,1,1.018,0l3.167,6.449a1,1,0,0,0,.753.548l7.083,1.035A.575.575,0,0,1,41.824,26.333Z"
       id="path3"
       style="fill:#ffffff" />
  </g>
</svg>
