<?xml version="1.0" encoding="UTF-8" standalone="no"?>
<svg
   version="1.1"
   viewBox="0 0 4096 1945"
   width="1280"
   height="1280"
   id="svg8"
   sodipodi:docname="logo-vipsoft-branco.svg"
   inkscape:version="1.3 (0e150ed6c4, 2023-07-21)"
   xmlns:inkscape="http://www.inkscape.org/namespaces/inkscape"
   xmlns:sodipodi="http://sodipodi.sourceforge.net/DTD/sodipodi-0.dtd"
   xmlns="http://www.w3.org/2000/svg"
   xmlns:svg="http://www.w3.org/2000/svg">
  <defs
     id="defs8" />
  <sodipodi:namedview
     id="namedview8"
     pagecolor="#505050"
     bordercolor="#ffffff"
     borderopacity="1"
     inkscape:showpageshadow="0"
     inkscape:pageopacity="0"
     inkscape:pagecheckerboard="1"
     inkscape:deskcolor="#505050"
     inkscape:zoom="0.63515625"
     inkscape:cx="596.70357"
     inkscape:cy="671.48831"
     inkscape:window-width="1920"
     inkscape:window-height="1009"
     inkscape:window-x="-8"
     inkscape:window-y="-8"
     inkscape:window-maximized="1"
     inkscape:current-layer="svg8" />
  <g
     id="g8">
    <path
       transform="translate(2505,5)"
       d="m0 0h323l-2 5-9 13-29 44-7 10-386 579-29 43-29 44-29 43-22 33-8 10-12 14-21 21-11 9-15 12-17 11-17 10-25 12-23 9-21 6-23 5-21 3-11 1h-44l-33-4-30-7-27-9-29-13-23-13-19-13-14-11-10-9-2-1v-2l-4-2-14-14v-2h-2l-9-11-12-15-12-18-12-21-144-288v-3l14-9 15-10 44-29 43-29 44-29 43-29 38-25 3 3 144 288 9 17 9 19 8 16 9 17 2 5 4-4 29-44 17-25 284-426 29-43 29-44 29-43 29-44z"
       fill="#fff"
       id="path1" />
    <path
       transform="translate(2511,1171)"
       d="m0 0h66l30 3 22 3 27 6 21 6 18 6 26 11 23 12 24 16 13 10 10 9 8 7 15 15 9 11 11 14 10 15 9 15 12 23 10 24 7 20 7 24 7 32 5 34 3 45v47l-3 44-6 40-7 30-10 33-12 29-12 24-13 21-12 17-11 13-9 10-21 21-14 11-15 11-18 11-14 8-25 11-25 9-25 7-23 5-37 5-16 1h-66l-26-2-33-5-27-6-26-8-19-7-24-11-18-10-21-14-13-10-15-13-17-17-9-11-11-14-14-21-10-18-9-19-6-13-8-22-7-24-5-21-4-21-4-28-3-42v-58l3-42 6-39 7-30 8-27 11-28 16-32 12-19 11-15 14-17 8-8 5-6 8-7 11-10 16-12 17-11 15-9 28-13 24-9 32-9 31-6 34-4zm13 106-28 3-28 6-23 8-19 9-16 10-13 10-10 9-10 10-13 17-11 18-8 16-10 25-7 25-4 18-4 23-3 33-1 17v43l3 40 3 22 5 26 6 22 5 15 9 21 10 19 13 19 13 15 9 9 14 11 15 10 15 8 15 6 15 5 20 5 27 4 14 1h32l22-2 28-5 18-5 20-8 16-8 16-10 14-12 5-4v-2l4-2 9-10 11-15 8-13 9-17 10-25 7-24 5-23 4-26 3-33 1-19v-33l-2-33-3-28-6-32-7-25-8-22-6-14-12-21-10-14-11-13-13-13-16-12-20-12-21-9-15-5-28-6-28-3z"
       fill="#fff"
       id="path2" />
    <path
       transform="translate(1102,1171)"
       d="m0 0h88l43 2 43 4 38 6 26 6 26 8 18 7 25 12 17 11 13 10 12 11 7 7 11 14 11 18 8 16 8 24 5 21 3 24 1 20v24l-1 21-4 29-7 27-10 25-9 17-8 12-11 14-12 13-13 12-12 9-15 10-18 10-22 10-25 9-25 7-23 5-23 4-35 4-15 1h-86l-11-1v286h-126v-767zm44 107-26 1v268l21 1h43l25-1 32-3 28-5 21-6 19-8 16-9 13-10 11-11 10-15 6-13 4-11 4-21 1-11v-29l-2-17-4-17-6-15-7-12-8-10-9-9-13-9-11-6-18-8-21-6-30-5-43-3z"
       fill="#fff"
       id="path3" />
    <path
       transform="translate(5,1173)"
       d="m0 0h131l10 32 12 35 12 36 14 40 8 24 15 43 13 38 14 41 16 47 14 41 14 43 17 52 12 39 11 37 9 31 10 40 3 15 1 1 5-24 11-44 11-38 11-37 14-45 8-24 14-43 12-35 12-36 18-53 15-43 14-40 10-29 15-44 11-31 14-43 9-26h132l-3 10-16 46-11 31-17 48-11 31-10 29-20 57-11 31-17 48-11 31-10 29-16 45-9 26-17 48-11 31-10 29-20 57-17 48-20 57-12 34-1 1h-134l-7-19-17-48-10-29-18-52-17-48-22-63-8-23-20-56-7-21-15-42-10-29-16-45-10-29-11-31-10-29-20-57-15-43-14-40-15-42-6-18z"
       fill="#fff"
       id="path4" />
    <path
       transform="translate(1824,1171)"
       d="m0 0h51l32 3 29 4 26 5 29 7 31 9 27 9 30 12 7 4v115l-9-2-81-29-35-11-22-6-25-6-22-4-26-3h-34l-22 3-19 5-17 7-14 8-11 9-8 10-8 16-4 12-2 14v19l3 17 6 16 7 11 15 16 10 9 13 9 19 11 29 13 36 15 21 9 31 13 30 14 24 12 20 12 16 11 14 11 13 12 7 7 11 14 10 15 10 21 6 18 4 16 3 24v44l-4 26-7 24-7 16-9 16-10 14-9 10-7 8-10 9-13 10-15 10-14 8-24 11-20 7-23 7-33 7-39 5-19 1h-49l-29-2-37-5-30-6-26-7-27-9-23-10-1-1v-117l23 10 25 10 36 12 35 9 26 5 27 4 11 1h56l21-3 22-5 22-8 15-8 11-8 8-8 7-10 6-12 4-11 3-17v-19l-4-20-7-16-7-11-11-12-12-10-18-11-27-14-25-12-27-12-29-13-35-16-29-14-22-12-18-11-17-12-9-7v-2l-4-2-10-11-6-9-10-13-10-18-9-20-5-16-5-23-2-19v-32l3-24 5-21 6-17 11-23 11-16 11-13 11-11 20-15 16-10 19-10 20-8 18-6 30-7 31-4z"
       fill="#fff"
       id="path5" />
    <path
       transform="translate(3e3 1173)"
       d="m0 0h417v107h-291v238h290v108h-290v314h-126z"
       fill="#fff"
       id="path6" />
    <path
       transform="translate(3511,1173)"
       d="m0 0h580v109h-226v658h-127v-658h-226l-1-1z"
       fill="#fff"
       id="path7" />
    <path
       transform="translate(772,1173)"
       d="m0 0h127v767h-127z"
       fill="#fff"
       id="path8" />
  </g>
</svg>
