<?xml version="1.0" encoding="UTF-8" standalone="no"?>
<svg
   version="1.1"
   viewBox="0 0 4096 1945"
   width="1280"
   height="1280"
   id="svg8"
   sodipodi:docname="logos-arquivogeral.svg"
   inkscape:version="1.3 (0e150ed6c4, 2023-07-21)"
   xml:space="preserve"
   xmlns:inkscape="http://www.inkscape.org/namespaces/inkscape"
   xmlns:sodipodi="http://sodipodi.sourceforge.net/DTD/sodipodi-0.dtd"
   xmlns="http://www.w3.org/2000/svg"
   xmlns:svg="http://www.w3.org/2000/svg"><defs
     id="defs8"><style
       id="style1">.cls-1{fill:#fff;}.cls-2{letter-spacing:-.03em;}.cls-2,.cls-3{fill:#575756;font-family:Lato-Heavy, Lato;font-size:24.97px;font-weight:800;isolation:isolate;}.cls-4{fill:#0a4f9d;}</style><style
       id="style1-9">.cls-1{fill:#fff;}.cls-2{letter-spacing:-.03em;}.cls-2,.cls-3{fill:#575756;font-family:Lato-Heavy, Lato;font-size:24.97px;font-weight:800;isolation:isolate;}.cls-4{fill:#0a4f9d;}</style><style
       id="style1-93">.f{fill:#27509c;}.g{fill:#5d5d5d;}.h{fill:#2c2f7c;}</style></defs><sodipodi:namedview
     id="namedview8"
     pagecolor="#505050"
     bordercolor="#ffffff"
     borderopacity="1"
     inkscape:showpageshadow="0"
     inkscape:pageopacity="0"
     inkscape:pagecheckerboard="1"
     inkscape:deskcolor="#505050"
     inkscape:zoom="0.11228082"
     inkscape:cx="2645.1534"
     inkscape:cy="-1349.2954"
     inkscape:window-width="1920"
     inkscape:window-height="1009"
     inkscape:window-x="1912"
     inkscape:window-y="-8"
     inkscape:window-maximized="1"
     inkscape:current-layer="svg8" /><g
     id="g3"
     inkscape:export-filename="logo-vipsoft-branco1.svg"
     inkscape:export-xdpi="96"
     inkscape:export-ydpi="96"
     style="fill:#ffffff"><g
       id="g2"
       style="fill:#ffffff"><g
         id="g8"
         transform="translate(3277.4219,-8415.3758)"
         inkscape:export-filename="logo-vipsoft-branco1.svg"
         inkscape:export-xdpi="96"
         inkscape:export-ydpi="96"
         style="fill:#ffffff"><path
           transform="translate(2505,5)"
           d="m 0,0 h 323 l -2,5 -9,13 -29,44 -7,10 -386,579 -29,43 -29,44 -29,43 -22,33 -8,10 -12,14 -21,21 -11,9 -15,12 -17,11 -17,10 -25,12 -23,9 -21,6 -23,5 -21,3 -11,1 h -44 l -33,-4 -30,-7 -27,-9 -29,-13 -23,-13 -19,-13 -14,-11 -10,-9 -2,-1 v -2 l -4,-2 -14,-14 v -2 h -2 l -9,-11 -12,-15 -12,-18 -12,-21 -144,-288 v -3 l 14,-9 15,-10 44,-29 43,-29 44,-29 43,-29 38,-25 3,3 144,288 9,17 9,19 8,16 9,17 2,5 4,-4 29,-44 17,-25 284,-426 29,-43 29,-44 29,-43 29,-44 z"
           fill="#ffffff"
           id="path1"
           style="fill:#ffffff" /><path
           transform="translate(2511,1171)"
           d="m 0,0 h 66 l 30,3 22,3 27,6 21,6 18,6 26,11 23,12 24,16 13,10 10,9 8,7 15,15 9,11 11,14 10,15 9,15 12,23 10,24 7,20 7,24 7,32 5,34 3,45 v 47 l -3,44 -6,40 -7,30 -10,33 -12,29 -12,24 -13,21 -12,17 -11,13 -9,10 -21,21 -14,11 -15,11 -18,11 -14,8 -25,11 -25,9 -25,7 -23,5 -37,5 -16,1 H -1 l -26,-2 -33,-5 -27,-6 -26,-8 -19,-7 -24,-11 -18,-10 -21,-14 -13,-10 -15,-13 -17,-17 -9,-11 -11,-14 -14,-21 -10,-18 -9,-19 -6,-13 -8,-22 -7,-24 -5,-21 -4,-21 -4,-28 -3,-42 v -58 l 3,-42 6,-39 7,-30 8,-27 11,-28 16,-32 12,-19 11,-15 14,-17 8,-8 5,-6 8,-7 11,-10 16,-12 17,-11 15,-9 28,-13 24,-9 32,-9 31,-6 34,-4 z m 13,106 -28,3 -28,6 -23,8 -19,9 -16,10 -13,10 -10,9 -10,10 -13,17 -11,18 -8,16 -10,25 -7,25 -4,18 -4,23 -3,33 -1,17 v 43 l 3,40 3,22 5,26 6,22 5,15 9,21 10,19 13,19 13,15 9,9 14,11 15,10 15,8 15,6 15,5 20,5 27,4 14,1 h 32 l 22,-2 28,-5 18,-5 20,-8 16,-8 16,-10 14,-12 5,-4 v -2 l 4,-2 9,-10 11,-15 8,-13 9,-17 10,-25 7,-24 5,-23 4,-26 3,-33 1,-19 v -33 l -2,-33 -3,-28 -6,-32 -7,-25 -8,-22 -6,-14 -12,-21 -10,-14 -11,-13 -13,-13 -16,-12 -20,-12 -21,-9 -15,-5 -28,-6 -28,-3 z"
           fill="#ffffff"
           id="path2"
           style="fill:#ffffff" /><path
           transform="translate(1102,1171)"
           d="m 0,0 h 88 l 43,2 43,4 38,6 26,6 26,8 18,7 25,12 17,11 13,10 12,11 7,7 11,14 11,18 8,16 8,24 5,21 3,24 1,20 v 24 l -1,21 -4,29 -7,27 -10,25 -9,17 -8,12 -11,14 -12,13 -13,12 -12,9 -15,10 -18,10 -22,10 -25,9 -25,7 -23,5 -23,4 -35,4 -15,1 H 29 L 18,483 V 769 H -108 V 2 Z m 44,107 -26,1 v 268 l 21,1 h 43 l 25,-1 32,-3 28,-5 21,-6 19,-8 16,-9 13,-10 11,-11 10,-15 6,-13 4,-11 4,-21 1,-11 v -29 l -2,-17 -4,-17 -6,-15 -7,-12 -8,-10 -9,-9 -13,-9 -11,-6 -18,-8 -21,-6 -30,-5 -43,-3 z"
           fill="#ffffff"
           id="path3"
           style="fill:#ffffff" /><path
           transform="translate(5,1173)"
           d="m 0,0 h 131 l 10,32 12,35 12,36 14,40 8,24 15,43 13,38 14,41 16,47 14,41 14,43 17,52 12,39 11,37 9,31 10,40 3,15 1,1 5,-24 11,-44 11,-38 11,-37 14,-45 8,-24 14,-43 12,-35 12,-36 18,-53 15,-43 14,-40 10,-29 15,-44 11,-31 14,-43 9,-26 h 132 l -3,10 -16,46 -11,31 -17,48 -11,31 -10,29 -20,57 -11,31 -17,48 -11,31 -10,29 -16,45 -9,26 -17,48 -11,31 -10,29 -20,57 -17,48 -20,57 -12,34 -1,1 H 268 l -7,-19 -17,-48 -10,-29 -18,-52 -17,-48 -22,-63 -8,-23 -20,-56 -7,-21 L 127,366 117,337 101,292 91,263 80,232 70,203 50,146 35,103 21,63 6,21 0,3 Z"
           fill="#ffffff"
           id="path4"
           style="fill:#ffffff" /><path
           transform="translate(1824,1171)"
           d="m 0,0 h 51 l 32,3 29,4 26,5 29,7 31,9 27,9 30,12 7,4 v 115 l -9,-2 -81,-29 -35,-11 -22,-6 -25,-6 -22,-4 -26,-3 H 8 l -22,3 -19,5 -17,7 -14,8 -11,9 -8,10 -8,16 -4,12 -2,14 v 19 l 3,17 6,16 7,11 15,16 10,9 13,9 19,11 29,13 36,15 21,9 31,13 30,14 24,12 20,12 16,11 14,11 13,12 7,7 11,14 10,15 10,21 6,18 4,16 3,24 v 44 l -4,26 -7,24 -7,16 -9,16 -10,14 -9,10 -7,8 -10,9 -13,10 -15,10 -14,8 -24,11 -20,7 -23,7 -33,7 -39,5 -19,1 h -49 l -29,-2 -37,-5 -30,-6 -26,-7 -27,-9 -23,-10 -1,-1 V 612 l 23,10 25,10 36,12 35,9 26,5 27,4 11,1 h 56 l 21,-3 22,-5 22,-8 15,-8 11,-8 8,-8 7,-10 6,-12 4,-11 3,-17 v -19 l -4,-20 -7,-16 -7,-11 L 105,495 93,485 75,474 48,460 23,448 -4,436 l -29,-13 -35,-16 -29,-14 -22,-12 -18,-11 -17,-12 -9,-7 v -2 l -4,-2 -10,-11 -6,-9 -10,-13 -10,-18 -9,-20 -5,-16 -5,-23 -2,-19 v -32 l 3,-24 5,-21 6,-17 11,-23 11,-16 11,-13 11,-11 20,-15 16,-10 19,-10 20,-8 18,-6 30,-7 31,-4 z"
           fill="#ffffff"
           id="path5"
           style="fill:#ffffff" /><path
           transform="translate(3000,1173)"
           d="M 0,0 H 417 V 107 H 126 V 345 H 416 V 453 H 126 V 767 H 0 Z"
           fill="#ffffff"
           id="path6"
           style="fill:#ffffff" /><path
           transform="translate(3511,1173)"
           d="M 0,0 H 580 V 109 H 354 V 767 H 227 V 109 H 1 l -1,-1 z"
           fill="#ffffff"
           id="path7"
           style="fill:#ffffff" /><path
           transform="translate(772,1173)"
           d="M 0,0 H 127 V 767 H 0 Z"
           fill="#ffffff"
           id="path8"
           style="fill:#ffffff" /></g></g></g><g
     id="g41"
     transform="matrix(7.013461,0,0,7.013461,2808.8746,-6383.2531)"
     inkscape:export-filename="logo-notustooling-branco1.svg"
     inkscape:export-xdpi="96"
     inkscape:export-ydpi="96"><g
       id="g16"
       style="fill:#ffffff"><path
         class="cls-4"
         d="m 315.36,85.62 c 0,-1.3 -1.2,-1.2 -1.2,-1.2 h -16.3 c -1.1,0 -1,1.3 -1,1.3 v 28.9 c 0,4.3 -1.3,8.3 -5.6,8.5 -4.3,0.2 -11.1,-4.6 -11.1,-4.6 0,0 -37.9,-29.9 -40.1,-31.8 -2.9,-2.6 -5.8,-2.2 -5.8,-2.2 h -14.1 c -1.7,0 -1.5,1.2 -1.5,1.2 v 51.9 c 0,1.5 1.2,1.4 1.2,1.4 h 16.6 c 1.1,0 0.9,-1.5 0.9,-1.5 0,0 -0.1,-19.1 -0.1,-27.5 0,-8.4 5.6,-7.7 5.6,-7.7 0,0 1.7,-0.7 11.1,4.2 9.4,4.9 43.2,32.6 43.2,32.6 h 17.3 c 1.1,0 1,-1.3 1,-1.3 0,0 -0.1,-51 -0.1,-52.2 z"
         id="path1-2"
         style="fill:#ffffff" /><path
         class="cls-4"
         d="m 664.66,127.22 c -1.7,-1.5 -6.7,-3.7 -6.7,-3.7 l -42.2,-17.1 c 0,0 -3.9,-1.5 -3.9,-4.9 0,-3.4 4.9,-2.9 4.9,-2.9 h 28 v -14.3 h -51.5 c 0,0 -9.8,0.3 -9.8,7.1 0,6.8 8.4,9.5 8.4,9.5 l 35.7,14.5 c 0,0 7.4,3.7 7.4,6.4 0,2.7 -2.4,3.5 -6.4,3.5 h -40.9 c 0,0 -2.4,-0.2 -2.4,2 v 10 c 0,0 0.3,1.4 2.2,1.4 h 69.1 c 0,0 6.2,0.5 9.4,-3.2 3.2,-3.6 0.3,-6.8 -1.3,-8.3 z"
         id="path2-5"
         style="fill:#ffffff" /><path
         class="cls-4"
         d="m 579.16,118.82 v -34.5 h -17 v 32.5 c 0,0 2.8,15.6 -26.5,15.6 -29.3,0 -27.8,-15.6 -27.8,-15.6 v -22 c 0,-10.2 -9.2,-10.5 -9.2,-10.5 h -129.2 c -27.5,0 -49.8,12.1 -49.8,27 0,14.9 22.3,27 49.8,27 27.5,0 49.8,-12.1 49.8,-27 0,-4.3 -1.9,-8.4 -5.2,-12 v 0 c -2.7,-2.9 0.7,-3.3 0.7,-3.3 h 29 v 42.8 h 15.6 c 1.8,0 1.7,-1.5 1.7,-1.5 v -36.7 c 0,-4.5 4.8,-4.6 4.8,-4.6 h 21 c 4.4,0 4,3.8 4,3.8 v 19.9 c 0,0 -1.9,18.7 44.9,18.7 46.8,-0.1 43.4,-19.6 43.4,-19.6 z m -209.9,15 c -17.4,0 -31.4,-10 -31.4,-22.2 0,-12.2 14.1,-22.2 31.4,-22.2 17.3,0 31.4,10 31.4,22.2 0,12.2 -14,22.2 -31.4,22.2 z"
         id="path3-1"
         style="fill:#ffffff" /><path
         class="cls-4"
         d="m 149.36,87.52 5.8,-0.1 40.1,-0.7 5.8,-0.1 0.1,5.7 -5.8,2 -40.1,0.7 -5.8,-1.8 z m 40.1,25.5 0.6,33.4 c 0,0.6 -0.4,1 -1,1 l -26.3,0.5 c -0.6,0 -1,-0.4 -1.1,-1 l -0.6,-33.4 -3.7,0.1 c -1,0 -1.9,-0.8 -1.9,-1.9 v -2.7 c 1.9,-0.3 3.4,-2 3.3,-4 0,-2 -1.5,-3.6 -3.5,-3.9 l -0.1,-4.1 c 0,-0.3 0.2,-0.5 0.5,-0.5 l 39.2,-0.7 c 0.3,0 0.5,0.2 0.5,0.5 l 0.1,4.1 c -1.9,0.3 -3.4,2 -3.3,4 0,2 1.5,3.6 3.5,3.9 v 2.7 c 0,1 -0.8,1.9 -1.9,1.9 z m -23.9,43.8 21.1,-0.4 -0.9,-0.4 0.9,-0.2 -0.9,-0.4 0.9,-0.2 -0.9,-0.4 0.9,-0.2 -0.9,-0.4 0.9,-0.2 -0.9,-0.4 0.9,-0.2 -0.9,-0.4 0.9,-0.2 -0.9,-0.4 0.9,-0.2 -0.9,-0.4 0.9,-0.2 -0.9,-0.4 0.9,-0.2 -0.9,-0.4 0.9,-0.2 -0.9,-0.4 0.9,-0.2 -0.9,-0.4 0.9,-0.2 -21.1,0.4 0.9,0.4 -0.9,0.2 0.9,0.4 -0.9,0.2 0.9,0.4 -0.9,0.2 0.9,0.4 -0.9,0.2 0.9,0.4 -0.9,0.2 0.9,0.4 -0.9,0.2 0.9,0.4 -0.9,0.2 0.9,0.4 -0.9,0.2 0.9,0.4 -0.9,0.2 0.9,0.4 -0.9,0.2 0.9,0.4 -0.9,0.2 0.9,0.4 z m 24.9,10.9 v 0.4 c 0,0.9 -0.7,1.6 -1.6,1.6 l -25.1,0.4 c -0.9,0 -1.6,-0.7 -1.6,-1.6 v -0.4 z m -27.7,-9.9 26.7,-0.5 c 0.4,0 0.8,0.3 0.8,0.8 l 0.1,8.4 -28.3,0.5 -0.1,-8.4 c 0,-0.4 0.3,-0.8 0.8,-0.8 z m -21.3,-90.6 66.8,-1.2 0.3,16.8 c 0,1.3 -1,2.3 -2.2,2.3 l -62.2,1.1 c -1.3,0 -2.3,-1 -2.3,-2.2 z"
         id="path4-7"
         style="fill:#ffffff" /><polygon
         class="cls-4"
         points="173.06,168.32 177.46,168.22 177.86,190.42 176.16,201.42 175.46,201.42 173.46,190.52 "
         id="polygon4"
         style="fill:#ffffff" /><path
         class="cls-4"
         d="m 193.96,67.62 -36,0.6 -0.4,-20.7 c 12,-2.4 24.1,-2.8 36,-1.4 z"
         id="path5-9"
         style="fill:#ffffff" /><path
         class="cls-4"
         d="m 95.96,150.22 c 8.7,35 43.7,56.9 80.2,51.6 l -1.3,-5.2 c -33.5,4.5 -65.4,-15.6 -73.5,-47.7 -7.9,-31.7 10.3,-64.1 41.3,-76.2 0.4,-0.2 -0.8,-1.1 -0.4,-1.2 l -0.6,-3.2 -0.2,-1.3 c -0.9,0.3 -1.7,0.6 -2.6,1 -33.1,13.3 -51.4,48.1 -42.9,82.2"
         id="path6-1"
         style="fill:#ffffff" /><polygon
         class="cls-4"
         points="88.76,147.52 90.86,156.02 99.76,156.52 99.16,153.92 96.96,145.42 96.36,142.82 "
         id="polygon6"
         style="fill:#ffffff" /><polygon
         class="cls-4"
         points="94.96,166.32 99.36,174.02 108.16,172.32 106.86,170.02 102.46,162.32 101.16,160.02 "
         id="polygon7"
         style="fill:#ffffff" /><polygon
         class="cls-4"
         points="106.16,182.92 112.46,189.22 120.56,185.32 118.66,183.42 112.36,177.22 110.46,175.32 "
         id="polygon8"
         style="fill:#ffffff" /><polygon
         class="cls-4"
         points="121.46,196.02 129.26,200.52 136.16,194.82 133.76,193.42 125.96,189.02 123.56,187.62 "
         id="polygon9"
         style="fill:#ffffff" /><polygon
         class="cls-4"
         points="139.86,204.82 148.66,207.12 153.76,200.02 151.16,199.32 142.36,196.92 139.66,196.22 "
         id="polygon10"
         style="fill:#ffffff" /><polygon
         class="cls-4"
         points="160.16,208.72 169.36,208.72 172.36,200.62 169.56,200.62 160.36,200.52 157.56,200.52 "
         id="polygon11"
         style="fill:#ffffff" /><polygon
         class="cls-4"
         points="87.76,127.62 87.56,136.42 95.96,139.12 96.06,136.52 96.26,127.72 96.36,125.02 "
         id="polygon12"
         style="fill:#ffffff" /><polygon
         class="cls-4"
         points="92.26,108.12 89.66,116.62 96.96,121.32 97.76,118.72 100.36,110.22 101.16,107.62 "
         id="polygon13"
         style="fill:#ffffff" /><polygon
         class="cls-4"
         points="101.76,90.22 96.96,97.82 102.76,104.22 104.26,101.92 109.06,94.32 110.46,92.02 "
         id="polygon14"
         style="fill:#ffffff" /><polygon
         class="cls-4"
         points="115.76,75.22 109.16,81.42 112.96,89.12 114.96,87.22 121.66,81.02 123.66,79.12 "
         id="polygon15"
         style="fill:#ffffff" /><polygon
         class="cls-4"
         points="133.26,64.12 125.16,68.52 126.76,76.92 129.26,75.62 137.36,71.22 139.76,69.92 "
         id="polygon16"
         style="fill:#ffffff" /><path
         class="cls-4"
         d="m 662.66,84.52 c -0.4,0.1 -0.8,0.3 -1.1,0.5 -0.4,0.2 -0.7,0.5 -1,0.8 -0.3,0.3 -0.5,0.6 -0.8,1 -0.3,0.4 -0.4,0.7 -0.5,1.1 -0.1,0.4 -0.2,0.8 -0.2,1.3 0,0.4 0.1,0.9 0.2,1.3 0.1,0.4 0.3,0.8 0.5,1.1 0.2,0.4 0.5,0.7 0.8,1 0.3,0.3 0.6,0.5 1,0.8 0.4,0.2 0.7,0.4 1.1,0.5 0.4,0.1 0.8,0.2 1.3,0.2 0.5,0 0.9,-0.1 1.3,-0.2 0.4,-0.1 0.8,-0.3 1.2,-0.5 0.4,-0.2 0.7,-0.5 1,-0.8 0.3,-0.3 0.5,-0.6 0.8,-1 0.2,-0.4 0.4,-0.7 0.5,-1.1 0.1,-0.4 0.2,-0.8 0.2,-1.3 0,-0.4 -0.1,-0.9 -0.2,-1.3 -0.1,-0.4 -0.3,-0.8 -0.5,-1.1 -0.2,-0.4 -0.5,-0.7 -0.8,-1 -0.3,-0.3 -0.6,-0.5 -1,-0.8 -0.4,-0.2 -0.7,-0.4 -1.2,-0.5 -0.4,-0.1 -0.8,-0.2 -1.3,-0.2 -0.5,0 -0.9,0.1 -1.3,0.2 m 3.2,5.7 c -0.1,-0.1 -0.2,-0.3 -0.2,-0.4 -0.1,-0.1 -0.2,-0.2 -0.3,-0.2 0.2,-0.1 0.4,-0.2 0.5,-0.3 0.1,-0.1 0.3,-0.2 0.3,-0.4 0.1,-0.1 0.2,-0.3 0.2,-0.5 0,-0.2 0.1,-0.3 0.1,-0.5 0,-0.3 0,-0.5 -0.1,-0.7 -0.1,-0.2 -0.2,-0.4 -0.4,-0.5 -0.2,-0.1 -0.5,-0.3 -0.8,-0.3 -0.3,-0.1 -0.7,-0.1 -1.1,-0.1 h -2.3 v 5.8 h 1.7 v -2 h 0.4 c 0.1,0 0.1,0.1 0.2,0.2 l 0.6,1.5 c 0.1,0.2 0.3,0.3 0.5,0.3 h 1.4 c -0.3,0.3 -0.7,0.6 -1.2,0.7 -0.4,0.2 -0.9,0.3 -1.4,0.3 -0.5,0 -1,-0.1 -1.5,-0.3 -0.5,-0.2 -0.9,-0.5 -1.2,-0.8 -0.3,-0.4 -0.6,-0.8 -0.8,-1.2 -0.2,-0.5 -0.3,-1 -0.3,-1.5 0,-0.5 0.1,-1.1 0.3,-1.5 0.2,-0.5 0.5,-0.9 0.8,-1.3 0.3,-0.4 0.7,-0.6 1.2,-0.8 0.5,-0.2 0.9,-0.3 1.5,-0.3 0.4,0 0.7,0 1,0.1 0.3,0.1 0.6,0.2 0.9,0.4 0.3,0.2 0.5,0.4 0.8,0.6 0.2,0.2 0.4,0.5 0.6,0.8 0.2,0.3 0.3,0.6 0.4,0.9 0.1,0.3 0.1,0.7 0.1,1.1 0,0.5 -0.1,1 -0.3,1.5 -0.2,0.5 -0.4,0.9 -0.8,1.2 z m -2.5,-1.3 v -1.4 h 0.9 c 0.1,0 0.2,0.1 0.2,0.1 q 0.1,0.1 0.1,0.2 v 0.6 c 0,0.1 -0.1,0.2 -0.1,0.2 -0.1,0.1 -0.2,0.1 -0.3,0.1 h -0.8 z"
         id="path16"
         style="fill:#ffffff" /></g><text
       class="cls-2"
       id="text16"
       style="fill:#ffffff"
       x="543.65479"
       y="179.00999"><tspan
         x="543.65479"
         y="179.00999"
         id="tspan16"
         style="fill:#ffffff">T</tspan></text><text
       class="cls-3"
       id="text17"
       style="fill:#ffffff"
       x="560.21478"
       y="179.00999"><tspan
         x="560.21478"
         y="179.00999"
         id="tspan17"
         style="fill:#ffffff">OOLIN</tspan></text><text
       class="cls-3"
       id="text18"
       style="fill:#ffffff"
       x="651.78003"
       y="179.00999"><tspan
         x="651.78003"
         y="179.00999"
         id="tspan18"
         style="fill:#ffffff">G</tspan></text><g
       id="g40"
       style="fill:#ffffff"><path
         class="cls-1"
         d="m 161.56,109.82 -5.2,0.1 v 1.8 c 0,0.6 0.5,1 1.1,1 l 4.2,-0.1 z m 6.7,-0.1 h -1.9 v 2.9 h 1.9 z m 3.9,-0.1 h -1.5 v 2.9 h 1.5 z m 22.6,-0.4 -21.5,0.4 v 2.9 l 20.4,-0.4 c 0.6,0 1,-0.5 1,-1.1 z"
         id="path18"
         style="fill:#ffffff" /><path
         class="cls-1"
         d="m 149.86,69.22 -6.2,0.1 0.2,14.5 c 0,0 0,0.1 0.1,0.1 l 6.1,-0.1 z m 6,-0.1 h -2.3 l 0.3,14.6 h 2.3 z m 3,0 h -1.1 l 0.3,14.6 h 1.1 z m 33,-0.6 -32.1,0.6 0.3,14.6 32.1,-0.6 z m 2,0 h -1.1 l 0.3,14.6 h 1.1 z m 4.2,-0.1 h -2.3 l 0.3,14.6 h 2.3 z m 8,-0.1 -4.3,0.1 0.3,14.6 4.2,-0.1 c 0,0 0.1,0 0.1,-0.1 z"
         id="path19"
         style="fill:#ffffff" /><polygon
         class="cls-1"
         points="89.56,147.92 90.06,149.92 95.96,146.32 95.46,144.32 "
         id="polygon19"
         style="fill:#ffffff" /><polygon
         class="cls-1"
         points="90.36,150.92 90.56,151.72 96.46,148.12 96.26,147.32 "
         id="polygon20"
         style="fill:#ffffff" /><polygon
         class="cls-1"
         points="95.96,166.52 96.96,168.32 101.66,163.42 100.66,161.62 "
         id="polygon21"
         style="fill:#ffffff" /><polygon
         class="cls-1"
         points="97.46,169.22 97.86,169.92 102.66,165.02 102.26,164.32 "
         id="polygon22"
         style="fill:#ffffff" /><polygon
         class="cls-1"
         points="107.16,182.82 108.56,184.32 111.86,178.42 110.46,177.02 "
         id="polygon23"
         style="fill:#ffffff" /><polygon
         class="cls-1"
         points="109.36,185.02 109.96,185.62 113.26,179.72 112.66,179.12 "
         id="polygon24"
         style="fill:#ffffff" /><polygon
         class="cls-1"
         points="122.46,195.72 124.26,196.72 125.86,190.32 124.06,189.22 "
         id="polygon25"
         style="fill:#ffffff" /><polygon
         class="cls-1"
         points="125.16,197.32 125.96,197.72 127.56,191.22 126.76,190.82 "
         id="polygon26"
         style="fill:#ffffff" /><polygon
         class="cls-1"
         points="140.76,204.32 142.76,204.82 142.56,198.22 140.56,197.72 "
         id="polygon27"
         style="fill:#ffffff" /><polygon
         class="cls-1"
         points="143.76,205.12 144.66,205.32 144.46,198.72 143.56,198.52 "
         id="polygon28"
         style="fill:#ffffff" /><polygon
         class="cls-1"
         points="160.86,207.92 162.96,208.02 160.96,201.72 158.86,201.62 "
         id="polygon29"
         style="fill:#ffffff" /><polygon
         class="cls-1"
         points="164.06,208.02 164.96,208.02 162.96,201.72 162.06,201.72 "
         id="polygon30"
         style="fill:#ffffff" /><polygon
         class="cls-1"
         points="88.56,128.32 88.46,130.32 95.06,128.22 95.16,126.22 "
         id="polygon31"
         style="fill:#ffffff" /><polygon
         class="cls-1"
         points="88.46,131.32 88.36,132.22 94.96,130.12 95.06,129.32 "
         id="polygon32"
         style="fill:#ffffff" /><polygon
         class="cls-1"
         points="92.76,108.92 92.16,110.82 99.06,110.52 99.66,108.62 "
         id="polygon33"
         style="fill:#ffffff" /><polygon
         class="cls-1"
         points="91.86,111.82 91.56,112.62 98.46,112.32 98.76,111.52 "
         id="polygon34"
         style="fill:#ffffff" /><polygon
         class="cls-1"
         points="102.06,91.12 100.96,92.82 107.66,94.22 108.76,92.52 "
         id="polygon35"
         style="fill:#ffffff" /><polygon
         class="cls-1"
         points="100.46,93.72 99.96,94.52 106.66,95.92 107.16,95.12 "
         id="polygon36"
         style="fill:#ffffff" /><polygon
         class="cls-1"
         points="115.86,76.22 114.26,77.62 120.36,80.62 121.86,79.22 "
         id="polygon37"
         style="fill:#ffffff" /><polygon
         class="cls-1"
         points="113.46,78.32 112.86,78.92 118.86,81.92 119.56,81.32 "
         id="polygon38"
         style="fill:#ffffff" /><polygon
         class="cls-1"
         points="133.06,65.02 131.16,66.02 136.16,70.52 138.06,69.52 "
         id="polygon39"
         style="fill:#ffffff" /><polygon
         class="cls-1"
         points="130.26,66.62 129.46,67.02 134.46,71.42 135.26,71.02 "
         id="polygon40"
         style="fill:#ffffff" /></g></g><g
     id="g1"
     transform="matrix(11.423118,0,0,11.423118,2567.4189,-6731.4114)"
     inkscape:export-filename="logo-ntr-branco1.svg"
     inkscape:export-xdpi="96"
     inkscape:export-ydpi="96"><g
       id="a" /><g
       id="b"
       style="fill:#ffffff"><g
         id="c"
         style="fill:#ffffff"><g
           id="d"
           style="fill:#ffffff"><path
             class="f"
             d="m 416.71,207.08 c -0.76,0.23 -1.53,0.53 -2.29,0.92 -0.76,0.39 -1.37,0.84 -1.91,1.37 -0.61,0.53 -1.07,1.14 -1.53,1.83 -0.38,0.69 -0.76,1.37 -0.99,2.14 -0.23,0.77 -0.31,1.53 -0.31,2.37 0,0.84 0.08,1.6 0.31,2.37 0.23,0.76 0.53,1.45 0.99,2.14 0.38,0.69 0.92,1.3 1.53,1.83 0.61,0.53 1.22,0.99 1.91,1.37 0.69,0.38 1.45,0.69 2.29,0.92 0.84,0.23 1.68,0.31 2.52,0.31 0.84,0 1.76,-0.08 2.52,-0.31 0.84,-0.23 1.6,-0.53 2.29,-0.92 0.69,-0.39 1.37,-0.84 1.91,-1.37 0.61,-0.53 1.07,-1.14 1.53,-1.83 0.38,-0.69 0.76,-1.37 0.99,-2.14 0.23,-0.77 0.38,-1.53 0.38,-2.37 0,-0.84 -0.15,-1.6 -0.38,-2.37 -0.23,-0.77 -0.53,-1.45 -0.99,-2.14 -0.38,-0.69 -0.92,-1.3 -1.53,-1.83 -0.61,-0.53 -1.22,-0.99 -1.91,-1.37 -0.69,-0.38 -1.45,-0.69 -2.29,-0.92 -0.84,-0.23 -1.68,-0.31 -2.52,-0.31 -0.84,-0.08 -1.68,0.08 -2.52,0.31 m 6.34,10.61 c -0.15,-0.23 -0.31,-0.46 -0.46,-0.69 -0.15,-0.23 -0.38,-0.38 -0.61,-0.46 0.38,-0.15 0.69,-0.31 0.99,-0.53 0.3,-0.22 0.53,-0.46 0.69,-0.69 0.16,-0.23 0.31,-0.53 0.38,-0.84 0.07,-0.31 0.15,-0.61 0.15,-0.99 0,-0.53 -0.08,-0.99 -0.31,-1.37 -0.15,-0.38 -0.46,-0.76 -0.92,-0.99 -0.46,-0.23 -0.92,-0.46 -1.53,-0.61 -0.61,-0.15 -1.37,-0.23 -2.21,-0.23 h -4.5 v 10.84 h 3.43 v -3.66 h 0.38 c 0.23,0 0.38,0 0.46,0.08 0.08,0.08 0.23,0.15 0.31,0.31 l 1.14,2.82 c 0.15,0.31 0.53,0.46 0.99,0.46 h 2.75 c -0.69,0.61 -1.45,1.07 -2.29,1.37 -0.84,0.3 -1.76,0.46 -2.75,0.46 -1.07,0 -1.98,-0.15 -2.9,-0.53 -0.92,-0.38 -1.68,-0.92 -2.37,-1.53 -0.69,-0.69 -1.14,-1.45 -1.53,-2.29 -0.39,-0.84 -0.61,-1.83 -0.61,-2.9 0,-0.99 0.15,-1.98 0.61,-2.9 0.38,-0.92 0.92,-1.68 1.53,-2.37 0.69,-0.69 1.45,-1.22 2.37,-1.6 0.92,-0.38 1.91,-0.61 2.9,-0.61 0.69,0 1.37,0.08 1.98,0.23 0.61,0.15 1.22,0.38 1.76,0.69 0.54,0.31 1.07,0.69 1.53,1.14 0.46,0.45 0.84,0.92 1.14,1.45 0.31,0.53 0.61,1.14 0.76,1.76 0.15,0.62 0.23,1.3 0.23,1.98 0,0.99 -0.15,1.91 -0.53,2.82 -0.38,0.91 -0.84,1.6 -1.53,2.29 l -1.45,-2.9 z m -4.81,-2.44 v -2.67 h 1.07 c 0.31,0 0.61,0 0.84,0.08 0.23,0.08 0.38,0.15 0.46,0.23 0.08,0.08 0.15,0.23 0.23,0.38 0,0.15 0.08,0.31 0.08,0.53 0,0.22 0,0.38 -0.08,0.61 0,0.15 -0.08,0.31 -0.23,0.46 -0.15,0.08 -0.31,0.23 -0.53,0.23 -0.23,0.08 -0.53,0.08 -0.99,0.08 -0.08,0.08 -0.84,0.08 -0.84,0.08 z"
             id="path1-8"
             style="fill:#ffffff" /></g><g
           id="e"
           style="fill:#ffffff"><path
             class="h"
             d="m 302.29,254.52 v 0.72 c -0.03,-0.47 0,-0.72 0,-0.72 z"
             id="path2-9"
             style="fill:#ffffff" /><path
             class="h"
             d="m 113.03,222.82 c 0,0 -0.01,0.01 -0.03,0.01 -3.9,-2.91 -7.27,-5.45 -9.69,-7.28 0.01,0 0.03,-0.01 0.04,-0.01 2.42,1.83 5.78,4.36 9.65,7.26 0.01,0 0.01,0.01 0.03,0.03 z"
             id="path3-2"
             style="fill:#ffffff" /><path
             class="h"
             d="m 113,222.79 c -3.87,-2.89 -7.23,-5.42 -9.65,-7.26 -0.01,0 -0.03,0.01 -0.04,0.01 2.42,1.83 5.8,4.38 9.69,7.28 0.01,0 0.01,-0.01 0.03,-0.01 -0.01,-0.01 -0.01,-0.03 -0.03,-0.03 z"
             id="path4-3"
             style="fill:#ffffff" /></g><path
           class="h"
           d="m 302.29,228.67 v 0.59 c 0,0 0.03,-0.23 0,-0.59 z"
           id="path5-6"
           style="fill:#ffffff" /><path
           class="f"
           d="m 404.62,270.85 -7.02,-11.47 -4.36,-7.12 c -0.7,-1.16 -1.53,-2.13 -2.48,-2.92 -0.94,-0.8 -1.94,-1.49 -3.04,-2.02 2.28,-0.86 4.28,-1.97 6.01,-3.31 1.75,-1.33 3.21,-2.87 4.42,-4.58 1.19,-1.7 2.09,-3.56 2.7,-5.57 0.6,-2.01 0.91,-4.15 0.91,-6.41 0,-2.97 -0.51,-5.72 -1.54,-8.23 -1.02,-2.53 -2.65,-4.73 -4.9,-6.56 -2.26,-1.86 -5.17,-3.29 -8.72,-4.35 -3.56,-1.03 -7.87,-1.54 -7.24,-1.54 H 184.02 c -6.74,0 -6.98,0.84 -7.04,1.31 v 37.15 c -0.01,5.46 -1.77,10.6 -7.6,10.83 -5.82,0.23 -15.02,-5.9 -15.02,-5.9 0,0 -24.65,-18.27 -40.77,-30.32 -0.01,0 -0.01,0.01 -0.03,0.01 -3.91,-2.92 -7.3,-5.48 -9.73,-7.31 0.01,0 0.03,-0.01 0.04,-0.01 -0.01,-0.01 -0.03,-0.01 -0.04,-0.03 -2.01,-1.54 -3.35,-2.58 -3.75,-2.93 -3.91,-3.39 -7.83,-2.76 -7.83,-2.76 H 73.24 c -2.3,0 -2.08,1.53 -2.08,1.53 v 66.22 c 0,1.99 1.54,1.77 1.54,1.77 h 22.39 c 1.54,0 1.23,-1.93 1.23,-1.93 0,0 -0.01,-3.13 -0.03,-7.66 -0.01,-8.09 -0.04,-20.56 -0.04,-27.41 0,-7.52 3.79,-9.32 6.01,-9.71 0.92,-0.17 1.57,-0.11 1.57,-0.11 0,0 2.38,-0.92 15.02,5.3 8.11,3.96 29.8,19.89 44.36,30.81 3.16,2.38 5.97,4.51 8.25,6.23 3.6,2.74 5.82,4.47 5.82,4.47 l 21.77,-0.03 c 1.54,0 1.31,-1.7 1.31,-1.7 v -52.88 c 0.28,-0.07 0.47,-0.09 0.47,-0.09 l 40.78,0.03 v 54.58 h 21.09 c 2.45,0 2.3,-1.99 2.3,-1.99 v -46.86 c 0,-5.73 6.51,-5.89 6.51,-5.89 h 26.76 c 4.62,0 5.34,2.95 5.44,4.23 0.03,0.36 0,0.59 0,0.59 v 50.23 h 21.36 c 1.12,0.01 2.02,-0.89 2.02,-2.02 v -23.78 h 44.23 c 1.23,-0.01 2.21,0.18 2.89,0.56 0.68,0.39 1.29,1.03 1.79,1.91 l 7.5,13.08 4.1,7.19 c 0.16,0.31 0.32,0.59 0.46,0.83 1.19,2.06 1.86,2.22 5.38,2.22 h 14.66 l -3.47,-5.68 z m -18.85,-38.42 c -0.09,0.32 -0.24,0.72 -0.47,1.16 -0.64,1.25 -1.18,1.82 -2.17,2.8 -0.99,1 -2.26,1.77 -3.8,2.33 -1.55,0.55 -3.43,0.84 -5.62,0.84 h -46.62 v -18.08 h 46.62 c 4.18,-0.01 7.27,0.84 9.26,2.56 1.9,1.66 2.91,3.92 2.97,6.81 0.01,0.12 0.01,0.24 0.01,0.37 0,0.16 0,0.58 -0.19,1.19 z"
           id="path6-8"
           style="fill:#ffffff" /><g
           id="g26"
           style="fill:#ffffff"><path
             class="g"
             d="m 205.31,291.59 v 1.52 h -6.98 v -12.19 h 1.81 v 10.67 z"
             id="path7-9"
             style="fill:#ffffff" /><path
             class="g"
             d="m 217.9,287.01 c 0,0.91 -0.15,1.75 -0.44,2.51 -0.29,0.76 -0.7,1.42 -1.24,1.97 -0.53,0.55 -1.17,0.98 -1.91,1.28 -0.74,0.31 -1.56,0.46 -2.47,0.46 -0.91,0 -1.72,-0.15 -2.46,-0.46 -0.74,-0.31 -1.38,-0.73 -1.91,-1.28 -0.53,-0.55 -0.94,-1.21 -1.24,-1.97 -0.3,-0.76 -0.44,-1.6 -0.44,-2.51 0,-0.91 0.15,-1.74 0.44,-2.5 0.29,-0.76 0.71,-1.42 1.24,-1.97 0.53,-0.55 1.17,-0.98 1.91,-1.29 0.74,-0.31 1.57,-0.46 2.46,-0.46 0.89,0 1.73,0.15 2.47,0.46 0.74,0.31 1.38,0.74 1.91,1.29 0.53,0.55 0.94,1.21 1.24,1.97 0.3,0.76 0.44,1.6 0.44,2.5 z m -1.85,0 c 0,-0.73 -0.1,-1.38 -0.3,-1.95 -0.2,-0.58 -0.48,-1.07 -0.85,-1.47 -0.36,-0.4 -0.81,-0.71 -1.32,-0.93 -0.51,-0.22 -1.1,-0.32 -1.74,-0.32 -0.64,0 -1.22,0.11 -1.74,0.32 -0.52,0.21 -0.96,0.52 -1.33,0.93 -0.37,0.4 -0.65,0.89 -0.85,1.47 -0.2,0.58 -0.3,1.23 -0.3,1.95 0,0.72 0.1,1.38 0.3,1.96 0.2,0.58 0.48,1.06 0.85,1.46 0.37,0.4 0.81,0.71 1.33,0.92 0.52,0.21 1.1,0.32 1.74,0.32 0.64,0 1.22,-0.11 1.74,-0.32 0.52,-0.21 0.96,-0.52 1.32,-0.92 0.37,-0.4 0.65,-0.89 0.85,-1.46 0.2,-0.57 0.3,-1.23 0.3,-1.96 z"
             id="path8-0"
             style="fill:#ffffff" /><path
             class="g"
             d="m 230.11,287.17 v 4.75 c -0.62,0.44 -1.27,0.77 -1.97,0.99 -0.7,0.22 -1.45,0.33 -2.28,0.33 -0.98,0 -1.87,-0.15 -2.67,-0.46 -0.8,-0.31 -1.47,-0.73 -2.03,-1.28 -0.56,-0.55 -0.99,-1.21 -1.29,-1.97 -0.3,-0.76 -0.45,-1.6 -0.45,-2.52 0,-0.92 0.15,-1.77 0.44,-2.53 0.29,-0.76 0.71,-1.42 1.25,-1.97 0.54,-0.55 1.2,-0.97 1.97,-1.27 0.77,-0.3 1.64,-0.45 2.6,-0.45 0.49,0 0.94,0.04 1.35,0.11 0.41,0.07 0.8,0.18 1.16,0.31 0.36,0.13 0.69,0.3 0.99,0.49 0.3,0.19 0.58,0.4 0.85,0.64 l -0.52,0.82 c -0.08,0.13 -0.18,0.21 -0.31,0.25 -0.13,0.03 -0.27,0 -0.42,-0.09 -0.15,-0.09 -0.31,-0.18 -0.49,-0.3 -0.18,-0.12 -0.39,-0.22 -0.64,-0.32 -0.25,-0.1 -0.53,-0.18 -0.86,-0.25 -0.33,-0.07 -0.72,-0.1 -1.16,-0.1 -0.67,0 -1.27,0.11 -1.81,0.33 -0.54,0.22 -1,0.53 -1.37,0.94 -0.37,0.41 -0.67,0.9 -0.87,1.47 -0.2,0.57 -0.31,1.22 -0.31,1.93 0,0.71 0.11,1.42 0.32,2.01 0.21,0.59 0.52,1.09 0.91,1.5 0.39,0.41 0.87,0.72 1.43,0.94 0.56,0.22 1.19,0.32 1.89,0.32 0.27,0 0.53,-0.02 0.76,-0.05 0.23,-0.03 0.46,-0.07 0.68,-0.13 0.21,-0.06 0.42,-0.13 0.62,-0.21 0.2,-0.09 0.4,-0.18 0.6,-0.28 v -2.55 h -1.8 c -0.11,0 -0.21,-0.03 -0.28,-0.1 -0.07,-0.07 -0.11,-0.15 -0.11,-0.25 v -1.03 h 3.82 z"
             id="path9"
             style="fill:#ffffff" /><path
             class="g"
             d="m 236.78,277.37 -2.77,2.43 c -0.1,0.08 -0.18,0.13 -0.26,0.15 -0.08,0.02 -0.18,0.03 -0.31,0.03 h -1.2 l 1.92,-2.33 c 0.05,-0.07 0.1,-0.12 0.15,-0.16 0.05,-0.04 0.1,-0.06 0.16,-0.08 0.06,-0.02 0.12,-0.03 0.19,-0.04 0.07,0 0.16,0 0.26,0 h 1.87 z m -2.42,15.74 h -1.82 v -12.19 h 1.82 z"
             id="path10"
             style="fill:#ffffff" /><path
             class="g"
             d="m 243.68,282.9 c -0.06,0.1 -0.12,0.17 -0.18,0.21 -0.06,0.04 -0.14,0.07 -0.24,0.07 -0.1,0 -0.22,-0.05 -0.35,-0.14 -0.13,-0.09 -0.29,-0.2 -0.49,-0.31 -0.19,-0.12 -0.43,-0.22 -0.7,-0.31 -0.27,-0.09 -0.6,-0.14 -0.98,-0.14 -0.36,0 -0.67,0.05 -0.94,0.14 -0.27,0.09 -0.49,0.22 -0.68,0.38 -0.19,0.16 -0.32,0.35 -0.41,0.57 -0.09,0.22 -0.14,0.45 -0.14,0.71 0,0.33 0.08,0.6 0.25,0.82 0.17,0.21 0.39,0.4 0.66,0.55 0.27,0.15 0.58,0.29 0.93,0.4 0.35,0.11 0.7,0.23 1.06,0.35 0.36,0.12 0.72,0.26 1.06,0.42 0.34,0.16 0.65,0.36 0.93,0.6 0.27,0.24 0.49,0.53 0.66,0.88 0.17,0.35 0.25,0.77 0.25,1.28 0,0.54 -0.09,1.04 -0.27,1.51 -0.19,0.47 -0.45,0.88 -0.8,1.23 -0.35,0.35 -0.78,0.63 -1.29,0.83 -0.51,0.2 -1.09,0.3 -1.74,0.3 -0.39,0 -0.77,-0.04 -1.14,-0.11 -0.37,-0.08 -0.72,-0.18 -1.04,-0.32 -0.33,-0.14 -0.63,-0.31 -0.92,-0.5 -0.29,-0.19 -0.54,-0.41 -0.77,-0.66 l 0.52,-0.86 c 0.05,-0.07 0.11,-0.13 0.18,-0.17 0.07,-0.05 0.15,-0.07 0.24,-0.07 0.12,0 0.26,0.06 0.41,0.19 0.15,0.12 0.35,0.26 0.58,0.41 0.23,0.15 0.5,0.29 0.82,0.41 0.32,0.12 0.71,0.19 1.17,0.19 0.37,0 0.71,-0.05 1,-0.15 0.29,-0.1 0.54,-0.24 0.74,-0.42 0.2,-0.18 0.36,-0.41 0.46,-0.67 0.11,-0.26 0.16,-0.55 0.16,-0.87 0,-0.36 -0.08,-0.65 -0.25,-0.87 -0.17,-0.22 -0.38,-0.42 -0.65,-0.57 -0.27,-0.15 -0.58,-0.28 -0.92,-0.39 -0.35,-0.11 -0.7,-0.22 -1.06,-0.34 -0.36,-0.12 -0.72,-0.25 -1.06,-0.4 -0.35,-0.15 -0.65,-0.35 -0.93,-0.6 -0.27,-0.25 -0.49,-0.55 -0.65,-0.92 -0.16,-0.37 -0.25,-0.83 -0.25,-1.37 0,-0.44 0.08,-0.86 0.25,-1.26 0.17,-0.4 0.42,-0.77 0.74,-1.08 0.33,-0.32 0.73,-0.57 1.2,-0.76 0.47,-0.19 1.02,-0.28 1.63,-0.28 0.68,0 1.31,0.11 1.89,0.33 0.57,0.22 1.07,0.53 1.5,0.94 l -0.44,0.86 z"
             id="path11"
             style="fill:#ffffff" /><path
             class="g"
             d="m 254.91,282.43 h -3.87 v 10.68 h -1.8 v -10.68 h -3.89 v -1.51 h 9.56 z"
             id="path12"
             style="fill:#ffffff" /><path
             class="g"
             d="m 258.49,293.11 h -1.82 v -12.19 h 1.82 z"
             id="path13"
             style="fill:#ffffff" /><path
             class="g"
             d="m 270.01,290.49 c 0.1,0 0.19,0.04 0.26,0.12 l 0.71,0.78 c -0.5,0.59 -1.1,1.04 -1.82,1.37 -0.72,0.32 -1.58,0.48 -2.59,0.48 -0.88,0 -1.68,-0.15 -2.4,-0.46 -0.72,-0.31 -1.33,-0.73 -1.83,-1.28 -0.51,-0.55 -0.9,-1.21 -1.18,-1.97 -0.28,-0.76 -0.42,-1.6 -0.42,-2.52 0,-0.92 0.15,-1.76 0.44,-2.52 0.29,-0.76 0.7,-1.42 1.23,-1.97 0.53,-0.55 1.16,-0.98 1.89,-1.28 0.73,-0.31 1.54,-0.46 2.43,-0.46 0.89,0 1.64,0.14 2.31,0.42 0.67,0.28 1.26,0.66 1.76,1.13 l -0.59,0.84 c -0.04,0.06 -0.09,0.11 -0.15,0.15 -0.06,0.04 -0.14,0.06 -0.23,0.06 -0.11,0 -0.23,-0.05 -0.38,-0.16 -0.14,-0.11 -0.33,-0.23 -0.57,-0.36 -0.23,-0.13 -0.53,-0.25 -0.87,-0.36 -0.34,-0.11 -0.78,-0.16 -1.29,-0.16 -0.61,0 -1.16,0.11 -1.66,0.32 -0.5,0.21 -0.94,0.52 -1.3,0.92 -0.36,0.4 -0.65,0.89 -0.85,1.47 -0.2,0.58 -0.3,1.24 -0.3,1.97 0,0.73 0.11,1.4 0.32,1.98 0.21,0.58 0.5,1.07 0.86,1.47 0.37,0.4 0.8,0.71 1.3,0.92 0.5,0.21 1.04,0.31 1.61,0.31 0.35,0 0.67,-0.02 0.95,-0.06 0.28,-0.04 0.54,-0.11 0.77,-0.19 0.23,-0.09 0.46,-0.19 0.67,-0.33 0.21,-0.13 0.42,-0.29 0.62,-0.48 0.04,-0.04 0.09,-0.07 0.14,-0.1 0.05,-0.02 0.11,-0.04 0.16,-0.04 z"
             id="path14"
             style="fill:#ffffff" /><path
             class="g"
             d="m 282.86,293.11 h -1.39 c -0.16,0 -0.29,-0.04 -0.39,-0.12 -0.1,-0.08 -0.18,-0.18 -0.22,-0.31 l -1.08,-2.83 h -5.37 l -1.08,2.83 c -0.04,0.11 -0.11,0.2 -0.22,0.29 -0.11,0.09 -0.24,0.13 -0.39,0.13 h -1.39 l 4.86,-12.19 h 1.83 l 4.86,12.19 z m -3.57,-4.54 -1.81,-4.73 c -0.13,-0.32 -0.26,-0.73 -0.39,-1.22 -0.06,0.24 -0.13,0.47 -0.19,0.68 -0.06,0.21 -0.13,0.4 -0.19,0.56 l -1.8,4.71 z"
             id="path15"
             style="fill:#ffffff" /><path
             class="g"
             d="m 295.66,291.64 v 1.47 h -7.56 v -12.19 h 7.56 v 1.47 h -5.74 v 3.86 h 4.62 v 1.42 h -4.62 v 3.97 h 5.75 z"
             id="path16-9"
             style="fill:#ffffff" /><path
             class="g"
             d="m 309.98,282.43 h -3.87 v 10.68 h -1.8 v -10.68 h -3.89 v -1.51 h 9.56 z"
             id="path17"
             style="fill:#ffffff" /><path
             class="g"
             d="m 320.88,293.11 h -1.61 c -0.32,0 -0.56,-0.13 -0.7,-0.38 l -3.01,-4.23 c -0.1,-0.14 -0.2,-0.24 -0.31,-0.3 -0.11,-0.06 -0.28,-0.09 -0.51,-0.09 h -1.18 v 5 h -1.81 v -12.19 h 3.51 c 0.79,0 1.46,0.08 2.03,0.24 0.57,0.16 1.04,0.39 1.41,0.69 0.37,0.3 0.65,0.65 0.82,1.07 0.17,0.42 0.27,0.89 0.27,1.41 0,0.42 -0.06,0.82 -0.19,1.2 -0.13,0.37 -0.32,0.71 -0.57,1.01 -0.25,0.3 -0.56,0.55 -0.92,0.77 -0.36,0.21 -0.77,0.38 -1.23,0.49 0.23,0.14 0.42,0.32 0.59,0.57 l 3.43,4.74 z m -5.69,-6.32 c 0.46,0 0.87,-0.06 1.23,-0.17 0.36,-0.11 0.65,-0.27 0.89,-0.48 0.24,-0.21 0.42,-0.45 0.53,-0.74 0.12,-0.28 0.18,-0.6 0.18,-0.95 0,-0.7 -0.23,-1.23 -0.69,-1.59 -0.46,-0.36 -1.15,-0.53 -2.08,-0.53 h -1.71 v 4.46 z"
             id="path18-8"
             style="fill:#ffffff" /><path
             class="g"
             d="m 332.49,293.11 h -1.39 c -0.16,0 -0.29,-0.04 -0.39,-0.12 -0.1,-0.08 -0.18,-0.18 -0.22,-0.31 l -1.08,-2.83 h -5.37 l -1.08,2.83 c -0.04,0.11 -0.11,0.2 -0.22,0.29 -0.11,0.09 -0.24,0.13 -0.39,0.13 h -1.39 l 4.86,-12.19 h 1.83 l 4.86,12.19 z m -3.57,-4.54 -1.81,-4.73 c -0.13,-0.32 -0.26,-0.73 -0.39,-1.22 -0.06,0.24 -0.13,0.47 -0.19,0.68 -0.06,0.21 -0.13,0.4 -0.19,0.56 l -1.8,4.71 z"
             id="path19-0"
             style="fill:#ffffff" /><path
             class="g"
             d="m 343.99,280.91 v 12.19 h -0.92 c -0.14,0 -0.26,-0.02 -0.35,-0.08 -0.09,-0.05 -0.19,-0.13 -0.28,-0.25 l -6.88,-8.91 c 0.01,0.15 0.02,0.3 0.03,0.45 0,0.15 0.01,0.29 0.01,0.42 v 8.36 h -1.59 V 280.9 h 0.93 c 0.16,0 0.28,0.02 0.36,0.06 0.08,0.04 0.17,0.12 0.26,0.25 l 6.9,8.91 c -0.02,-0.16 -0.03,-0.32 -0.04,-0.48 0,-0.15 -0.01,-0.3 -0.01,-0.44 v -8.3 h 1.58 z"
             id="path20"
             style="fill:#ffffff" /><path
             class="g"
             d="m 353.31,282.9 c -0.06,0.1 -0.12,0.17 -0.18,0.21 -0.06,0.04 -0.14,0.07 -0.24,0.07 -0.1,0 -0.22,-0.05 -0.35,-0.14 -0.13,-0.09 -0.29,-0.2 -0.49,-0.31 -0.19,-0.12 -0.43,-0.22 -0.7,-0.31 -0.27,-0.09 -0.6,-0.14 -0.98,-0.14 -0.36,0 -0.67,0.05 -0.94,0.14 -0.27,0.09 -0.49,0.22 -0.68,0.38 -0.19,0.16 -0.32,0.35 -0.41,0.57 -0.09,0.22 -0.14,0.45 -0.14,0.71 0,0.33 0.08,0.6 0.25,0.82 0.17,0.21 0.39,0.4 0.66,0.55 0.27,0.15 0.58,0.29 0.93,0.4 0.35,0.11 0.7,0.23 1.06,0.35 0.36,0.12 0.72,0.26 1.06,0.42 0.34,0.16 0.65,0.36 0.93,0.6 0.27,0.24 0.49,0.53 0.66,0.88 0.17,0.35 0.25,0.77 0.25,1.28 0,0.54 -0.09,1.04 -0.27,1.51 -0.19,0.47 -0.45,0.88 -0.8,1.23 -0.35,0.35 -0.78,0.63 -1.29,0.83 -0.51,0.2 -1.09,0.3 -1.74,0.3 -0.39,0 -0.77,-0.04 -1.14,-0.11 -0.37,-0.08 -0.72,-0.18 -1.04,-0.32 -0.33,-0.14 -0.63,-0.31 -0.92,-0.5 -0.29,-0.19 -0.54,-0.41 -0.77,-0.66 l 0.52,-0.86 c 0.05,-0.07 0.11,-0.13 0.18,-0.17 0.07,-0.05 0.15,-0.07 0.24,-0.07 0.12,0 0.26,0.06 0.41,0.19 0.15,0.12 0.35,0.26 0.58,0.41 0.23,0.15 0.5,0.29 0.82,0.41 0.32,0.12 0.71,0.19 1.17,0.19 0.37,0 0.71,-0.05 1,-0.15 0.29,-0.1 0.54,-0.24 0.74,-0.42 0.2,-0.18 0.36,-0.41 0.46,-0.67 0.11,-0.26 0.16,-0.55 0.16,-0.87 0,-0.36 -0.08,-0.65 -0.25,-0.87 -0.17,-0.22 -0.38,-0.42 -0.65,-0.57 -0.27,-0.15 -0.58,-0.28 -0.92,-0.39 -0.35,-0.11 -0.7,-0.22 -1.06,-0.34 -0.36,-0.12 -0.72,-0.25 -1.06,-0.4 -0.35,-0.15 -0.65,-0.35 -0.93,-0.6 -0.27,-0.25 -0.49,-0.55 -0.65,-0.92 -0.16,-0.37 -0.25,-0.83 -0.25,-1.37 0,-0.44 0.08,-0.86 0.25,-1.26 0.17,-0.4 0.42,-0.77 0.74,-1.08 0.33,-0.32 0.73,-0.57 1.2,-0.76 0.47,-0.19 1.02,-0.28 1.63,-0.28 0.68,0 1.31,0.11 1.89,0.33 0.57,0.22 1.07,0.53 1.5,0.94 l -0.44,0.86 z"
             id="path21"
             style="fill:#ffffff" /><path
             class="g"
             d="m 359.94,280.91 c 0.78,0 1.46,0.09 2.04,0.27 0.58,0.18 1.06,0.44 1.43,0.77 0.38,0.33 0.66,0.73 0.84,1.2 0.18,0.47 0.28,0.99 0.28,1.56 0,0.57 -0.1,1.1 -0.3,1.57 -0.2,0.48 -0.49,0.89 -0.87,1.24 -0.38,0.35 -0.86,0.61 -1.44,0.8 -0.57,0.19 -1.24,0.28 -1.98,0.28 h -1.88 v 4.49 h -1.81 V 280.9 h 3.69 z m 0,6.27 c 0.46,0 0.86,-0.06 1.21,-0.18 0.35,-0.12 0.64,-0.29 0.87,-0.51 0.23,-0.22 0.41,-0.48 0.53,-0.78 0.12,-0.3 0.18,-0.64 0.18,-1.01 0,-0.74 -0.23,-1.32 -0.69,-1.75 -0.46,-0.43 -1.16,-0.64 -2.1,-0.64 h -1.88 v 4.86 h 1.88 z"
             id="path22"
             style="fill:#ffffff" /><path
             class="g"
             d="m 377.87,287.01 c 0,0.91 -0.15,1.75 -0.44,2.51 -0.29,0.76 -0.7,1.42 -1.24,1.97 -0.53,0.55 -1.17,0.98 -1.91,1.28 -0.74,0.31 -1.56,0.46 -2.47,0.46 -0.91,0 -1.72,-0.15 -2.46,-0.46 -0.74,-0.31 -1.38,-0.73 -1.91,-1.28 -0.53,-0.55 -0.94,-1.21 -1.24,-1.97 -0.3,-0.76 -0.44,-1.6 -0.44,-2.51 0,-0.91 0.15,-1.74 0.44,-2.5 0.29,-0.76 0.71,-1.42 1.24,-1.97 0.53,-0.55 1.17,-0.98 1.91,-1.29 0.74,-0.31 1.57,-0.46 2.46,-0.46 0.89,0 1.73,0.15 2.47,0.46 0.74,0.31 1.38,0.74 1.91,1.29 0.53,0.55 0.94,1.21 1.24,1.97 0.3,0.76 0.44,1.6 0.44,2.5 z m -1.85,0 c 0,-0.73 -0.1,-1.38 -0.3,-1.95 -0.2,-0.58 -0.48,-1.07 -0.85,-1.47 -0.36,-0.4 -0.81,-0.71 -1.32,-0.93 -0.51,-0.22 -1.1,-0.32 -1.74,-0.32 -0.64,0 -1.22,0.11 -1.74,0.32 -0.52,0.21 -0.96,0.52 -1.33,0.93 -0.37,0.4 -0.65,0.89 -0.85,1.47 -0.2,0.58 -0.3,1.23 -0.3,1.95 0,0.72 0.1,1.38 0.3,1.96 0.2,0.58 0.48,1.06 0.85,1.46 0.37,0.4 0.81,0.71 1.33,0.92 0.52,0.21 1.1,0.32 1.74,0.32 0.64,0 1.22,-0.11 1.74,-0.32 0.52,-0.21 0.96,-0.52 1.32,-0.92 0.37,-0.4 0.65,-0.89 0.85,-1.46 0.2,-0.57 0.3,-1.23 0.3,-1.96 z"
             id="path23"
             style="fill:#ffffff" /><path
             class="g"
             d="m 389.28,293.11 h -1.61 c -0.32,0 -0.56,-0.13 -0.7,-0.38 l -3.01,-4.23 c -0.1,-0.14 -0.2,-0.24 -0.31,-0.3 -0.11,-0.06 -0.28,-0.09 -0.51,-0.09 h -1.18 v 5 h -1.81 v -12.19 h 3.51 c 0.79,0 1.46,0.08 2.03,0.24 0.57,0.16 1.04,0.39 1.41,0.69 0.37,0.3 0.65,0.65 0.82,1.07 0.17,0.42 0.27,0.89 0.27,1.41 0,0.42 -0.06,0.82 -0.19,1.2 -0.13,0.37 -0.32,0.71 -0.57,1.01 -0.25,0.3 -0.56,0.55 -0.92,0.77 -0.36,0.21 -0.77,0.38 -1.23,0.49 0.23,0.14 0.42,0.32 0.59,0.57 l 3.43,4.74 z m -5.69,-6.32 c 0.46,0 0.87,-0.06 1.23,-0.17 0.36,-0.11 0.65,-0.27 0.89,-0.48 0.24,-0.21 0.42,-0.45 0.53,-0.74 0.12,-0.28 0.18,-0.6 0.18,-0.95 0,-0.7 -0.23,-1.23 -0.69,-1.59 -0.46,-0.36 -1.15,-0.53 -2.08,-0.53 h -1.71 v 4.46 z"
             id="path24"
             style="fill:#ffffff" /><path
             class="g"
             d="m 398.77,282.43 h -3.87 v 10.68 h -1.8 v -10.68 h -3.89 v -1.51 h 9.56 z"
             id="path25"
             style="fill:#ffffff" /><path
             class="g"
             d="m 408.09,291.64 v 1.47 h -7.56 v -12.19 h 7.56 v 1.47 h -5.74 v 3.86 h 4.62 v 1.42 h -4.62 v 3.97 h 5.75 z"
             id="path26"
             style="fill:#ffffff" /></g></g></g></g></svg>
