<?xml version="1.0" encoding="UTF-8" standalone="no"?>
<svg
   version="1.1"
   viewBox="0 0 4086 918.84155"
   width="1276.875"
   height="604.6875"
   id="svg8"
   sodipodi:docname="logo-vipsoft-branco1.svg"
   inkscape:version="1.3 (0e150ed6c4, 2023-07-21)"
   xml:space="preserve"
   xmlns:inkscape="http://www.inkscape.org/namespaces/inkscape"
   xmlns:sodipodi="http://sodipodi.sourceforge.net/DTD/sodipodi-0.dtd"
   xmlns="http://www.w3.org/2000/svg"
   xmlns:svg="http://www.w3.org/2000/svg"><defs
     id="defs8"><style
       id="style1">.cls-1{fill:#fff;}.cls-2{letter-spacing:-.03em;}.cls-2,.cls-3{fill:#575756;font-family:Lato-Heavy, Lato;font-size:24.97px;font-weight:800;isolation:isolate;}.cls-4{fill:#0a4f9d;}</style><style
       id="style1-9">.cls-1{fill:#fff;}.cls-2{letter-spacing:-.03em;}.cls-2,.cls-3{fill:#575756;font-family:Lato-Heavy, Lato;font-size:24.97px;font-weight:800;isolation:isolate;}.cls-4{fill:#0a4f9d;}</style><style
       id="style1-93">.f{fill:#27509c;}.g{fill:#5d5d5d;}.h{fill:#2c2f7c;}</style></defs><sodipodi:namedview
     id="namedview8"
     pagecolor="#505050"
     bordercolor="#ffffff"
     borderopacity="1"
     inkscape:showpageshadow="0"
     inkscape:pageopacity="0"
     inkscape:pagecheckerboard="1"
     inkscape:deskcolor="#505050"
     inkscape:zoom="0.22456164"
     inkscape:cx="374.06211"
     inkscape:cy="-291.67938"
     inkscape:window-width="1920"
     inkscape:window-height="1009"
     inkscape:window-x="-8"
     inkscape:window-y="-8"
     inkscape:window-maximized="1"
     inkscape:current-layer="svg8" /><g
     id="g3"
     transform="translate(-3282.4219,7902.2966)"><g
       id="g2"><g
         id="g8"
         transform="translate(3277.4219,-8415.3758)"
         inkscape:export-filename="logo-vipsoft-branco1.svg"
         inkscape:export-xdpi="96"
         inkscape:export-ydpi="96"><path
           transform="translate(2505,5)"
           d="m 0,0 h 323 l -2,5 -9,13 -29,44 -7,10 -386,579 -29,43 -29,44 -29,43 -22,33 -8,10 -12,14 -21,21 -11,9 -15,12 -17,11 -17,10 -25,12 -23,9 -21,6 -23,5 -21,3 -11,1 h -44 l -33,-4 -30,-7 -27,-9 -29,-13 -23,-13 -19,-13 -14,-11 -10,-9 -2,-1 v -2 l -4,-2 -14,-14 v -2 h -2 l -9,-11 -12,-15 -12,-18 -12,-21 -144,-288 v -3 l 14,-9 15,-10 44,-29 43,-29 44,-29 43,-29 38,-25 3,3 144,288 9,17 9,19 8,16 9,17 2,5 4,-4 29,-44 17,-25 284,-426 29,-43 29,-44 29,-43 29,-44 z"
           fill="#ffffff"
           id="path1" /><path
           transform="translate(2511,1171)"
           d="m 0,0 h 66 l 30,3 22,3 27,6 21,6 18,6 26,11 23,12 24,16 13,10 10,9 8,7 15,15 9,11 11,14 10,15 9,15 12,23 10,24 7,20 7,24 7,32 5,34 3,45 v 47 l -3,44 -6,40 -7,30 -10,33 -12,29 -12,24 -13,21 -12,17 -11,13 -9,10 -21,21 -14,11 -15,11 -18,11 -14,8 -25,11 -25,9 -25,7 -23,5 -37,5 -16,1 H -1 l -26,-2 -33,-5 -27,-6 -26,-8 -19,-7 -24,-11 -18,-10 -21,-14 -13,-10 -15,-13 -17,-17 -9,-11 -11,-14 -14,-21 -10,-18 -9,-19 -6,-13 -8,-22 -7,-24 -5,-21 -4,-21 -4,-28 -3,-42 v -58 l 3,-42 6,-39 7,-30 8,-27 11,-28 16,-32 12,-19 11,-15 14,-17 8,-8 5,-6 8,-7 11,-10 16,-12 17,-11 15,-9 28,-13 24,-9 32,-9 31,-6 34,-4 z m 13,106 -28,3 -28,6 -23,8 -19,9 -16,10 -13,10 -10,9 -10,10 -13,17 -11,18 -8,16 -10,25 -7,25 -4,18 -4,23 -3,33 -1,17 v 43 l 3,40 3,22 5,26 6,22 5,15 9,21 10,19 13,19 13,15 9,9 14,11 15,10 15,8 15,6 15,5 20,5 27,4 14,1 h 32 l 22,-2 28,-5 18,-5 20,-8 16,-8 16,-10 14,-12 5,-4 v -2 l 4,-2 9,-10 11,-15 8,-13 9,-17 10,-25 7,-24 5,-23 4,-26 3,-33 1,-19 v -33 l -2,-33 -3,-28 -6,-32 -7,-25 -8,-22 -6,-14 -12,-21 -10,-14 -11,-13 -13,-13 -16,-12 -20,-12 -21,-9 -15,-5 -28,-6 -28,-3 z"
           fill="#ffffff"
           id="path2" /><path
           transform="translate(1102,1171)"
           d="m 0,0 h 88 l 43,2 43,4 38,6 26,6 26,8 18,7 25,12 17,11 13,10 12,11 7,7 11,14 11,18 8,16 8,24 5,21 3,24 1,20 v 24 l -1,21 -4,29 -7,27 -10,25 -9,17 -8,12 -11,14 -12,13 -13,12 -12,9 -15,10 -18,10 -22,10 -25,9 -25,7 -23,5 -23,4 -35,4 -15,1 H 29 L 18,483 V 769 H -108 V 2 Z m 44,107 -26,1 v 268 l 21,1 h 43 l 25,-1 32,-3 28,-5 21,-6 19,-8 16,-9 13,-10 11,-11 10,-15 6,-13 4,-11 4,-21 1,-11 v -29 l -2,-17 -4,-17 -6,-15 -7,-12 -8,-10 -9,-9 -13,-9 -11,-6 -18,-8 -21,-6 -30,-5 -43,-3 z"
           fill="#ffffff"
           id="path3" /><path
           transform="translate(5,1173)"
           d="m 0,0 h 131 l 10,32 12,35 12,36 14,40 8,24 15,43 13,38 14,41 16,47 14,41 14,43 17,52 12,39 11,37 9,31 10,40 3,15 1,1 5,-24 11,-44 11,-38 11,-37 14,-45 8,-24 14,-43 12,-35 12,-36 18,-53 15,-43 14,-40 10,-29 15,-44 11,-31 14,-43 9,-26 h 132 l -3,10 -16,46 -11,31 -17,48 -11,31 -10,29 -20,57 -11,31 -17,48 -11,31 -10,29 -16,45 -9,26 -17,48 -11,31 -10,29 -20,57 -17,48 -20,57 -12,34 -1,1 H 268 l -7,-19 -17,-48 -10,-29 -18,-52 -17,-48 -22,-63 -8,-23 -20,-56 -7,-21 L 127,366 117,337 101,292 91,263 80,232 70,203 50,146 35,103 21,63 6,21 0,3 Z"
           fill="#ffffff"
           id="path4" /><path
           transform="translate(1824,1171)"
           d="m 0,0 h 51 l 32,3 29,4 26,5 29,7 31,9 27,9 30,12 7,4 v 115 l -9,-2 -81,-29 -35,-11 -22,-6 -25,-6 -22,-4 -26,-3 H 8 l -22,3 -19,5 -17,7 -14,8 -11,9 -8,10 -8,16 -4,12 -2,14 v 19 l 3,17 6,16 7,11 15,16 10,9 13,9 19,11 29,13 36,15 21,9 31,13 30,14 24,12 20,12 16,11 14,11 13,12 7,7 11,14 10,15 10,21 6,18 4,16 3,24 v 44 l -4,26 -7,24 -7,16 -9,16 -10,14 -9,10 -7,8 -10,9 -13,10 -15,10 -14,8 -24,11 -20,7 -23,7 -33,7 -39,5 -19,1 h -49 l -29,-2 -37,-5 -30,-6 -26,-7 -27,-9 -23,-10 -1,-1 V 612 l 23,10 25,10 36,12 35,9 26,5 27,4 11,1 h 56 l 21,-3 22,-5 22,-8 15,-8 11,-8 8,-8 7,-10 6,-12 4,-11 3,-17 v -19 l -4,-20 -7,-16 -7,-11 L 105,495 93,485 75,474 48,460 23,448 -4,436 l -29,-13 -35,-16 -29,-14 -22,-12 -18,-11 -17,-12 -9,-7 v -2 l -4,-2 -10,-11 -6,-9 -10,-13 -10,-18 -9,-20 -5,-16 -5,-23 -2,-19 v -32 l 3,-24 5,-21 6,-17 11,-23 11,-16 11,-13 11,-11 20,-15 16,-10 19,-10 20,-8 18,-6 30,-7 31,-4 z"
           fill="#ffffff"
           id="path5" /><path
           transform="translate(3000,1173)"
           d="M 0,0 H 417 V 107 H 126 V 345 H 416 V 453 H 126 V 767 H 0 Z"
           fill="#ffffff"
           id="path6" /><path
           transform="translate(3511,1173)"
           d="M 0,0 H 580 V 109 H 354 V 767 H 227 V 109 H 1 l -1,-1 z"
           fill="#ffffff"
           id="path7" /><path
           transform="translate(772,1173)"
           d="M 0,0 H 127 V 767 H 0 Z"
           fill="#ffffff"
           id="path8" /></g></g></g></svg>
