<?xml version="1.0" encoding="UTF-8" standalone="no"?>
<svg
   version="1.1"
   viewBox="0 0 4086.0004 469.2074"
   width="1276.8751"
   height="308.7843"
   id="svg8"
   sodipodi:docname="logo-ntr-branco1.svg"
   inkscape:version="1.3 (0e150ed6c4, 2023-07-21)"
   xml:space="preserve"
   xmlns:inkscape="http://www.inkscape.org/namespaces/inkscape"
   xmlns:sodipodi="http://sodipodi.sourceforge.net/DTD/sodipodi-0.dtd"
   xmlns="http://www.w3.org/2000/svg"
   xmlns:svg="http://www.w3.org/2000/svg"><defs
     id="defs8"><style
       id="style1">.cls-1{fill:#fff;}.cls-2{letter-spacing:-.03em;}.cls-2,.cls-3{fill:#575756;font-family:Lato-Heavy, Lato;font-size:24.97px;font-weight:800;isolation:isolate;}.cls-4{fill:#0a4f9d;}</style><style
       id="style1-9">.cls-1{fill:#fff;}.cls-2{letter-spacing:-.03em;}.cls-2,.cls-3{fill:#575756;font-family:Lato-Heavy, Lato;font-size:24.97px;font-weight:800;isolation:isolate;}.cls-4{fill:#0a4f9d;}</style><style
       id="style1-93">.f{fill:#27509c;}.g{fill:#5d5d5d;}.h{fill:#2c2f7c;}</style></defs><sodipodi:namedview
     id="namedview8"
     pagecolor="#505050"
     bordercolor="#ffffff"
     borderopacity="1"
     inkscape:showpageshadow="0"
     inkscape:pageopacity="0"
     inkscape:pagecheckerboard="1"
     inkscape:deskcolor="#505050"
     inkscape:zoom="0.44912328"
     inkscape:cx="859.45222"
     inkscape:cy="205.95681"
     inkscape:window-width="1920"
     inkscape:window-height="1009"
     inkscape:window-x="-8"
     inkscape:window-y="-8"
     inkscape:window-maximized="1"
     inkscape:current-layer="svg8" /><g
     id="g1"
     transform="matrix(6.9751904,0,0,6.9751904,299.18755,-1509.1909)"><g
       id="a" /><g
       id="b"
       style="fill:#ffffff"><g
         id="c"
         style="fill:#ffffff"><g
           id="d"
           style="fill:#ffffff"><path
             class="f"
             d="m 416.71,207.08 c -0.76,0.23 -1.53,0.53 -2.29,0.92 -0.76,0.39 -1.37,0.84 -1.91,1.37 -0.61,0.53 -1.07,1.14 -1.53,1.83 -0.38,0.69 -0.76,1.37 -0.99,2.14 -0.23,0.77 -0.31,1.53 -0.31,2.37 0,0.84 0.08,1.6 0.31,2.37 0.23,0.76 0.53,1.45 0.99,2.14 0.38,0.69 0.92,1.3 1.53,1.83 0.61,0.53 1.22,0.99 1.91,1.37 0.69,0.38 1.45,0.69 2.29,0.92 0.84,0.23 1.68,0.31 2.52,0.31 0.84,0 1.76,-0.08 2.52,-0.31 0.84,-0.23 1.6,-0.53 2.29,-0.92 0.69,-0.39 1.37,-0.84 1.91,-1.37 0.61,-0.53 1.07,-1.14 1.53,-1.83 0.38,-0.69 0.76,-1.37 0.99,-2.14 0.23,-0.77 0.38,-1.53 0.38,-2.37 0,-0.84 -0.15,-1.6 -0.38,-2.37 -0.23,-0.77 -0.53,-1.45 -0.99,-2.14 -0.38,-0.69 -0.92,-1.3 -1.53,-1.83 -0.61,-0.53 -1.22,-0.99 -1.91,-1.37 -0.69,-0.38 -1.45,-0.69 -2.29,-0.92 -0.84,-0.23 -1.68,-0.31 -2.52,-0.31 -0.84,-0.08 -1.68,0.08 -2.52,0.31 m 6.34,10.61 c -0.15,-0.23 -0.31,-0.46 -0.46,-0.69 -0.15,-0.23 -0.38,-0.38 -0.61,-0.46 0.38,-0.15 0.69,-0.31 0.99,-0.53 0.3,-0.22 0.53,-0.46 0.69,-0.69 0.16,-0.23 0.31,-0.53 0.38,-0.84 0.07,-0.31 0.15,-0.61 0.15,-0.99 0,-0.53 -0.08,-0.99 -0.31,-1.37 -0.15,-0.38 -0.46,-0.76 -0.92,-0.99 -0.46,-0.23 -0.92,-0.46 -1.53,-0.61 -0.61,-0.15 -1.37,-0.23 -2.21,-0.23 h -4.5 v 10.84 h 3.43 v -3.66 h 0.38 c 0.23,0 0.38,0 0.46,0.08 0.08,0.08 0.23,0.15 0.31,0.31 l 1.14,2.82 c 0.15,0.31 0.53,0.46 0.99,0.46 h 2.75 c -0.69,0.61 -1.45,1.07 -2.29,1.37 -0.84,0.3 -1.76,0.46 -2.75,0.46 -1.07,0 -1.98,-0.15 -2.9,-0.53 -0.92,-0.38 -1.68,-0.92 -2.37,-1.53 -0.69,-0.69 -1.14,-1.45 -1.53,-2.29 -0.39,-0.84 -0.61,-1.83 -0.61,-2.9 0,-0.99 0.15,-1.98 0.61,-2.9 0.38,-0.92 0.92,-1.68 1.53,-2.37 0.69,-0.69 1.45,-1.22 2.37,-1.6 0.92,-0.38 1.91,-0.61 2.9,-0.61 0.69,0 1.37,0.08 1.98,0.23 0.61,0.15 1.22,0.38 1.76,0.69 0.54,0.31 1.07,0.69 1.53,1.14 0.46,0.45 0.84,0.92 1.14,1.45 0.31,0.53 0.61,1.14 0.76,1.76 0.15,0.62 0.23,1.3 0.23,1.98 0,0.99 -0.15,1.91 -0.53,2.82 -0.38,0.91 -0.84,1.6 -1.53,2.29 l -1.45,-2.9 z m -4.81,-2.44 v -2.67 h 1.07 c 0.31,0 0.61,0 0.84,0.08 0.23,0.08 0.38,0.15 0.46,0.23 0.08,0.08 0.15,0.23 0.23,0.38 0,0.15 0.08,0.31 0.08,0.53 0,0.22 0,0.38 -0.08,0.61 0,0.15 -0.08,0.31 -0.23,0.46 -0.15,0.08 -0.31,0.23 -0.53,0.23 -0.23,0.08 -0.53,0.08 -0.99,0.08 -0.08,0.08 -0.84,0.08 -0.84,0.08 z"
             id="path1-8"
             style="fill:#ffffff" /></g><g
           id="e"
           style="fill:#ffffff"><path
             class="h"
             d="m 302.29,254.52 v 0.72 c -0.03,-0.47 0,-0.72 0,-0.72 z"
             id="path2-9"
             style="fill:#ffffff" /><path
             class="h"
             d="m 113.03,222.82 c 0,0 -0.01,0.01 -0.03,0.01 -3.9,-2.91 -7.27,-5.45 -9.69,-7.28 0.01,0 0.03,-0.01 0.04,-0.01 2.42,1.83 5.78,4.36 9.65,7.26 0.01,0 0.01,0.01 0.03,0.03 z"
             id="path3-2"
             style="fill:#ffffff" /><path
             class="h"
             d="m 113,222.79 c -3.87,-2.89 -7.23,-5.42 -9.65,-7.26 -0.01,0 -0.03,0.01 -0.04,0.01 2.42,1.83 5.8,4.38 9.69,7.28 0.01,0 0.01,-0.01 0.03,-0.01 -0.01,-0.01 -0.01,-0.03 -0.03,-0.03 z"
             id="path4-3"
             style="fill:#ffffff" /></g><path
           class="h"
           d="m 302.29,228.67 v 0.59 c 0,0 0.03,-0.23 0,-0.59 z"
           id="path5-6"
           style="fill:#ffffff" /><path
           class="f"
           d="m 404.62,270.85 -7.02,-11.47 -4.36,-7.12 c -0.7,-1.16 -1.53,-2.13 -2.48,-2.92 -0.94,-0.8 -1.94,-1.49 -3.04,-2.02 2.28,-0.86 4.28,-1.97 6.01,-3.31 1.75,-1.33 3.21,-2.87 4.42,-4.58 1.19,-1.7 2.09,-3.56 2.7,-5.57 0.6,-2.01 0.91,-4.15 0.91,-6.41 0,-2.97 -0.51,-5.72 -1.54,-8.23 -1.02,-2.53 -2.65,-4.73 -4.9,-6.56 -2.26,-1.86 -5.17,-3.29 -8.72,-4.35 -3.56,-1.03 -7.87,-1.54 -7.24,-1.54 H 184.02 c -6.74,0 -6.98,0.84 -7.04,1.31 v 37.15 c -0.01,5.46 -1.77,10.6 -7.6,10.83 -5.82,0.23 -15.02,-5.9 -15.02,-5.9 0,0 -24.65,-18.27 -40.77,-30.32 -0.01,0 -0.01,0.01 -0.03,0.01 -3.91,-2.92 -7.3,-5.48 -9.73,-7.31 0.01,0 0.03,-0.01 0.04,-0.01 -0.01,-0.01 -0.03,-0.01 -0.04,-0.03 -2.01,-1.54 -3.35,-2.58 -3.75,-2.93 -3.91,-3.39 -7.83,-2.76 -7.83,-2.76 H 73.24 c -2.3,0 -2.08,1.53 -2.08,1.53 v 66.22 c 0,1.99 1.54,1.77 1.54,1.77 h 22.39 c 1.54,0 1.23,-1.93 1.23,-1.93 0,0 -0.01,-3.13 -0.03,-7.66 -0.01,-8.09 -0.04,-20.56 -0.04,-27.41 0,-7.52 3.79,-9.32 6.01,-9.71 0.92,-0.17 1.57,-0.11 1.57,-0.11 0,0 2.38,-0.92 15.02,5.3 8.11,3.96 29.8,19.89 44.36,30.81 3.16,2.38 5.97,4.51 8.25,6.23 3.6,2.74 5.82,4.47 5.82,4.47 l 21.77,-0.03 c 1.54,0 1.31,-1.7 1.31,-1.7 v -52.88 c 0.28,-0.07 0.47,-0.09 0.47,-0.09 l 40.78,0.03 v 54.58 h 21.09 c 2.45,0 2.3,-1.99 2.3,-1.99 v -46.86 c 0,-5.73 6.51,-5.89 6.51,-5.89 h 26.76 c 4.62,0 5.34,2.95 5.44,4.23 0.03,0.36 0,0.59 0,0.59 v 50.23 h 21.36 c 1.12,0.01 2.02,-0.89 2.02,-2.02 v -23.78 h 44.23 c 1.23,-0.01 2.21,0.18 2.89,0.56 0.68,0.39 1.29,1.03 1.79,1.91 l 7.5,13.08 4.1,7.19 c 0.16,0.31 0.32,0.59 0.46,0.83 1.19,2.06 1.86,2.22 5.38,2.22 h 14.66 l -3.47,-5.68 z m -18.85,-38.42 c -0.09,0.32 -0.24,0.72 -0.47,1.16 -0.64,1.25 -1.18,1.82 -2.17,2.8 -0.99,1 -2.26,1.77 -3.8,2.33 -1.55,0.55 -3.43,0.84 -5.62,0.84 h -46.62 v -18.08 h 46.62 c 4.18,-0.01 7.27,0.84 9.26,2.56 1.9,1.66 2.91,3.92 2.97,6.81 0.01,0.12 0.01,0.24 0.01,0.37 0,0.16 0,0.58 -0.19,1.19 z"
           id="path6-8"
           style="fill:#ffffff" /><g
           id="g26"
           style="fill:#ffffff"><path
             class="g"
             d="m 205.31,291.59 v 1.52 h -6.98 v -12.19 h 1.81 v 10.67 z"
             id="path7-9"
             style="fill:#ffffff" /><path
             class="g"
             d="m 217.9,287.01 c 0,0.91 -0.15,1.75 -0.44,2.51 -0.29,0.76 -0.7,1.42 -1.24,1.97 -0.53,0.55 -1.17,0.98 -1.91,1.28 -0.74,0.31 -1.56,0.46 -2.47,0.46 -0.91,0 -1.72,-0.15 -2.46,-0.46 -0.74,-0.31 -1.38,-0.73 -1.91,-1.28 -0.53,-0.55 -0.94,-1.21 -1.24,-1.97 -0.3,-0.76 -0.44,-1.6 -0.44,-2.51 0,-0.91 0.15,-1.74 0.44,-2.5 0.29,-0.76 0.71,-1.42 1.24,-1.97 0.53,-0.55 1.17,-0.98 1.91,-1.29 0.74,-0.31 1.57,-0.46 2.46,-0.46 0.89,0 1.73,0.15 2.47,0.46 0.74,0.31 1.38,0.74 1.91,1.29 0.53,0.55 0.94,1.21 1.24,1.97 0.3,0.76 0.44,1.6 0.44,2.5 z m -1.85,0 c 0,-0.73 -0.1,-1.38 -0.3,-1.95 -0.2,-0.58 -0.48,-1.07 -0.85,-1.47 -0.36,-0.4 -0.81,-0.71 -1.32,-0.93 -0.51,-0.22 -1.1,-0.32 -1.74,-0.32 -0.64,0 -1.22,0.11 -1.74,0.32 -0.52,0.21 -0.96,0.52 -1.33,0.93 -0.37,0.4 -0.65,0.89 -0.85,1.47 -0.2,0.58 -0.3,1.23 -0.3,1.95 0,0.72 0.1,1.38 0.3,1.96 0.2,0.58 0.48,1.06 0.85,1.46 0.37,0.4 0.81,0.71 1.33,0.92 0.52,0.21 1.1,0.32 1.74,0.32 0.64,0 1.22,-0.11 1.74,-0.32 0.52,-0.21 0.96,-0.52 1.32,-0.92 0.37,-0.4 0.65,-0.89 0.85,-1.46 0.2,-0.57 0.3,-1.23 0.3,-1.96 z"
             id="path8-0"
             style="fill:#ffffff" /><path
             class="g"
             d="m 230.11,287.17 v 4.75 c -0.62,0.44 -1.27,0.77 -1.97,0.99 -0.7,0.22 -1.45,0.33 -2.28,0.33 -0.98,0 -1.87,-0.15 -2.67,-0.46 -0.8,-0.31 -1.47,-0.73 -2.03,-1.28 -0.56,-0.55 -0.99,-1.21 -1.29,-1.97 -0.3,-0.76 -0.45,-1.6 -0.45,-2.52 0,-0.92 0.15,-1.77 0.44,-2.53 0.29,-0.76 0.71,-1.42 1.25,-1.97 0.54,-0.55 1.2,-0.97 1.97,-1.27 0.77,-0.3 1.64,-0.45 2.6,-0.45 0.49,0 0.94,0.04 1.35,0.11 0.41,0.07 0.8,0.18 1.16,0.31 0.36,0.13 0.69,0.3 0.99,0.49 0.3,0.19 0.58,0.4 0.85,0.64 l -0.52,0.82 c -0.08,0.13 -0.18,0.21 -0.31,0.25 -0.13,0.03 -0.27,0 -0.42,-0.09 -0.15,-0.09 -0.31,-0.18 -0.49,-0.3 -0.18,-0.12 -0.39,-0.22 -0.64,-0.32 -0.25,-0.1 -0.53,-0.18 -0.86,-0.25 -0.33,-0.07 -0.72,-0.1 -1.16,-0.1 -0.67,0 -1.27,0.11 -1.81,0.33 -0.54,0.22 -1,0.53 -1.37,0.94 -0.37,0.41 -0.67,0.9 -0.87,1.47 -0.2,0.57 -0.31,1.22 -0.31,1.93 0,0.71 0.11,1.42 0.32,2.01 0.21,0.59 0.52,1.09 0.91,1.5 0.39,0.41 0.87,0.72 1.43,0.94 0.56,0.22 1.19,0.32 1.89,0.32 0.27,0 0.53,-0.02 0.76,-0.05 0.23,-0.03 0.46,-0.07 0.68,-0.13 0.21,-0.06 0.42,-0.13 0.62,-0.21 0.2,-0.09 0.4,-0.18 0.6,-0.28 v -2.55 h -1.8 c -0.11,0 -0.21,-0.03 -0.28,-0.1 -0.07,-0.07 -0.11,-0.15 -0.11,-0.25 v -1.03 h 3.82 z"
             id="path9"
             style="fill:#ffffff" /><path
             class="g"
             d="m 236.78,277.37 -2.77,2.43 c -0.1,0.08 -0.18,0.13 -0.26,0.15 -0.08,0.02 -0.18,0.03 -0.31,0.03 h -1.2 l 1.92,-2.33 c 0.05,-0.07 0.1,-0.12 0.15,-0.16 0.05,-0.04 0.1,-0.06 0.16,-0.08 0.06,-0.02 0.12,-0.03 0.19,-0.04 0.07,0 0.16,0 0.26,0 h 1.87 z m -2.42,15.74 h -1.82 v -12.19 h 1.82 z"
             id="path10"
             style="fill:#ffffff" /><path
             class="g"
             d="m 243.68,282.9 c -0.06,0.1 -0.12,0.17 -0.18,0.21 -0.06,0.04 -0.14,0.07 -0.24,0.07 -0.1,0 -0.22,-0.05 -0.35,-0.14 -0.13,-0.09 -0.29,-0.2 -0.49,-0.31 -0.19,-0.12 -0.43,-0.22 -0.7,-0.31 -0.27,-0.09 -0.6,-0.14 -0.98,-0.14 -0.36,0 -0.67,0.05 -0.94,0.14 -0.27,0.09 -0.49,0.22 -0.68,0.38 -0.19,0.16 -0.32,0.35 -0.41,0.57 -0.09,0.22 -0.14,0.45 -0.14,0.71 0,0.33 0.08,0.6 0.25,0.82 0.17,0.21 0.39,0.4 0.66,0.55 0.27,0.15 0.58,0.29 0.93,0.4 0.35,0.11 0.7,0.23 1.06,0.35 0.36,0.12 0.72,0.26 1.06,0.42 0.34,0.16 0.65,0.36 0.93,0.6 0.27,0.24 0.49,0.53 0.66,0.88 0.17,0.35 0.25,0.77 0.25,1.28 0,0.54 -0.09,1.04 -0.27,1.51 -0.19,0.47 -0.45,0.88 -0.8,1.23 -0.35,0.35 -0.78,0.63 -1.29,0.83 -0.51,0.2 -1.09,0.3 -1.74,0.3 -0.39,0 -0.77,-0.04 -1.14,-0.11 -0.37,-0.08 -0.72,-0.18 -1.04,-0.32 -0.33,-0.14 -0.63,-0.31 -0.92,-0.5 -0.29,-0.19 -0.54,-0.41 -0.77,-0.66 l 0.52,-0.86 c 0.05,-0.07 0.11,-0.13 0.18,-0.17 0.07,-0.05 0.15,-0.07 0.24,-0.07 0.12,0 0.26,0.06 0.41,0.19 0.15,0.12 0.35,0.26 0.58,0.41 0.23,0.15 0.5,0.29 0.82,0.41 0.32,0.12 0.71,0.19 1.17,0.19 0.37,0 0.71,-0.05 1,-0.15 0.29,-0.1 0.54,-0.24 0.74,-0.42 0.2,-0.18 0.36,-0.41 0.46,-0.67 0.11,-0.26 0.16,-0.55 0.16,-0.87 0,-0.36 -0.08,-0.65 -0.25,-0.87 -0.17,-0.22 -0.38,-0.42 -0.65,-0.57 -0.27,-0.15 -0.58,-0.28 -0.92,-0.39 -0.35,-0.11 -0.7,-0.22 -1.06,-0.34 -0.36,-0.12 -0.72,-0.25 -1.06,-0.4 -0.35,-0.15 -0.65,-0.35 -0.93,-0.6 -0.27,-0.25 -0.49,-0.55 -0.65,-0.92 -0.16,-0.37 -0.25,-0.83 -0.25,-1.37 0,-0.44 0.08,-0.86 0.25,-1.26 0.17,-0.4 0.42,-0.77 0.74,-1.08 0.33,-0.32 0.73,-0.57 1.2,-0.76 0.47,-0.19 1.02,-0.28 1.63,-0.28 0.68,0 1.31,0.11 1.89,0.33 0.57,0.22 1.07,0.53 1.5,0.94 l -0.44,0.86 z"
             id="path11"
             style="fill:#ffffff" /><path
             class="g"
             d="m 254.91,282.43 h -3.87 v 10.68 h -1.8 v -10.68 h -3.89 v -1.51 h 9.56 z"
             id="path12"
             style="fill:#ffffff" /><path
             class="g"
             d="m 258.49,293.11 h -1.82 v -12.19 h 1.82 z"
             id="path13"
             style="fill:#ffffff" /><path
             class="g"
             d="m 270.01,290.49 c 0.1,0 0.19,0.04 0.26,0.12 l 0.71,0.78 c -0.5,0.59 -1.1,1.04 -1.82,1.37 -0.72,0.32 -1.58,0.48 -2.59,0.48 -0.88,0 -1.68,-0.15 -2.4,-0.46 -0.72,-0.31 -1.33,-0.73 -1.83,-1.28 -0.51,-0.55 -0.9,-1.21 -1.18,-1.97 -0.28,-0.76 -0.42,-1.6 -0.42,-2.52 0,-0.92 0.15,-1.76 0.44,-2.52 0.29,-0.76 0.7,-1.42 1.23,-1.97 0.53,-0.55 1.16,-0.98 1.89,-1.28 0.73,-0.31 1.54,-0.46 2.43,-0.46 0.89,0 1.64,0.14 2.31,0.42 0.67,0.28 1.26,0.66 1.76,1.13 l -0.59,0.84 c -0.04,0.06 -0.09,0.11 -0.15,0.15 -0.06,0.04 -0.14,0.06 -0.23,0.06 -0.11,0 -0.23,-0.05 -0.38,-0.16 -0.14,-0.11 -0.33,-0.23 -0.57,-0.36 -0.23,-0.13 -0.53,-0.25 -0.87,-0.36 -0.34,-0.11 -0.78,-0.16 -1.29,-0.16 -0.61,0 -1.16,0.11 -1.66,0.32 -0.5,0.21 -0.94,0.52 -1.3,0.92 -0.36,0.4 -0.65,0.89 -0.85,1.47 -0.2,0.58 -0.3,1.24 -0.3,1.97 0,0.73 0.11,1.4 0.32,1.98 0.21,0.58 0.5,1.07 0.86,1.47 0.37,0.4 0.8,0.71 1.3,0.92 0.5,0.21 1.04,0.31 1.61,0.31 0.35,0 0.67,-0.02 0.95,-0.06 0.28,-0.04 0.54,-0.11 0.77,-0.19 0.23,-0.09 0.46,-0.19 0.67,-0.33 0.21,-0.13 0.42,-0.29 0.62,-0.48 0.04,-0.04 0.09,-0.07 0.14,-0.1 0.05,-0.02 0.11,-0.04 0.16,-0.04 z"
             id="path14"
             style="fill:#ffffff" /><path
             class="g"
             d="m 282.86,293.11 h -1.39 c -0.16,0 -0.29,-0.04 -0.39,-0.12 -0.1,-0.08 -0.18,-0.18 -0.22,-0.31 l -1.08,-2.83 h -5.37 l -1.08,2.83 c -0.04,0.11 -0.11,0.2 -0.22,0.29 -0.11,0.09 -0.24,0.13 -0.39,0.13 h -1.39 l 4.86,-12.19 h 1.83 l 4.86,12.19 z m -3.57,-4.54 -1.81,-4.73 c -0.13,-0.32 -0.26,-0.73 -0.39,-1.22 -0.06,0.24 -0.13,0.47 -0.19,0.68 -0.06,0.21 -0.13,0.4 -0.19,0.56 l -1.8,4.71 z"
             id="path15"
             style="fill:#ffffff" /><path
             class="g"
             d="m 295.66,291.64 v 1.47 h -7.56 v -12.19 h 7.56 v 1.47 h -5.74 v 3.86 h 4.62 v 1.42 h -4.62 v 3.97 h 5.75 z"
             id="path16-9"
             style="fill:#ffffff" /><path
             class="g"
             d="m 309.98,282.43 h -3.87 v 10.68 h -1.8 v -10.68 h -3.89 v -1.51 h 9.56 z"
             id="path17"
             style="fill:#ffffff" /><path
             class="g"
             d="m 320.88,293.11 h -1.61 c -0.32,0 -0.56,-0.13 -0.7,-0.38 l -3.01,-4.23 c -0.1,-0.14 -0.2,-0.24 -0.31,-0.3 -0.11,-0.06 -0.28,-0.09 -0.51,-0.09 h -1.18 v 5 h -1.81 v -12.19 h 3.51 c 0.79,0 1.46,0.08 2.03,0.24 0.57,0.16 1.04,0.39 1.41,0.69 0.37,0.3 0.65,0.65 0.82,1.07 0.17,0.42 0.27,0.89 0.27,1.41 0,0.42 -0.06,0.82 -0.19,1.2 -0.13,0.37 -0.32,0.71 -0.57,1.01 -0.25,0.3 -0.56,0.55 -0.92,0.77 -0.36,0.21 -0.77,0.38 -1.23,0.49 0.23,0.14 0.42,0.32 0.59,0.57 l 3.43,4.74 z m -5.69,-6.32 c 0.46,0 0.87,-0.06 1.23,-0.17 0.36,-0.11 0.65,-0.27 0.89,-0.48 0.24,-0.21 0.42,-0.45 0.53,-0.74 0.12,-0.28 0.18,-0.6 0.18,-0.95 0,-0.7 -0.23,-1.23 -0.69,-1.59 -0.46,-0.36 -1.15,-0.53 -2.08,-0.53 h -1.71 v 4.46 z"
             id="path18-8"
             style="fill:#ffffff" /><path
             class="g"
             d="m 332.49,293.11 h -1.39 c -0.16,0 -0.29,-0.04 -0.39,-0.12 -0.1,-0.08 -0.18,-0.18 -0.22,-0.31 l -1.08,-2.83 h -5.37 l -1.08,2.83 c -0.04,0.11 -0.11,0.2 -0.22,0.29 -0.11,0.09 -0.24,0.13 -0.39,0.13 h -1.39 l 4.86,-12.19 h 1.83 l 4.86,12.19 z m -3.57,-4.54 -1.81,-4.73 c -0.13,-0.32 -0.26,-0.73 -0.39,-1.22 -0.06,0.24 -0.13,0.47 -0.19,0.68 -0.06,0.21 -0.13,0.4 -0.19,0.56 l -1.8,4.71 z"
             id="path19-0"
             style="fill:#ffffff" /><path
             class="g"
             d="m 343.99,280.91 v 12.19 h -0.92 c -0.14,0 -0.26,-0.02 -0.35,-0.08 -0.09,-0.05 -0.19,-0.13 -0.28,-0.25 l -6.88,-8.91 c 0.01,0.15 0.02,0.3 0.03,0.45 0,0.15 0.01,0.29 0.01,0.42 v 8.36 h -1.59 V 280.9 h 0.93 c 0.16,0 0.28,0.02 0.36,0.06 0.08,0.04 0.17,0.12 0.26,0.25 l 6.9,8.91 c -0.02,-0.16 -0.03,-0.32 -0.04,-0.48 0,-0.15 -0.01,-0.3 -0.01,-0.44 v -8.3 h 1.58 z"
             id="path20"
             style="fill:#ffffff" /><path
             class="g"
             d="m 353.31,282.9 c -0.06,0.1 -0.12,0.17 -0.18,0.21 -0.06,0.04 -0.14,0.07 -0.24,0.07 -0.1,0 -0.22,-0.05 -0.35,-0.14 -0.13,-0.09 -0.29,-0.2 -0.49,-0.31 -0.19,-0.12 -0.43,-0.22 -0.7,-0.31 -0.27,-0.09 -0.6,-0.14 -0.98,-0.14 -0.36,0 -0.67,0.05 -0.94,0.14 -0.27,0.09 -0.49,0.22 -0.68,0.38 -0.19,0.16 -0.32,0.35 -0.41,0.57 -0.09,0.22 -0.14,0.45 -0.14,0.71 0,0.33 0.08,0.6 0.25,0.82 0.17,0.21 0.39,0.4 0.66,0.55 0.27,0.15 0.58,0.29 0.93,0.4 0.35,0.11 0.7,0.23 1.06,0.35 0.36,0.12 0.72,0.26 1.06,0.42 0.34,0.16 0.65,0.36 0.93,0.6 0.27,0.24 0.49,0.53 0.66,0.88 0.17,0.35 0.25,0.77 0.25,1.28 0,0.54 -0.09,1.04 -0.27,1.51 -0.19,0.47 -0.45,0.88 -0.8,1.23 -0.35,0.35 -0.78,0.63 -1.29,0.83 -0.51,0.2 -1.09,0.3 -1.74,0.3 -0.39,0 -0.77,-0.04 -1.14,-0.11 -0.37,-0.08 -0.72,-0.18 -1.04,-0.32 -0.33,-0.14 -0.63,-0.31 -0.92,-0.5 -0.29,-0.19 -0.54,-0.41 -0.77,-0.66 l 0.52,-0.86 c 0.05,-0.07 0.11,-0.13 0.18,-0.17 0.07,-0.05 0.15,-0.07 0.24,-0.07 0.12,0 0.26,0.06 0.41,0.19 0.15,0.12 0.35,0.26 0.58,0.41 0.23,0.15 0.5,0.29 0.82,0.41 0.32,0.12 0.71,0.19 1.17,0.19 0.37,0 0.71,-0.05 1,-0.15 0.29,-0.1 0.54,-0.24 0.74,-0.42 0.2,-0.18 0.36,-0.41 0.46,-0.67 0.11,-0.26 0.16,-0.55 0.16,-0.87 0,-0.36 -0.08,-0.65 -0.25,-0.87 -0.17,-0.22 -0.38,-0.42 -0.65,-0.57 -0.27,-0.15 -0.58,-0.28 -0.92,-0.39 -0.35,-0.11 -0.7,-0.22 -1.06,-0.34 -0.36,-0.12 -0.72,-0.25 -1.06,-0.4 -0.35,-0.15 -0.65,-0.35 -0.93,-0.6 -0.27,-0.25 -0.49,-0.55 -0.65,-0.92 -0.16,-0.37 -0.25,-0.83 -0.25,-1.37 0,-0.44 0.08,-0.86 0.25,-1.26 0.17,-0.4 0.42,-0.77 0.74,-1.08 0.33,-0.32 0.73,-0.57 1.2,-0.76 0.47,-0.19 1.02,-0.28 1.63,-0.28 0.68,0 1.31,0.11 1.89,0.33 0.57,0.22 1.07,0.53 1.5,0.94 l -0.44,0.86 z"
             id="path21"
             style="fill:#ffffff" /><path
             class="g"
             d="m 359.94,280.91 c 0.78,0 1.46,0.09 2.04,0.27 0.58,0.18 1.06,0.44 1.43,0.77 0.38,0.33 0.66,0.73 0.84,1.2 0.18,0.47 0.28,0.99 0.28,1.56 0,0.57 -0.1,1.1 -0.3,1.57 -0.2,0.48 -0.49,0.89 -0.87,1.24 -0.38,0.35 -0.86,0.61 -1.44,0.8 -0.57,0.19 -1.24,0.28 -1.98,0.28 h -1.88 v 4.49 h -1.81 V 280.9 h 3.69 z m 0,6.27 c 0.46,0 0.86,-0.06 1.21,-0.18 0.35,-0.12 0.64,-0.29 0.87,-0.51 0.23,-0.22 0.41,-0.48 0.53,-0.78 0.12,-0.3 0.18,-0.64 0.18,-1.01 0,-0.74 -0.23,-1.32 -0.69,-1.75 -0.46,-0.43 -1.16,-0.64 -2.1,-0.64 h -1.88 v 4.86 h 1.88 z"
             id="path22"
             style="fill:#ffffff" /><path
             class="g"
             d="m 377.87,287.01 c 0,0.91 -0.15,1.75 -0.44,2.51 -0.29,0.76 -0.7,1.42 -1.24,1.97 -0.53,0.55 -1.17,0.98 -1.91,1.28 -0.74,0.31 -1.56,0.46 -2.47,0.46 -0.91,0 -1.72,-0.15 -2.46,-0.46 -0.74,-0.31 -1.38,-0.73 -1.91,-1.28 -0.53,-0.55 -0.94,-1.21 -1.24,-1.97 -0.3,-0.76 -0.44,-1.6 -0.44,-2.51 0,-0.91 0.15,-1.74 0.44,-2.5 0.29,-0.76 0.71,-1.42 1.24,-1.97 0.53,-0.55 1.17,-0.98 1.91,-1.29 0.74,-0.31 1.57,-0.46 2.46,-0.46 0.89,0 1.73,0.15 2.47,0.46 0.74,0.31 1.38,0.74 1.91,1.29 0.53,0.55 0.94,1.21 1.24,1.97 0.3,0.76 0.44,1.6 0.44,2.5 z m -1.85,0 c 0,-0.73 -0.1,-1.38 -0.3,-1.95 -0.2,-0.58 -0.48,-1.07 -0.85,-1.47 -0.36,-0.4 -0.81,-0.71 -1.32,-0.93 -0.51,-0.22 -1.1,-0.32 -1.74,-0.32 -0.64,0 -1.22,0.11 -1.74,0.32 -0.52,0.21 -0.96,0.52 -1.33,0.93 -0.37,0.4 -0.65,0.89 -0.85,1.47 -0.2,0.58 -0.3,1.23 -0.3,1.95 0,0.72 0.1,1.38 0.3,1.96 0.2,0.58 0.48,1.06 0.85,1.46 0.37,0.4 0.81,0.71 1.33,0.92 0.52,0.21 1.1,0.32 1.74,0.32 0.64,0 1.22,-0.11 1.74,-0.32 0.52,-0.21 0.96,-0.52 1.32,-0.92 0.37,-0.4 0.65,-0.89 0.85,-1.46 0.2,-0.57 0.3,-1.23 0.3,-1.96 z"
             id="path23"
             style="fill:#ffffff" /><path
             class="g"
             d="m 389.28,293.11 h -1.61 c -0.32,0 -0.56,-0.13 -0.7,-0.38 l -3.01,-4.23 c -0.1,-0.14 -0.2,-0.24 -0.31,-0.3 -0.11,-0.06 -0.28,-0.09 -0.51,-0.09 h -1.18 v 5 h -1.81 v -12.19 h 3.51 c 0.79,0 1.46,0.08 2.03,0.24 0.57,0.16 1.04,0.39 1.41,0.69 0.37,0.3 0.65,0.65 0.82,1.07 0.17,0.42 0.27,0.89 0.27,1.41 0,0.42 -0.06,0.82 -0.19,1.2 -0.13,0.37 -0.32,0.71 -0.57,1.01 -0.25,0.3 -0.56,0.55 -0.92,0.77 -0.36,0.21 -0.77,0.38 -1.23,0.49 0.23,0.14 0.42,0.32 0.59,0.57 l 3.43,4.74 z m -5.69,-6.32 c 0.46,0 0.87,-0.06 1.23,-0.17 0.36,-0.11 0.65,-0.27 0.89,-0.48 0.24,-0.21 0.42,-0.45 0.53,-0.74 0.12,-0.28 0.18,-0.6 0.18,-0.95 0,-0.7 -0.23,-1.23 -0.69,-1.59 -0.46,-0.36 -1.15,-0.53 -2.08,-0.53 h -1.71 v 4.46 z"
             id="path24"
             style="fill:#ffffff" /><path
             class="g"
             d="m 398.77,282.43 h -3.87 v 10.68 h -1.8 v -10.68 h -3.89 v -1.51 h 9.56 z"
             id="path25"
             style="fill:#ffffff" /><path
             class="g"
             d="m 408.09,291.64 v 1.47 h -7.56 v -12.19 h 7.56 v 1.47 h -5.74 v 3.86 h 4.62 v 1.42 h -4.62 v 3.97 h 5.75 z"
             id="path26"
             style="fill:#ffffff" /></g></g></g></g></svg>
