<?xml version="1.0" encoding="UTF-8"?><svg xmlns="http://www.w3.org/2000/svg" viewBox="0 0 500 500"><defs><style>.f{fill:#27509c;}.g{fill:#5d5d5d;}.h{fill:#2c2f7c;}</style></defs><g id="a"/><g id="b"><g id="c"><g id="d"><path class="f" d="M416.71,207.08c-.76,.23-1.53,.53-2.29,.92s-1.37,.84-1.91,1.37c-.61,.53-1.07,1.14-1.53,1.83-.38,.69-.76,1.37-.99,2.14s-.31,1.53-.31,2.37,.08,1.6,.31,2.37c.23,.76,.53,1.45,.99,2.14,.38,.69,.92,1.3,1.53,1.83,.61,.53,1.22,.99,1.91,1.37s1.45,.69,2.29,.92c.84,.23,1.68,.31,2.52,.31s1.76-.08,2.52-.31c.84-.23,1.6-.53,2.29-.92s1.37-.84,1.91-1.37c.61-.53,1.07-1.14,1.53-1.83,.38-.69,.76-1.37,.99-2.14s.38-1.53,.38-2.37-.15-1.6-.38-2.37-.53-1.45-.99-2.14c-.38-.69-.92-1.3-1.53-1.83s-1.22-.99-1.91-1.37-1.45-.69-2.29-.92c-.84-.23-1.68-.31-2.52-.31-.84-.08-1.68,.08-2.52,.31m6.34,10.61c-.15-.23-.31-.46-.46-.69s-.38-.38-.61-.46c.38-.15,.69-.31,.99-.53s.53-.46,.69-.69,.31-.53,.38-.84,.15-.61,.15-.99c0-.53-.08-.99-.31-1.37-.15-.38-.46-.76-.92-.99s-.92-.46-1.53-.61c-.61-.15-1.37-.23-2.21-.23h-4.5v10.84h3.43v-3.66h.38c.23,0,.38,0,.46,.08s.23,.15,.31,.31l1.14,2.82c.15,.31,.53,.46,.99,.46h2.75c-.69,.61-1.45,1.07-2.29,1.37s-1.76,.46-2.75,.46c-1.07,0-1.98-.15-2.9-.53s-1.68-.92-2.37-1.53c-.69-.69-1.14-1.45-1.53-2.29s-.61-1.83-.61-2.9c0-.99,.15-1.98,.61-2.9,.38-.92,.92-1.68,1.53-2.37,.69-.69,1.45-1.22,2.37-1.6s1.91-.61,2.9-.61c.69,0,1.37,.08,1.98,.23,.61,.15,1.22,.38,1.76,.69s1.07,.69,1.53,1.14,.84,.92,1.14,1.45c.31,.53,.61,1.14,.76,1.76s.23,1.3,.23,1.98c0,.99-.15,1.91-.53,2.82s-.84,1.6-1.53,2.29l-1.45-2.9Zm-4.81-2.44v-2.67h1.07c.31,0,.61,0,.84,.08s.38,.15,.46,.23c.08,.08,.15,.23,.23,.38,0,.15,.08,.31,.08,.53s0,.38-.08,.61c0,.15-.08,.31-.23,.46-.15,.08-.31,.23-.53,.23-.23,.08-.53,.08-.99,.08-.08,.08-.84,.08-.84,.08Z"/></g><g id="e"><path class="h" d="M302.29,254.52v.72c-.03-.47,0-.72,0-.72Z"/><path class="h" d="M113.03,222.82s-.01,.01-.03,.01c-3.9-2.91-7.27-5.45-9.69-7.28,.01,0,.03-.01,.04-.01,2.42,1.83,5.78,4.36,9.65,7.26,.01,0,.01,.01,.03,.03Z"/><path class="h" d="M113,222.79c-3.87-2.89-7.23-5.42-9.65-7.26-.01,0-.03,.01-.04,.01,2.42,1.83,5.8,4.38,9.69,7.28,.01,0,.01-.01,.03-.01-.01-.01-.01-.03-.03-.03Z"/></g><path class="h" d="M302.29,228.67v.59s.03-.23,0-.59Z"/><path class="f" d="M404.62,270.85l-7.02-11.47-4.36-7.12c-.7-1.16-1.53-2.13-2.48-2.92-.94-.8-1.94-1.49-3.04-2.02,2.28-.86,4.28-1.97,6.01-3.31,1.75-1.33,3.21-2.87,4.42-4.58,1.19-1.7,2.09-3.56,2.7-5.57,.6-2.01,.91-4.15,.91-6.41,0-2.97-.51-5.72-1.54-8.23-1.02-2.53-2.65-4.73-4.9-6.56-2.26-1.86-5.17-3.29-8.72-4.35-3.56-1.03-7.87-1.54-7.24-1.54H184.02c-6.74,0-6.98,.84-7.04,1.31v37.15c-.01,5.46-1.77,10.6-7.6,10.83-5.82,.23-15.02-5.9-15.02-5.9,0,0-24.65-18.27-40.77-30.32-.01,0-.01,.01-.03,.01-3.91-2.92-7.3-5.48-9.73-7.31,.01,0,.03-.01,.04-.01-.01-.01-.03-.01-.04-.03-2.01-1.54-3.35-2.58-3.75-2.93-3.91-3.39-7.83-2.76-7.83-2.76h-19.01c-2.3,0-2.08,1.53-2.08,1.53v66.22c0,1.99,1.54,1.77,1.54,1.77h22.39c1.54,0,1.23-1.93,1.23-1.93,0,0-.01-3.13-.03-7.66-.01-8.09-.04-20.56-.04-27.41,0-7.52,3.79-9.32,6.01-9.71,.92-.17,1.57-.11,1.57-.11,0,0,2.38-.92,15.02,5.3,8.11,3.96,29.8,19.89,44.36,30.81,3.16,2.38,5.97,4.51,8.25,6.23,3.6,2.74,5.82,4.47,5.82,4.47l21.77-.03c1.54,0,1.31-1.7,1.31-1.7v-52.88c.28-.07,.47-.09,.47-.09l40.78,.03v54.58h21.09c2.45,0,2.3-1.99,2.3-1.99v-46.86c0-5.73,6.51-5.89,6.51-5.89h26.76c4.62,0,5.34,2.95,5.44,4.23,.03,.36,0,.59,0,.59v50.23h21.36c1.12,.01,2.02-.89,2.02-2.02v-23.78h44.23c1.23-.01,2.21,.18,2.89,.56,.68,.39,1.29,1.03,1.79,1.91l7.5,13.08,4.1,7.19c.16,.31,.32,.59,.46,.83,1.19,2.06,1.86,2.22,5.38,2.22h14.66l-3.47-5.68Zm-18.85-38.42c-.09,.32-.24,.72-.47,1.16-.64,1.25-1.18,1.82-2.17,2.8-.99,1-2.26,1.77-3.8,2.33-1.55,.55-3.43,.84-5.62,.84h-46.62v-18.08h46.62c4.18-.01,7.27,.84,9.26,2.56,1.9,1.66,2.91,3.92,2.97,6.81,.01,.12,.01,.24,.01,.37,0,.16,0,.58-.19,1.19Z"/><g><path class="g" d="M205.31,291.59v1.52h-6.98v-12.19h1.81v10.67h5.17Z"/><path class="g" d="M217.9,287.01c0,.91-.15,1.75-.44,2.51s-.7,1.42-1.24,1.97c-.53,.55-1.17,.98-1.91,1.28-.74,.31-1.56,.46-2.47,.46s-1.72-.15-2.46-.46c-.74-.31-1.38-.73-1.91-1.28-.53-.55-.94-1.21-1.24-1.97s-.44-1.6-.44-2.51,.15-1.74,.44-2.5,.71-1.42,1.24-1.97c.53-.55,1.17-.98,1.91-1.29,.74-.31,1.57-.46,2.46-.46s1.73,.15,2.47,.46c.74,.31,1.38,.74,1.91,1.29,.53,.55,.94,1.21,1.24,1.97s.44,1.6,.44,2.5Zm-1.85,0c0-.73-.1-1.38-.3-1.95-.2-.58-.48-1.07-.85-1.47-.36-.4-.81-.71-1.32-.93s-1.1-.32-1.74-.32-1.22,.11-1.74,.32-.96,.52-1.33,.93c-.37,.4-.65,.89-.85,1.47-.2,.58-.3,1.23-.3,1.95s.1,1.38,.3,1.96,.48,1.06,.85,1.46c.37,.4,.81,.71,1.33,.92,.52,.21,1.1,.32,1.74,.32s1.22-.11,1.74-.32c.52-.21,.96-.52,1.32-.92,.37-.4,.65-.89,.85-1.46,.2-.57,.3-1.23,.3-1.96Z"/><path class="g" d="M230.11,287.17v4.75c-.62,.44-1.27,.77-1.97,.99-.7,.22-1.45,.33-2.28,.33-.98,0-1.87-.15-2.67-.46-.8-.31-1.47-.73-2.03-1.28-.56-.55-.99-1.21-1.29-1.97-.3-.76-.45-1.6-.45-2.52s.15-1.77,.44-2.53,.71-1.42,1.25-1.97c.54-.55,1.2-.97,1.97-1.27s1.64-.45,2.6-.45c.49,0,.94,.04,1.35,.11s.8,.18,1.16,.31,.69,.3,.99,.49c.3,.19,.58,.4,.85,.64l-.52,.82c-.08,.13-.18,.21-.31,.25-.13,.03-.27,0-.42-.09-.15-.09-.31-.18-.49-.3s-.39-.22-.64-.32c-.25-.1-.53-.18-.86-.25-.33-.07-.72-.1-1.16-.1-.67,0-1.27,.11-1.81,.33s-1,.53-1.37,.94-.67,.9-.87,1.47c-.2,.57-.31,1.22-.31,1.93s.11,1.42,.32,2.01c.21,.59,.52,1.09,.91,1.5s.87,.72,1.43,.94c.56,.22,1.19,.32,1.89,.32,.27,0,.53-.02,.76-.05,.23-.03,.46-.07,.68-.13,.21-.06,.42-.13,.62-.21,.2-.09,.4-.18,.6-.28v-2.55h-1.8c-.11,0-.21-.03-.28-.1s-.11-.15-.11-.25v-1.03h3.82Z"/><path class="g" d="M236.78,277.37l-2.77,2.43c-.1,.08-.18,.13-.26,.15-.08,.02-.18,.03-.31,.03h-1.2l1.92-2.33c.05-.07,.1-.12,.15-.16,.05-.04,.1-.06,.16-.08s.12-.03,.19-.04c.07,0,.16,0,.26,0h1.87Zm-2.42,15.74h-1.82v-12.19h1.82v12.19Z"/><path class="g" d="M243.68,282.9c-.06,.1-.12,.17-.18,.21-.06,.04-.14,.07-.24,.07s-.22-.05-.35-.14c-.13-.09-.29-.2-.49-.31-.19-.12-.43-.22-.7-.31-.27-.09-.6-.14-.98-.14-.36,0-.67,.05-.94,.14-.27,.09-.49,.22-.68,.38s-.32,.35-.41,.57c-.09,.22-.14,.45-.14,.71,0,.33,.08,.6,.25,.82,.17,.21,.39,.4,.66,.55,.27,.15,.58,.29,.93,.4s.7,.23,1.06,.35,.72,.26,1.06,.42,.65,.36,.93,.6c.27,.24,.49,.53,.66,.88s.25,.77,.25,1.28c0,.54-.09,1.04-.27,1.51-.19,.47-.45,.88-.8,1.23s-.78,.63-1.29,.83c-.51,.2-1.09,.3-1.74,.3-.39,0-.77-.04-1.14-.11-.37-.08-.72-.18-1.04-.32-.33-.14-.63-.31-.92-.5-.29-.19-.54-.41-.77-.66l.52-.86c.05-.07,.11-.13,.18-.17,.07-.05,.15-.07,.24-.07,.12,0,.26,.06,.41,.19,.15,.12,.35,.26,.58,.41,.23,.15,.5,.29,.82,.41,.32,.12,.71,.19,1.17,.19,.37,0,.71-.05,1-.15,.29-.1,.54-.24,.74-.42,.2-.18,.36-.41,.46-.67,.11-.26,.16-.55,.16-.87,0-.36-.08-.65-.25-.87s-.38-.42-.65-.57c-.27-.15-.58-.28-.92-.39-.35-.11-.7-.22-1.06-.34-.36-.12-.72-.25-1.06-.4-.35-.15-.65-.35-.93-.6-.27-.25-.49-.55-.65-.92-.16-.37-.25-.83-.25-1.37,0-.44,.08-.86,.25-1.26s.42-.77,.74-1.08c.33-.32,.73-.57,1.2-.76s1.02-.28,1.63-.28c.68,0,1.31,.11,1.89,.33,.57,.22,1.07,.53,1.5,.94l-.44,.86Z"/><path class="g" d="M254.91,282.43h-3.87v10.68h-1.8v-10.68h-3.89v-1.51h9.56v1.51Z"/><path class="g" d="M258.49,293.11h-1.82v-12.19h1.82v12.19Z"/><path class="g" d="M270.01,290.49c.1,0,.19,.04,.26,.12l.71,.78c-.5,.59-1.1,1.04-1.82,1.37-.72,.32-1.58,.48-2.59,.48-.88,0-1.68-.15-2.4-.46-.72-.31-1.33-.73-1.83-1.28-.51-.55-.9-1.21-1.18-1.97s-.42-1.6-.42-2.52,.15-1.76,.44-2.52,.7-1.42,1.23-1.97c.53-.55,1.16-.98,1.89-1.28,.73-.31,1.54-.46,2.43-.46s1.64,.14,2.31,.42c.67,.28,1.26,.66,1.76,1.13l-.59,.84c-.04,.06-.09,.11-.15,.15-.06,.04-.14,.06-.23,.06-.11,0-.23-.05-.38-.16-.14-.11-.33-.23-.57-.36-.23-.13-.53-.25-.87-.36s-.78-.16-1.29-.16c-.61,0-1.16,.11-1.66,.32-.5,.21-.94,.52-1.3,.92-.36,.4-.65,.89-.85,1.47-.2,.58-.3,1.24-.3,1.97s.11,1.4,.32,1.98c.21,.58,.5,1.07,.86,1.47,.37,.4,.8,.71,1.3,.92,.5,.21,1.04,.31,1.61,.31,.35,0,.67-.02,.95-.06s.54-.11,.77-.19c.23-.09,.46-.19,.67-.33,.21-.13,.42-.29,.62-.48,.04-.04,.09-.07,.14-.1,.05-.02,.11-.04,.16-.04Z"/><path class="g" d="M282.86,293.11h-1.39c-.16,0-.29-.04-.39-.12-.1-.08-.18-.18-.22-.31l-1.08-2.83h-5.37l-1.08,2.83c-.04,.11-.11,.2-.22,.29-.11,.09-.24,.13-.39,.13h-1.39l4.86-12.19h1.83l4.86,12.19Zm-3.57-4.54l-1.81-4.73c-.13-.32-.26-.73-.39-1.22-.06,.24-.13,.47-.19,.68-.06,.21-.13,.4-.19,.56l-1.8,4.71h4.38Z"/><path class="g" d="M295.66,291.64v1.47h-7.56v-12.19h7.56v1.47h-5.74v3.86h4.62v1.42h-4.62v3.97h5.75Z"/><path class="g" d="M309.98,282.43h-3.87v10.68h-1.8v-10.68h-3.89v-1.51h9.56v1.51Z"/><path class="g" d="M320.88,293.11h-1.61c-.32,0-.56-.13-.7-.38l-3.01-4.23c-.1-.14-.2-.24-.31-.3s-.28-.09-.51-.09h-1.18v5h-1.81v-12.19h3.51c.79,0,1.46,.08,2.03,.24,.57,.16,1.04,.39,1.41,.69,.37,.3,.65,.65,.82,1.07s.27,.89,.27,1.41c0,.42-.06,.82-.19,1.2-.13,.37-.32,.71-.57,1.01-.25,.3-.56,.55-.92,.77-.36,.21-.77,.38-1.23,.49,.23,.14,.42,.32,.59,.57l3.43,4.74Zm-5.69-6.32c.46,0,.87-.06,1.23-.17s.65-.27,.89-.48c.24-.21,.42-.45,.53-.74,.12-.28,.18-.6,.18-.95,0-.7-.23-1.23-.69-1.59s-1.15-.53-2.08-.53h-1.71v4.46h1.65Z"/><path class="g" d="M332.49,293.11h-1.39c-.16,0-.29-.04-.39-.12-.1-.08-.18-.18-.22-.31l-1.08-2.83h-5.37l-1.08,2.83c-.04,.11-.11,.2-.22,.29-.11,.09-.24,.13-.39,.13h-1.39l4.86-12.19h1.83l4.86,12.19Zm-3.57-4.54l-1.81-4.73c-.13-.32-.26-.73-.39-1.22-.06,.24-.13,.47-.19,.68-.06,.21-.13,.4-.19,.56l-1.8,4.71h4.38Z"/><path class="g" d="M343.99,280.91v12.19h-.92c-.14,0-.26-.02-.35-.08-.09-.05-.19-.13-.28-.25l-6.88-8.91c.01,.15,.02,.3,.03,.45,0,.15,.01,.29,.01,.42v8.36h-1.59v-12.19h.93c.16,0,.28,.02,.36,.06,.08,.04,.17,.12,.26,.25l6.9,8.91c-.02-.16-.03-.32-.04-.48,0-.15-.01-.3-.01-.44v-8.3h1.58Z"/><path class="g" d="M353.31,282.9c-.06,.1-.12,.17-.18,.21-.06,.04-.14,.07-.24,.07s-.22-.05-.35-.14c-.13-.09-.29-.2-.49-.31-.19-.12-.43-.22-.7-.31-.27-.09-.6-.14-.98-.14-.36,0-.67,.05-.94,.14-.27,.09-.49,.22-.68,.38s-.32,.35-.41,.57c-.09,.22-.14,.45-.14,.71,0,.33,.08,.6,.25,.82,.17,.21,.39,.4,.66,.55,.27,.15,.58,.29,.93,.4s.7,.23,1.06,.35,.72,.26,1.06,.42,.65,.36,.93,.6c.27,.24,.49,.53,.66,.88s.25,.77,.25,1.28c0,.54-.09,1.04-.27,1.51-.19,.47-.45,.88-.8,1.23s-.78,.63-1.29,.83c-.51,.2-1.09,.3-1.74,.3-.39,0-.77-.04-1.14-.11-.37-.08-.72-.18-1.04-.32-.33-.14-.63-.31-.92-.5-.29-.19-.54-.41-.77-.66l.52-.86c.05-.07,.11-.13,.18-.17,.07-.05,.15-.07,.24-.07,.12,0,.26,.06,.41,.19,.15,.12,.35,.26,.58,.41,.23,.15,.5,.29,.82,.41,.32,.12,.71,.19,1.17,.19,.37,0,.71-.05,1-.15,.29-.1,.54-.24,.74-.42,.2-.18,.36-.41,.46-.67,.11-.26,.16-.55,.16-.87,0-.36-.08-.65-.25-.87s-.38-.42-.65-.57c-.27-.15-.58-.28-.92-.39-.35-.11-.7-.22-1.06-.34-.36-.12-.72-.25-1.06-.4-.35-.15-.65-.35-.93-.6-.27-.25-.49-.55-.65-.92-.16-.37-.25-.83-.25-1.37,0-.44,.08-.86,.25-1.26s.42-.77,.74-1.08c.33-.32,.73-.57,1.2-.76s1.02-.28,1.63-.28c.68,0,1.31,.11,1.89,.33,.57,.22,1.07,.53,1.5,.94l-.44,.86Z"/><path class="g" d="M359.94,280.91c.78,0,1.46,.09,2.04,.27,.58,.18,1.06,.44,1.43,.77,.38,.33,.66,.73,.84,1.2s.28,.99,.28,1.56-.1,1.1-.3,1.57c-.2,.48-.49,.89-.87,1.24-.38,.35-.86,.61-1.44,.8-.57,.19-1.24,.28-1.98,.28h-1.88v4.49h-1.81v-12.19h3.69Zm0,6.27c.46,0,.86-.06,1.21-.18s.64-.29,.87-.51,.41-.48,.53-.78,.18-.64,.18-1.01c0-.74-.23-1.32-.69-1.75s-1.16-.64-2.1-.64h-1.88v4.86h1.88Z"/><path class="g" d="M377.87,287.01c0,.91-.15,1.75-.44,2.51s-.7,1.42-1.24,1.97c-.53,.55-1.17,.98-1.91,1.28-.74,.31-1.56,.46-2.47,.46s-1.72-.15-2.46-.46c-.74-.31-1.38-.73-1.91-1.28-.53-.55-.94-1.21-1.24-1.97s-.44-1.6-.44-2.51,.15-1.74,.44-2.5,.71-1.42,1.24-1.97c.53-.55,1.17-.98,1.91-1.29,.74-.31,1.57-.46,2.46-.46s1.73,.15,2.47,.46c.74,.31,1.38,.74,1.91,1.29,.53,.55,.94,1.21,1.24,1.97s.44,1.6,.44,2.5Zm-1.85,0c0-.73-.1-1.38-.3-1.95-.2-.58-.48-1.07-.85-1.47-.36-.4-.81-.71-1.32-.93s-1.1-.32-1.74-.32-1.22,.11-1.74,.32-.96,.52-1.33,.93c-.37,.4-.65,.89-.85,1.47-.2,.58-.3,1.23-.3,1.95s.1,1.38,.3,1.96,.48,1.06,.85,1.46c.37,.4,.81,.71,1.33,.92,.52,.21,1.1,.32,1.74,.32s1.22-.11,1.74-.32c.52-.21,.96-.52,1.32-.92,.37-.4,.65-.89,.85-1.46,.2-.57,.3-1.23,.3-1.96Z"/><path class="g" d="M389.28,293.11h-1.61c-.32,0-.56-.13-.7-.38l-3.01-4.23c-.1-.14-.2-.24-.31-.3s-.28-.09-.51-.09h-1.18v5h-1.81v-12.19h3.51c.79,0,1.46,.08,2.03,.24,.57,.16,1.04,.39,1.41,.69,.37,.3,.65,.65,.82,1.07s.27,.89,.27,1.41c0,.42-.06,.82-.19,1.2-.13,.37-.32,.71-.57,1.01-.25,.3-.56,.55-.92,.77-.36,.21-.77,.38-1.23,.49,.23,.14,.42,.32,.59,.57l3.43,4.74Zm-5.69-6.32c.46,0,.87-.06,1.23-.17s.65-.27,.89-.48c.24-.21,.42-.45,.53-.74,.12-.28,.18-.6,.18-.95,0-.7-.23-1.23-.69-1.59s-1.15-.53-2.08-.53h-1.71v4.46h1.65Z"/><path class="g" d="M398.77,282.43h-3.87v10.68h-1.8v-10.68h-3.89v-1.51h9.56v1.51Z"/><path class="g" d="M408.09,291.64v1.47h-7.56v-12.19h7.56v1.47h-5.74v3.86h4.62v1.42h-4.62v3.97h5.75Z"/></g></g></g></svg>