<?xml version="1.0" encoding="UTF-8"?><svg id="Camada_1" xmlns="http://www.w3.org/2000/svg" viewBox="0 0 1014.72 177.8"><defs><style>.cls-1{fill:#27509c;}</style></defs><g id="BRNCO"><path class="cls-1" d="M218.64,2.68c0-2.68-2.68-2.54-2.68-2.54h-36.82c-2.41,0-2.28,2.68-2.28,2.68v61.59c0,9.1-2.95,17.67-12.72,18.07-9.77,.4-25.17-9.91-25.17-9.91,0,0-85.82-63.6-90.64-67.75C41.78-.8,35.22,.13,35.22,.13H3.49C-.26,.13,0,2.68,0,2.68V113.27c0,3.35,2.68,2.95,2.68,2.95H40.17c2.54,0,2.01-3.21,2.01-3.21,0,0-.13-40.7-.13-58.64s12.72-16.33,12.72-16.33c0,0,3.88-1.61,25.17,8.84,21.15,10.44,97.6,69.35,97.6,69.35h39.09c2.54,0,2.14-2.81,2.14-2.81l-.13-110.72h0Z"/><path class="cls-1" d="M1008.16,91.18c-3.75-3.21-15.26-7.9-15.26-7.9l-95.19-36.28s-8.7-3.21-8.7-10.44,10.98-6.16,10.98-6.16h63.19V0h-116.48s-22.09,.67-22.09,15.26,19.01,20.22,19.01,20.22l80.73,30.93s16.74,7.9,16.74,13.66-5.36,7.5-14.46,7.5h-92.51s-5.36-.4-5.36,4.28v21.15s.8,2.81,4.95,2.81h156.11s14.06,1.07,21.29-6.83c7.23-7.63,.8-14.46-2.95-17.81"/><path class="cls-1" d="M340.34,105.37c-39.23,0-71.09-21.15-71.09-47.4s31.86-47.4,71.09-47.4,71.09,21.15,71.09,47.4-31.86,47.4-71.09,47.4m474.49-32V0h-38.29V69.08s6.29,33.2-59.98,33.2-62.93-33.2-62.93-33.2V22.22C653.63,.54,632.88,0,632.88,0H340.87C278.75,0,228.28,25.71,228.28,57.44s50.34,57.44,112.6,57.44,112.6-25.71,112.6-57.44c0-9.24-4.28-17.81-11.65-25.57h0c-6.16-6.16,1.47-7.1,1.47-7.1h65.47V115.94h35.35c4.02,0,3.75-3.35,3.75-3.35V34.41c0-9.64,10.84-9.91,10.84-9.91h47.53c9.91,0,9.1,8.03,9.1,8.03v42.44s-4.28,39.76,101.62,39.76c105.77,.13,97.87-41.37,97.87-41.37"/><path class="cls-1" d="M994.1,.54c-1.34,.4-2.68,.8-3.75,1.47-1.2,.67-2.28,1.47-3.21,2.41-.94,.94-1.74,1.87-2.54,3.08-.67,1.07-1.2,2.28-1.61,3.61s-.54,2.68-.54,4.02,.13,2.68,.54,4.02c.4,1.34,.94,2.41,1.61,3.61,.67,1.07,1.47,2.14,2.54,3.08,.94,.94,2.01,1.74,3.21,2.41s2.41,1.2,3.75,1.47c1.34,.4,2.81,.54,4.28,.54s2.95-.13,4.28-.54,2.68-.8,3.88-1.47,2.28-1.47,3.21-2.41c.94-.94,1.87-2.01,2.54-3.08s1.2-2.28,1.61-3.61,.54-2.68,.54-4.02-.27-2.68-.54-4.02c-.4-1.34-.94-2.54-1.61-3.61-.67-1.07-1.47-2.14-2.54-3.08s-2.01-1.74-3.21-2.41-2.41-1.2-3.88-1.47C1001.33,.13,999.85,0,998.38,0c-1.47,0-2.81,.27-4.28,.54m10.71,17.81c-.27-.4-.54-.8-.8-1.2s-.67-.67-1.07-.8c.67-.27,1.2-.54,1.61-.8,.4-.4,.8-.8,1.07-1.2s.54-.94,.67-1.47,.27-1.07,.27-1.61c0-.8-.13-1.61-.4-2.28s-.8-1.2-1.47-1.74-1.47-.8-2.54-1.07c-1.07-.27-2.28-.4-3.75-.4h-7.63V23.97h5.76v-6.16h.67c.27,0,.67,0,.8,.13s.4,.27,.54,.54l2.01,4.69c.27,.54,.8,.8,1.61,.8h4.69c-1.07,.94-2.41,1.74-3.88,2.28-1.47,.54-2.95,.8-4.69,.8s-3.35-.27-4.95-.94c-1.47-.67-2.81-1.47-4.02-2.54-1.07-1.07-2.01-2.41-2.68-3.88s-.94-3.08-.94-4.82,.27-3.35,.94-4.82,1.47-2.81,2.68-3.88c1.07-1.07,2.41-2.01,4.02-2.68,1.47-.67,3.08-.94,4.95-.94,1.2,0,2.28,.13,3.35,.4,1.07,.27,2.01,.67,2.95,1.2s1.74,1.2,2.54,1.87,1.34,1.61,2.01,2.54c.54,.94,.94,1.87,1.2,2.95,.27,1.07,.4,2.14,.4,3.35,0,1.74-.27,3.21-.94,4.69-.67,1.47-1.47,2.68-2.54,3.75l-2.41-4.95Zm-8.17-4.02v-4.42h1.74c.54,0,1.07,0,1.34,.13,.4,.13,.67,.27,.8,.4,.13,.13,.27,.4,.27,.67s.13,.54,.13,.94,0,.67-.13,.94c0,.27-.13,.54-.4,.67s-.54,.27-.94,.4-.94,.13-1.61,.13l-1.2,.13h0Z"/><path class="cls-1" d="M1013.51,164.01c-.54-1.07-1.47-2.14-2.68-3.08s-3.21-1.87-5.76-2.95c-2.41-.94-4.02-1.61-4.82-2.14-.94-.54-1.61-1.2-2.01-1.74-.4-.67-.54-1.34-.54-2.28,0-1.34,.54-2.28,1.47-3.08,.94-.8,2.41-1.2,4.28-1.2,2.54,0,5.36,.67,8.57,1.87l1.87-4.55c-3.35-1.47-6.83-2.14-10.31-2.14s-6.43,.8-8.57,2.41c-2.14,1.61-3.21,3.88-3.21,6.69,0,2.28,.67,4.15,2.01,5.76,1.34,1.61,3.61,3.08,6.96,4.28,3.21,1.2,5.36,2.28,6.29,3.08,1.07,.8,1.47,2.01,1.47,3.21,0,1.47-.54,2.54-1.61,3.35s-2.81,1.2-5.09,1.2c-1.61,0-3.35-.27-5.09-.67-1.87-.4-3.61-.94-5.22-1.74v5.22c2.54,1.2,5.89,1.74,10.04,1.74s7.23-.8,9.64-2.54c2.28-1.74,3.48-4.02,3.48-7.1-.27-1.07-.54-2.41-1.2-3.61m-52.88-13.25c1.74-2.14,4.42-3.21,8.03-3.21s6.16,1.07,7.9,3.21c1.74,2.14,2.68,5.36,2.68,9.51s-.94,7.36-2.68,9.51-4.42,3.21-7.9,3.21-6.16-1.07-7.9-3.21c-1.74-2.14-2.68-5.36-2.68-9.51-.13-4.15,.8-7.36,2.54-9.51m20.35-3.35c-2.95-3.08-7.1-4.55-12.45-4.55s-9.64,1.47-12.59,4.55c-2.95,2.95-4.42,7.36-4.42,12.85s1.47,9.91,4.42,12.99c2.95,3.08,7.1,4.55,12.45,4.55s9.51-1.47,12.45-4.55c2.95-3.08,4.42-7.36,4.42-12.85,.13-5.62-1.34-10.04-4.28-12.99m-40.43,.8c1.34,.4,2.68,.94,3.88,1.47l2.14-4.69c-3.08-1.47-6.56-2.14-10.18-2.14s-6.56,.67-9.1,2.14c-2.54,1.34-4.55,3.48-5.89,6.02-1.34,2.54-2.01,5.76-2.01,9.24,0,5.62,1.47,9.91,4.28,12.85,2.81,2.95,6.83,4.55,12.18,4.55,3.61,0,6.83-.54,9.64-1.47v-4.69c-1.61,.4-3.08,.8-4.42,1.07-1.47,.27-2.95,.4-4.42,.4-3.48,0-6.29-1.07-8.03-3.21-1.87-2.14-2.81-5.36-2.81-9.51s.94-7.1,2.95-9.37c2.01-2.28,4.55-3.35,8.03-3.35,1.07,0,2.41,.27,3.75,.67m-29.59-4.82h-5.89v33.87h5.89v-33.87Zm-32.13,33.87l10.84-28.25h.27c0,.54-.13,2.14-.27,4.95-.13,2.68-.13,4.95-.13,6.56v16.74h5.62v-33.87h-8.3l-10.31,26.91h-.13l-10.04-26.91h-8.3v33.87h5.36v-16.47c0-3.75-.13-7.63-.4-11.78h.27l10.44,28.38,5.09-.13h0Zm-41.77-13.52l8.57,13.52h6.69l-10.18-15c4.69-1.87,6.96-4.82,6.96-8.97,0-3.35-1.07-5.76-3.35-7.36-2.28-1.61-5.62-2.41-10.31-2.41h-10.18v33.87h5.89v-13.52l5.89-.13h0Zm-5.89-15.66h3.88c2.68,0,4.69,.4,6.02,1.2s2.01,2.14,2.01,4.15c0,1.87-.67,3.35-1.87,4.28s-3.21,1.47-6.02,1.47h-4.15l.13-11.11h0Zm-24.5-7.5c1.2-.8,2.54-2.01,4.28-3.48s2.95-2.68,3.88-3.61v-.54h-6.69c-.54,.94-1.34,2.01-2.41,3.35s-2.01,2.54-2.95,3.61v.54l3.88,.13h0Zm10.44,32h-14.59v-10.71h13.52v-4.69h-13.52v-9.24h14.46v-4.69h-20.35v33.87h20.35v-4.55h.13Zm-36.95-24.5h10.58v-4.69h-27.04v4.69h10.58v29.19h5.89v-29.19h0Zm-34.41,15.93c-.54-1.07-1.47-2.14-2.68-3.08-1.2-.94-3.21-1.87-5.76-2.95-2.41-.94-4.02-1.61-4.95-2.14s-1.61-1.2-2.01-1.74c-.4-.67-.67-1.34-.67-2.28,0-1.34,.54-2.28,1.47-3.08s2.41-1.2,4.28-1.2c2.54,0,5.36,.67,8.57,1.87l1.87-4.55c-3.35-1.47-6.83-2.14-10.31-2.14s-6.43,.8-8.57,2.41c-2.14,1.61-3.21,3.88-3.21,6.69,0,2.28,.67,4.15,2.01,5.76,1.34,1.61,3.61,3.08,6.96,4.28,3.21,1.2,5.36,2.28,6.29,3.08,1.07,.8,1.47,2.01,1.47,3.21,0,1.47-.54,2.54-1.61,3.35s-2.81,1.2-5.09,1.2c-1.61,0-3.35-.27-5.09-.67-1.87-.4-3.61-.94-5.22-1.74v5.22c2.54,1.2,5.89,1.74,10.04,1.74s7.23-.8,9.64-2.54c2.28-1.74,3.48-4.02,3.48-7.1-.13-1.07-.4-2.41-.94-3.61m-46.99-.94l3.21-8.84c.8-2.28,1.47-4.28,2.01-6.29,.13,.67,.4,1.61,.94,2.95,.4,1.34,.8,2.28,1.07,2.95l3.35,9.24h-10.58Zm21.82,14.19l-13.52-34.01h-6.29l-13.39,34.01h6.16l3.48-9.37h13.79l3.61,9.37h6.16Zm-54.89,0l10.84-28.25h.27c0,.54-.13,2.14-.27,4.95-.13,2.68-.13,4.95-.13,6.56v16.74h5.62v-33.87h-8.3l-10.31,26.91h-.13l-10.04-26.91h-8.3v33.87h5.36v-16.47c0-3.75-.13-7.63-.4-11.78h.27l10.44,28.38,5.09-.13h0Zm-29.05-4.69h-14.46v-10.71h13.52v-4.69h-13.52v-9.24h14.46v-4.69h-20.35v33.87h20.35v-4.55Zm-36.95-24.5h10.58v-4.69h-27.04v4.69h10.58v29.19h5.89v-29.19h0Zm-20.75,15.93c-.54-1.07-1.47-2.14-2.68-3.08-1.2-.94-3.21-1.87-5.76-2.95-2.41-.94-4.02-1.61-4.82-2.14-.94-.54-1.61-1.2-2.01-1.74s-.67-1.34-.67-2.28c0-1.34,.54-2.28,1.47-3.08s2.41-1.2,4.28-1.2c2.54,0,5.36,.67,8.57,1.87l1.87-4.55c-3.35-1.47-6.83-2.14-10.31-2.14s-6.43,.8-8.57,2.41c-2.14,1.61-3.21,3.88-3.21,6.69,0,2.28,.67,4.15,2.01,5.76,1.34,1.61,3.61,3.08,6.96,4.28,3.21,1.2,5.36,2.28,6.29,3.08,1.07,.8,1.47,2.01,1.47,3.21,0,1.47-.54,2.54-1.61,3.35-1.07,.8-2.81,1.2-5.09,1.2-1.61,0-3.35-.27-5.22-.67s-3.61-.94-5.22-1.74v5.22c2.54,1.2,5.89,1.74,10.04,1.74s7.23-.8,9.64-2.54c2.28-1.74,3.48-4.02,3.48-7.1-.13-1.07-.4-2.41-.94-3.61m-29.86-20.62h-5.89v33.87h5.89v-33.87Zm-14.33,20.62c-.54-1.07-1.47-2.14-2.68-3.08-1.2-.94-3.21-1.87-5.76-2.95-2.41-.94-4.02-1.61-4.82-2.14-.94-.54-1.47-1.2-2.01-1.74-.4-.67-.54-1.34-.54-2.28,0-1.34,.54-2.28,1.47-3.08,.94-.8,2.41-1.2,4.28-1.2,2.54,0,5.36,.67,8.57,1.87l1.87-4.55c-3.35-1.47-6.83-2.14-10.31-2.14s-6.43,.8-8.57,2.41c-2.14,1.61-3.21,3.88-3.21,6.69,0,2.28,.67,4.15,2.01,5.76,1.34,1.61,3.61,3.08,6.96,4.28,3.21,1.2,5.36,2.28,6.29,3.08,1.07,.8,1.47,2.01,1.47,3.21,0,1.47-.54,2.54-1.61,3.35-1.07,.8-2.81,1.2-5.22,1.2-1.61,0-3.35-.27-5.22-.67s-3.61-.94-5.22-1.74v5.22c2.54,1.2,5.89,1.74,10.04,1.74s7.23-.8,9.64-2.54c2.28-1.74,3.48-4.02,3.48-7.1,0-1.07-.27-2.41-.94-3.61"/></g></svg>