<?xml version="1.0" encoding="UTF-8" standalone="no"?>
<svg
   id="VIP_TOOLING"
   viewBox="0 0 757.43 254.03"
   version="1.1"
   sodipodi:docname="logo-notustooling-branco.svg"
   inkscape:version="1.3 (0e150ed6c4, 2023-07-21)"
   xmlns:inkscape="http://www.inkscape.org/namespaces/inkscape"
   xmlns:sodipodi="http://sodipodi.sourceforge.net/DTD/sodipodi-0.dtd"
   xmlns="http://www.w3.org/2000/svg"
   xmlns:svg="http://www.w3.org/2000/svg">
  <sodipodi:namedview
     id="namedview40"
     pagecolor="#505050"
     bordercolor="#ffffff"
     borderopacity="1"
     inkscape:showpageshadow="0"
     inkscape:pageopacity="0"
     inkscape:pagecheckerboard="1"
     inkscape:deskcolor="#505050"
     inkscape:zoom="1.0885316"
     inkscape:cx="338.98877"
     inkscape:cy="20.670047"
     inkscape:window-width="1920"
     inkscape:window-height="1009"
     inkscape:window-x="-8"
     inkscape:window-y="-8"
     inkscape:window-maximized="1"
     inkscape:current-layer="VIP_TOOLING" />
  <defs
     id="defs1">
    <style
       id="style1">.cls-1{fill:#fff;}.cls-2{letter-spacing:-.03em;}.cls-2,.cls-3{fill:#575756;font-family:Lato-Heavy, Lato;font-size:24.97px;font-weight:800;isolation:isolate;}.cls-4{fill:#0a4f9d;}</style>
  </defs>
  <g
     id="g41">
    <g
       id="g16"
       style="fill:#ffffff">
      <path
         class="cls-4"
         d="m 315.36,85.62 c 0,-1.3 -1.2,-1.2 -1.2,-1.2 h -16.3 c -1.1,0 -1,1.3 -1,1.3 v 28.9 c 0,4.3 -1.3,8.3 -5.6,8.5 -4.3,0.2 -11.1,-4.6 -11.1,-4.6 0,0 -37.9,-29.9 -40.1,-31.8 -2.9,-2.6 -5.8,-2.2 -5.8,-2.2 h -14.1 c -1.7,0 -1.5,1.2 -1.5,1.2 v 51.9 c 0,1.5 1.2,1.4 1.2,1.4 h 16.6 c 1.1,0 0.9,-1.5 0.9,-1.5 0,0 -0.1,-19.1 -0.1,-27.5 0,-8.4 5.6,-7.7 5.6,-7.7 0,0 1.7,-0.7 11.1,4.2 9.4,4.9 43.2,32.6 43.2,32.6 h 17.3 c 1.1,0 1,-1.3 1,-1.3 0,0 -0.1,-51 -0.1,-52.2 z"
         id="path1"
         style="fill:#ffffff" />
      <path
         class="cls-4"
         d="m 664.66,127.22 c -1.7,-1.5 -6.7,-3.7 -6.7,-3.7 l -42.2,-17.1 c 0,0 -3.9,-1.5 -3.9,-4.9 0,-3.4 4.9,-2.9 4.9,-2.9 h 28 v -14.3 h -51.5 c 0,0 -9.8,0.3 -9.8,7.1 0,6.8 8.4,9.5 8.4,9.5 l 35.7,14.5 c 0,0 7.4,3.7 7.4,6.4 0,2.7 -2.4,3.5 -6.4,3.5 h -40.9 c 0,0 -2.4,-0.2 -2.4,2 v 10 c 0,0 0.3,1.4 2.2,1.4 h 69.1 c 0,0 6.2,0.5 9.4,-3.2 3.2,-3.6 0.3,-6.8 -1.3,-8.3 z"
         id="path2"
         style="fill:#ffffff" />
      <path
         class="cls-4"
         d="m 579.16,118.82 v -34.5 h -17 v 32.5 c 0,0 2.8,15.6 -26.5,15.6 -29.3,0 -27.8,-15.6 -27.8,-15.6 v -22 c 0,-10.2 -9.2,-10.5 -9.2,-10.5 h -129.2 c -27.5,0 -49.8,12.1 -49.8,27 0,14.9 22.3,27 49.8,27 27.5,0 49.8,-12.1 49.8,-27 0,-4.3 -1.9,-8.4 -5.2,-12 v 0 c -2.7,-2.9 0.7,-3.3 0.7,-3.3 h 29 v 42.8 h 15.6 c 1.8,0 1.7,-1.5 1.7,-1.5 v -36.7 c 0,-4.5 4.8,-4.6 4.8,-4.6 h 21 c 4.4,0 4,3.8 4,3.8 v 19.9 c 0,0 -1.9,18.7 44.9,18.7 46.8,-0.1 43.4,-19.6 43.4,-19.6 z m -209.9,15 c -17.4,0 -31.4,-10 -31.4,-22.2 0,-12.2 14.1,-22.2 31.4,-22.2 17.3,0 31.4,10 31.4,22.2 0,12.2 -14,22.2 -31.4,22.2 z"
         id="path3"
         style="fill:#ffffff" />
      <path
         class="cls-4"
         d="m 149.36,87.52 5.8,-0.1 40.1,-0.7 5.8,-0.1 0.1,5.7 -5.8,2 -40.1,0.7 -5.8,-1.8 z m 40.1,25.5 0.6,33.4 c 0,0.6 -0.4,1 -1,1 l -26.3,0.5 c -0.6,0 -1,-0.4 -1.1,-1 l -0.6,-33.4 -3.7,0.1 c -1,0 -1.9,-0.8 -1.9,-1.9 v -2.7 c 1.9,-0.3 3.4,-2 3.3,-4 0,-2 -1.5,-3.6 -3.5,-3.9 l -0.1,-4.1 c 0,-0.3 0.2,-0.5 0.5,-0.5 l 39.2,-0.7 c 0.3,0 0.5,0.2 0.5,0.5 l 0.1,4.1 c -1.9,0.3 -3.4,2 -3.3,4 0,2 1.5,3.6 3.5,3.9 v 2.7 c 0,1 -0.8,1.9 -1.9,1.9 z m -23.9,43.8 21.1,-0.4 -0.9,-0.4 0.9,-0.2 -0.9,-0.4 0.9,-0.2 -0.9,-0.4 0.9,-0.2 -0.9,-0.4 0.9,-0.2 -0.9,-0.4 0.9,-0.2 -0.9,-0.4 0.9,-0.2 -0.9,-0.4 0.9,-0.2 -0.9,-0.4 0.9,-0.2 -0.9,-0.4 0.9,-0.2 -0.9,-0.4 0.9,-0.2 -0.9,-0.4 0.9,-0.2 -0.9,-0.4 0.9,-0.2 -21.1,0.4 0.9,0.4 -0.9,0.2 0.9,0.4 -0.9,0.2 0.9,0.4 -0.9,0.2 0.9,0.4 -0.9,0.2 0.9,0.4 -0.9,0.2 0.9,0.4 -0.9,0.2 0.9,0.4 -0.9,0.2 0.9,0.4 -0.9,0.2 0.9,0.4 -0.9,0.2 0.9,0.4 -0.9,0.2 0.9,0.4 -0.9,0.2 0.9,0.4 z m 24.9,10.9 v 0.4 c 0,0.9 -0.7,1.6 -1.6,1.6 l -25.1,0.4 c -0.9,0 -1.6,-0.7 -1.6,-1.6 v -0.4 z m -27.7,-9.9 26.7,-0.5 c 0.4,0 0.8,0.3 0.8,0.8 l 0.1,8.4 -28.3,0.5 -0.1,-8.4 c 0,-0.4 0.3,-0.8 0.8,-0.8 z m -21.3,-90.6 66.8,-1.2 0.3,16.8 c 0,1.3 -1,2.3 -2.2,2.3 l -62.2,1.1 c -1.3,0 -2.3,-1 -2.3,-2.2 z"
         id="path4"
         style="fill:#ffffff" />
      <polygon
         class="cls-4"
         points="175.46,201.42 173.46,190.52 173.06,168.32 177.46,168.22 177.86,190.42 176.16,201.42 "
         id="polygon4"
         style="fill:#ffffff" />
      <path
         class="cls-4"
         d="m 193.96,67.62 -36,0.6 -0.4,-20.7 c 12,-2.4 24.1,-2.8 36,-1.4 z"
         id="path5"
         style="fill:#ffffff" />
      <path
         class="cls-4"
         d="m 95.96,150.22 c 8.7,35 43.7,56.9 80.2,51.6 l -1.3,-5.2 c -33.5,4.5 -65.4,-15.6 -73.5,-47.7 -7.9,-31.7 10.3,-64.1 41.3,-76.2 0.4,-0.2 -0.8,-1.1 -0.4,-1.2 l -0.6,-3.2 -0.2,-1.3 c -0.9,0.3 -1.7,0.6 -2.6,1 -33.1,13.3 -51.4,48.1 -42.9,82.2"
         id="path6"
         style="fill:#ffffff" />
      <polygon
         class="cls-4"
         points="96.96,145.42 96.36,142.82 88.76,147.52 90.86,156.02 99.76,156.52 99.16,153.92 "
         id="polygon6"
         style="fill:#ffffff" />
      <polygon
         class="cls-4"
         points="102.46,162.32 101.16,160.02 94.96,166.32 99.36,174.02 108.16,172.32 106.86,170.02 "
         id="polygon7"
         style="fill:#ffffff" />
      <polygon
         class="cls-4"
         points="112.36,177.22 110.46,175.32 106.16,182.92 112.46,189.22 120.56,185.32 118.66,183.42 "
         id="polygon8"
         style="fill:#ffffff" />
      <polygon
         class="cls-4"
         points="125.96,189.02 123.56,187.62 121.46,196.02 129.26,200.52 136.16,194.82 133.76,193.42 "
         id="polygon9"
         style="fill:#ffffff" />
      <polygon
         class="cls-4"
         points="142.36,196.92 139.66,196.22 139.86,204.82 148.66,207.12 153.76,200.02 151.16,199.32 "
         id="polygon10"
         style="fill:#ffffff" />
      <polygon
         class="cls-4"
         points="160.36,200.52 157.56,200.52 160.16,208.72 169.36,208.72 172.36,200.62 169.56,200.62 "
         id="polygon11"
         style="fill:#ffffff" />
      <polygon
         class="cls-4"
         points="96.26,127.72 96.36,125.02 87.76,127.62 87.56,136.42 95.96,139.12 96.06,136.52 "
         id="polygon12"
         style="fill:#ffffff" />
      <polygon
         class="cls-4"
         points="100.36,110.22 101.16,107.62 92.26,108.12 89.66,116.62 96.96,121.32 97.76,118.72 "
         id="polygon13"
         style="fill:#ffffff" />
      <polygon
         class="cls-4"
         points="109.06,94.32 110.46,92.02 101.76,90.22 96.96,97.82 102.76,104.22 104.26,101.92 "
         id="polygon14"
         style="fill:#ffffff" />
      <polygon
         class="cls-4"
         points="121.66,81.02 123.66,79.12 115.76,75.22 109.16,81.42 112.96,89.12 114.96,87.22 "
         id="polygon15"
         style="fill:#ffffff" />
      <polygon
         class="cls-4"
         points="137.36,71.22 139.76,69.92 133.26,64.12 125.16,68.52 126.76,76.92 129.26,75.62 "
         id="polygon16"
         style="fill:#ffffff" />
      <path
         class="cls-4"
         d="m 662.66,84.52 c -0.4,0.1 -0.8,0.3 -1.1,0.5 -0.4,0.2 -0.7,0.5 -1,0.8 -0.3,0.3 -0.5,0.6 -0.8,1 -0.3,0.4 -0.4,0.7 -0.5,1.1 -0.1,0.4 -0.2,0.8 -0.2,1.3 0,0.4 0.1,0.9 0.2,1.3 0.1,0.4 0.3,0.8 0.5,1.1 0.2,0.4 0.5,0.7 0.8,1 0.3,0.3 0.6,0.5 1,0.8 0.4,0.2 0.7,0.4 1.1,0.5 0.4,0.1 0.8,0.2 1.3,0.2 0.5,0 0.9,-0.1 1.3,-0.2 0.4,-0.1 0.8,-0.3 1.2,-0.5 0.4,-0.2 0.7,-0.5 1,-0.8 0.3,-0.3 0.5,-0.6 0.8,-1 0.2,-0.4 0.4,-0.7 0.5,-1.1 0.1,-0.4 0.2,-0.8 0.2,-1.3 0,-0.4 -0.1,-0.9 -0.2,-1.3 -0.1,-0.4 -0.3,-0.8 -0.5,-1.1 -0.2,-0.4 -0.5,-0.7 -0.8,-1 -0.3,-0.3 -0.6,-0.5 -1,-0.8 -0.4,-0.2 -0.7,-0.4 -1.2,-0.5 -0.4,-0.1 -0.8,-0.2 -1.3,-0.2 -0.5,0 -0.9,0.1 -1.3,0.2 m 3.2,5.7 c -0.1,-0.1 -0.2,-0.3 -0.2,-0.4 -0.1,-0.1 -0.2,-0.2 -0.3,-0.2 0.2,-0.1 0.4,-0.2 0.5,-0.3 0.1,-0.1 0.3,-0.2 0.3,-0.4 0.1,-0.1 0.2,-0.3 0.2,-0.5 0,-0.2 0.1,-0.3 0.1,-0.5 0,-0.3 0,-0.5 -0.1,-0.7 -0.1,-0.2 -0.2,-0.4 -0.4,-0.5 -0.2,-0.1 -0.5,-0.3 -0.8,-0.3 -0.3,-0.1 -0.7,-0.1 -1.1,-0.1 h -2.3 v 5.8 h 1.7 v -2 h 0.4 c 0.1,0 0.1,0.1 0.2,0.2 l 0.6,1.5 c 0.1,0.2 0.3,0.3 0.5,0.3 h 1.4 c -0.3,0.3 -0.7,0.6 -1.2,0.7 -0.4,0.2 -0.9,0.3 -1.4,0.3 -0.5,0 -1,-0.1 -1.5,-0.3 -0.5,-0.2 -0.9,-0.5 -1.2,-0.8 -0.3,-0.4 -0.6,-0.8 -0.8,-1.2 -0.2,-0.5 -0.3,-1 -0.3,-1.5 0,-0.5 0.1,-1.1 0.3,-1.5 0.2,-0.5 0.5,-0.9 0.8,-1.3 0.3,-0.4 0.7,-0.6 1.2,-0.8 0.5,-0.2 0.9,-0.3 1.5,-0.3 0.4,0 0.7,0 1,0.1 0.3,0.1 0.6,0.2 0.9,0.4 0.3,0.2 0.5,0.4 0.8,0.6 0.2,0.2 0.4,0.5 0.6,0.8 0.2,0.3 0.3,0.6 0.4,0.9 0.1,0.3 0.1,0.7 0.1,1.1 0,0.5 -0.1,1 -0.3,1.5 -0.2,0.5 -0.4,0.9 -0.8,1.2 z m -2.5,-1.3 v -1.4 h 0.9 c 0.1,0 0.2,0.1 0.2,0.1 q 0.1,0.1 0.1,0.2 v 0.6 c 0,0.1 -0.1,0.2 -0.1,0.2 -0.1,0.1 -0.2,0.1 -0.3,0.1 h -0.8 z"
         id="path16"
         style="fill:#ffffff" />
    </g>
    <text
       class="cls-2"
       id="text16"
       style="fill:#ffffff"
       x="543.65479"
       y="179.00999"><tspan
         x="543.65479"
         y="179.00999"
         id="tspan16"
         style="fill:#ffffff">T</tspan></text>
    <text
       class="cls-3"
       id="text17"
       style="fill:#ffffff"
       x="560.21478"
       y="179.00999"><tspan
         x="560.21478"
         y="179.00999"
         id="tspan17"
         style="fill:#ffffff">OOLIN</tspan></text>
    <text
       class="cls-3"
       id="text18"
       style="fill:#ffffff"
       x="651.78003"
       y="179.00999"><tspan
         x="651.78003"
         y="179.00999"
         id="tspan18"
         style="fill:#ffffff">G</tspan></text>
    <g
       id="g40"
       style="fill:#ffffff">
      <path
         class="cls-1"
         d="m 161.56,109.82 -5.2,0.1 v 1.8 c 0,0.6 0.5,1 1.1,1 l 4.2,-0.1 z m 6.7,-0.1 h -1.9 v 2.9 h 1.9 z m 3.9,-0.1 h -1.5 v 2.9 h 1.5 z m 22.6,-0.4 -21.5,0.4 v 2.9 l 20.4,-0.4 c 0.6,0 1,-0.5 1,-1.1 z"
         id="path18"
         style="fill:#ffffff" />
      <path
         class="cls-1"
         d="m 149.86,69.22 -6.2,0.1 0.2,14.5 c 0,0 0,0.1 0.1,0.1 l 6.1,-0.1 z m 6,-0.1 h -2.3 l 0.3,14.6 h 2.3 z m 3,0 h -1.1 l 0.3,14.6 h 1.1 z m 33,-0.6 -32.1,0.6 0.3,14.6 32.1,-0.6 z m 2,0 h -1.1 l 0.3,14.6 h 1.1 z m 4.2,-0.1 h -2.3 l 0.3,14.6 h 2.3 z m 8,-0.1 -4.3,0.1 0.3,14.6 4.2,-0.1 c 0,0 0.1,0 0.1,-0.1 z"
         id="path19"
         style="fill:#ffffff" />
      <polygon
         class="cls-1"
         points="89.56,147.92 90.06,149.92 95.96,146.32 95.46,144.32 "
         id="polygon19"
         style="fill:#ffffff" />
      <polygon
         class="cls-1"
         points="90.36,150.92 90.56,151.72 96.46,148.12 96.26,147.32 "
         id="polygon20"
         style="fill:#ffffff" />
      <polygon
         class="cls-1"
         points="95.96,166.52 96.96,168.32 101.66,163.42 100.66,161.62 "
         id="polygon21"
         style="fill:#ffffff" />
      <polygon
         class="cls-1"
         points="97.46,169.22 97.86,169.92 102.66,165.02 102.26,164.32 "
         id="polygon22"
         style="fill:#ffffff" />
      <polygon
         class="cls-1"
         points="107.16,182.82 108.56,184.32 111.86,178.42 110.46,177.02 "
         id="polygon23"
         style="fill:#ffffff" />
      <polygon
         class="cls-1"
         points="109.36,185.02 109.96,185.62 113.26,179.72 112.66,179.12 "
         id="polygon24"
         style="fill:#ffffff" />
      <polygon
         class="cls-1"
         points="122.46,195.72 124.26,196.72 125.86,190.32 124.06,189.22 "
         id="polygon25"
         style="fill:#ffffff" />
      <polygon
         class="cls-1"
         points="125.16,197.32 125.96,197.72 127.56,191.22 126.76,190.82 "
         id="polygon26"
         style="fill:#ffffff" />
      <polygon
         class="cls-1"
         points="140.76,204.32 142.76,204.82 142.56,198.22 140.56,197.72 "
         id="polygon27"
         style="fill:#ffffff" />
      <polygon
         class="cls-1"
         points="143.76,205.12 144.66,205.32 144.46,198.72 143.56,198.52 "
         id="polygon28"
         style="fill:#ffffff" />
      <polygon
         class="cls-1"
         points="160.86,207.92 162.96,208.02 160.96,201.72 158.86,201.62 "
         id="polygon29"
         style="fill:#ffffff" />
      <polygon
         class="cls-1"
         points="164.06,208.02 164.96,208.02 162.96,201.72 162.06,201.72 "
         id="polygon30"
         style="fill:#ffffff" />
      <polygon
         class="cls-1"
         points="88.56,128.32 88.46,130.32 95.06,128.22 95.16,126.22 "
         id="polygon31"
         style="fill:#ffffff" />
      <polygon
         class="cls-1"
         points="88.46,131.32 88.36,132.22 94.96,130.12 95.06,129.32 "
         id="polygon32"
         style="fill:#ffffff" />
      <polygon
         class="cls-1"
         points="92.76,108.92 92.16,110.82 99.06,110.52 99.66,108.62 "
         id="polygon33"
         style="fill:#ffffff" />
      <polygon
         class="cls-1"
         points="91.86,111.82 91.56,112.62 98.46,112.32 98.76,111.52 "
         id="polygon34"
         style="fill:#ffffff" />
      <polygon
         class="cls-1"
         points="102.06,91.12 100.96,92.82 107.66,94.22 108.76,92.52 "
         id="polygon35"
         style="fill:#ffffff" />
      <polygon
         class="cls-1"
         points="100.46,93.72 99.96,94.52 106.66,95.92 107.16,95.12 "
         id="polygon36"
         style="fill:#ffffff" />
      <polygon
         class="cls-1"
         points="115.86,76.22 114.26,77.62 120.36,80.62 121.86,79.22 "
         id="polygon37"
         style="fill:#ffffff" />
      <polygon
         class="cls-1"
         points="113.46,78.32 112.86,78.92 118.86,81.92 119.56,81.32 "
         id="polygon38"
         style="fill:#ffffff" />
      <polygon
         class="cls-1"
         points="133.06,65.02 131.16,66.02 136.16,70.52 138.06,69.52 "
         id="polygon39"
         style="fill:#ffffff" />
      <polygon
         class="cls-1"
         points="130.26,66.62 129.46,67.02 134.46,71.42 135.26,71.02 "
         id="polygon40"
         style="fill:#ffffff" />
    </g>
  </g>
</svg>
