<?xml version="1.0" encoding="UTF-8"?><svg id="VIP_TOOLING" xmlns="http://www.w3.org/2000/svg" viewBox="0 0 757.43 254.03"><defs><style>.cls-1{fill:#fff;}.cls-2{letter-spacing:-.03em;}.cls-2,.cls-3{fill:#575756;font-family:Lato-Heavy, Lato;font-size:24.97px;font-weight:800;isolation:isolate;}.cls-4{fill:#0a4f9d;}</style></defs><g id="Camada_3"><g id="TOOLING"><g><path class="cls-4" d="m315.36,85.62c0-1.3-1.2-1.2-1.2-1.2h-16.3c-1.1,0-1,1.3-1,1.3v28.9c0,4.3-1.3,8.3-5.6,8.5-4.3.2-11.1-4.6-11.1-4.6,0,0-37.9-29.9-40.1-31.8-2.9-2.6-5.8-2.2-5.8-2.2h-14.1c-1.7,0-1.5,1.2-1.5,1.2v51.9c0,1.5,1.2,1.4,1.2,1.4h16.6c1.1,0,.9-1.5.9-1.5,0,0-.1-19.1-.1-27.5s5.6-7.7,5.6-7.7c0,0,1.7-.7,11.1,4.2,9.4,4.9,43.2,32.6,43.2,32.6h17.3c1.1,0,1-1.3,1-1.3,0,0-.1-51-.1-52.2h0Z"/><path class="cls-4" d="m664.66,127.22c-1.7-1.5-6.7-3.7-6.7-3.7l-42.2-17.1s-3.9-1.5-3.9-4.9,4.9-2.9,4.9-2.9h28v-14.3h-51.5s-9.8.3-9.8,7.1,8.4,9.5,8.4,9.5l35.7,14.5s7.4,3.7,7.4,6.4-2.4,3.5-6.4,3.5h-40.9s-2.4-.2-2.4,2v10s.3,1.4,2.2,1.4h69.1s6.2.5,9.4-3.2c3.2-3.6.3-6.8-1.3-8.3h0Z"/><path class="cls-4" d="m579.16,118.82v-34.5h-17v32.5s2.8,15.6-26.5,15.6-27.8-15.6-27.8-15.6v-22c0-10.2-9.2-10.5-9.2-10.5h-129.2c-27.5,0-49.8,12.1-49.8,27s22.3,27,49.8,27,49.8-12.1,49.8-27c0-4.3-1.9-8.4-5.2-12h0c-2.7-2.9.7-3.3.7-3.3h29v42.8h15.6c1.8,0,1.7-1.5,1.7-1.5v-36.7c0-4.5,4.8-4.6,4.8-4.6h21c4.4,0,4,3.8,4,3.8v19.9s-1.9,18.7,44.9,18.7c46.8-.1,43.4-19.6,43.4-19.6h0Zm-209.9,15c-17.4,0-31.4-10-31.4-22.2s14.1-22.2,31.4-22.2,31.4,10,31.4,22.2-14,22.2-31.4,22.2h0Z"/><path class="cls-4" d="m149.36,87.52l5.8-.1,40.1-.7,5.8-.1.1,5.7-5.8,2-40.1.7-5.8-1.8-.1-5.7h0Zm40.1,25.5l.6,33.4c0,.6-.4,1-1,1l-26.3.5c-.6,0-1-.4-1.1-1l-.6-33.4-3.7.1c-1,0-1.9-.8-1.9-1.9v-2.7c1.9-.3,3.4-2,3.3-4,0-2-1.5-3.6-3.5-3.9l-.1-4.1c0-.3.2-.5.5-.5l39.2-.7c.3,0,.5.2.5.5l.1,4.1c-1.9.3-3.4,2-3.3,4,0,2,1.5,3.6,3.5,3.9v2.7c0,1-.8,1.9-1.9,1.9l-4.3.1h0Zm-23.9,43.8l21.1-.4-.9-.4.9-.2-.9-.4.9-.2-.9-.4.9-.2-.9-.4.9-.2-.9-.4.9-.2-.9-.4.9-.2-.9-.4.9-.2-.9-.4.9-.2-.9-.4.9-.2-.9-.4.9-.2-.9-.4.9-.2-.9-.4.9-.2-21.1.4.9.4-.9.2.9.4-.9.2.9.4-.9.2.9.4-.9.2.9.4-.9.2.9.4-.9.2.9.4-.9.2.9.4-.9.2.9.4-.9.2.9.4-.9.2.9.4-.9.2.9.4-.9.2h0Zm24.9,10.9v.4c0,.9-.7,1.6-1.6,1.6l-25.1.4c-.9,0-1.6-.7-1.6-1.6v-.4l28.3-.4h0Zm-27.7-9.9l26.7-.5c.4,0,.8.3.8.8l.1,8.4-28.3.5-.1-8.4c0-.4.3-.8.8-.8h0Zm-21.3-90.6l66.8-1.2.3,16.8c0,1.3-1,2.3-2.2,2.3l-62.2,1.1c-1.3,0-2.3-1-2.3-2.2l-.4-16.8h0Z"/><polygon class="cls-4" points="173.06 168.32 177.46 168.22 177.86 190.42 176.16 201.42 175.46 201.42 173.46 190.52 173.06 168.32"/><path class="cls-4" d="m193.96,67.62l-36,.6-.4-20.7c12-2.4,24.1-2.8,36-1.4l.4,21.5h0Z"/><path class="cls-4" d="m95.96,150.22c8.7,35,43.7,56.9,80.2,51.6l-1.3-5.2c-33.5,4.5-65.4-15.6-73.5-47.7-7.9-31.7,10.3-64.1,41.3-76.2.4-.2-.8-1.1-.4-1.2l-.6-3.2-.2-1.3c-.9.3-1.7.6-2.6,1-33.1,13.3-51.4,48.1-42.9,82.2"/><polygon class="cls-4" points="88.76 147.52 90.86 156.02 99.76 156.52 99.16 153.92 96.96 145.42 96.36 142.82 88.76 147.52"/><polygon class="cls-4" points="94.96 166.32 99.36 174.02 108.16 172.32 106.86 170.02 102.46 162.32 101.16 160.02 94.96 166.32"/><polygon class="cls-4" points="106.16 182.92 112.46 189.22 120.56 185.32 118.66 183.42 112.36 177.22 110.46 175.32 106.16 182.92"/><polygon class="cls-4" points="121.46 196.02 129.26 200.52 136.16 194.82 133.76 193.42 125.96 189.02 123.56 187.62 121.46 196.02"/><polygon class="cls-4" points="139.86 204.82 148.66 207.12 153.76 200.02 151.16 199.32 142.36 196.92 139.66 196.22 139.86 204.82"/><polygon class="cls-4" points="160.16 208.72 169.36 208.72 172.36 200.62 169.56 200.62 160.36 200.52 157.56 200.52 160.16 208.72"/><polygon class="cls-4" points="87.76 127.62 87.56 136.42 95.96 139.12 96.06 136.52 96.26 127.72 96.36 125.02 87.76 127.62"/><polygon class="cls-4" points="92.26 108.12 89.66 116.62 96.96 121.32 97.76 118.72 100.36 110.22 101.16 107.62 92.26 108.12"/><polygon class="cls-4" points="101.76 90.22 96.96 97.82 102.76 104.22 104.26 101.92 109.06 94.32 110.46 92.02 101.76 90.22"/><polygon class="cls-4" points="115.76 75.22 109.16 81.42 112.96 89.12 114.96 87.22 121.66 81.02 123.66 79.12 115.76 75.22"/><polygon class="cls-4" points="133.26 64.12 125.16 68.52 126.76 76.92 129.26 75.62 137.36 71.22 139.76 69.92 133.26 64.12"/><path class="cls-4" d="m662.66,84.52c-.4.1-.8.3-1.1.5-.4.2-.7.5-1,.8s-.5.6-.8,1-.4.7-.5,1.1c-.1.4-.2.8-.2,1.3,0,.4.1.9.2,1.3.1.4.3.8.5,1.1.2.4.5.7.8,1s.6.5,1,.8c.4.2.7.4,1.1.5.4.1.8.2,1.3.2s.9-.1,1.3-.2c.4-.1.8-.3,1.2-.5s.7-.5,1-.8.5-.6.8-1c.2-.4.4-.7.5-1.1.1-.4.2-.8.2-1.3,0-.4-.1-.9-.2-1.3-.1-.4-.3-.8-.5-1.1-.2-.4-.5-.7-.8-1s-.6-.5-1-.8c-.4-.2-.7-.4-1.2-.5-.4-.1-.8-.2-1.3-.2s-.9.1-1.3.2m3.2,5.7c-.1-.1-.2-.3-.2-.4-.1-.1-.2-.2-.3-.2.2-.1.4-.2.5-.3s.3-.2.3-.4c.1-.1.2-.3.2-.5s.1-.3.1-.5c0-.3,0-.5-.1-.7s-.2-.4-.4-.5-.5-.3-.8-.3c-.3-.1-.7-.1-1.1-.1h-2.3v5.8h1.7v-2h.4c.1,0,.1.1.2.2l.6,1.5c.1.2.3.3.5.3h1.4c-.3.3-.7.6-1.2.7-.4.2-.9.3-1.4.3s-1-.1-1.5-.3-.9-.5-1.2-.8c-.3-.4-.6-.8-.8-1.2-.2-.5-.3-1-.3-1.5s.1-1.1.3-1.5c.2-.5.5-.9.8-1.3.3-.4.7-.6,1.2-.8s.9-.3,1.5-.3c.4,0,.7,0,1,.1s.6.2.9.4c.3.2.5.4.8.6.2.2.4.5.6.8.2.3.3.6.4.9.1.3.1.7.1,1.1,0,.5-.1,1-.3,1.5s-.4.9-.8,1.2l-.8-1.8Zm-2.5-1.3v-1.4h.9c.1,0,.2.1.2.1q.1.1.1.2v.6c0,.1-.1.2-.1.2-.1.1-.2.1-.3.1h-.8v.2Z"/></g><g><text class="cls-2" transform="translate(556.8 179.01)"><tspan x="0" y="0">T</tspan></text><text class="cls-3" transform="translate(571.36 179.01)"><tspan x="0" y="0">OOLIN</tspan></text><text class="cls-3" transform="translate(651.78 179.01)"><tspan x="0" y="0">G</tspan></text></g><g><path class="cls-1" d="m161.56,109.82l-5.2.1v1.8c0,.6.5,1,1.1,1l4.2-.1-.1-2.8h0Zm6.7-.1h-1.9v2.9h1.9v-2.9h0Zm3.9-.1h-1.5v2.9h1.5v-2.9h0Zm22.6-.4l-21.5.4v2.9l20.4-.4c.6,0,1-.5,1-1.1l.1-1.8h0Z"/><path class="cls-1" d="m149.86,69.22l-6.2.1.2,14.5s0,.1.1.1l6.1-.1-.2-14.6h0Zm6-.1h-2.3l.3,14.6h2.3l-.3-14.6h0Zm3,0h-1.1l.3,14.6h1.1l-.3-14.6h0Zm33-.6l-32.1.6.3,14.6,32.1-.6-.3-14.6h0Zm2,0h-1.1l.3,14.6h1.1l-.3-14.6h0Zm4.2-.1h-2.3l.3,14.6h2.3l-.3-14.6h0Zm8-.1l-4.3.1.3,14.6,4.2-.1s.1,0,.1-.1l-.3-14.5h0Z"/><polygon class="cls-1" points="89.56 147.92 90.06 149.92 95.96 146.32 95.46 144.32 89.56 147.92"/><polygon class="cls-1" points="90.36 150.92 90.56 151.72 96.46 148.12 96.26 147.32 90.36 150.92"/><polygon class="cls-1" points="95.96 166.52 96.96 168.32 101.66 163.42 100.66 161.62 95.96 166.52"/><polygon class="cls-1" points="97.46 169.22 97.86 169.92 102.66 165.02 102.26 164.32 97.46 169.22"/><polygon class="cls-1" points="107.16 182.82 108.56 184.32 111.86 178.42 110.46 177.02 107.16 182.82"/><polygon class="cls-1" points="109.36 185.02 109.96 185.62 113.26 179.72 112.66 179.12 109.36 185.02"/><polygon class="cls-1" points="122.46 195.72 124.26 196.72 125.86 190.32 124.06 189.22 122.46 195.72"/><polygon class="cls-1" points="125.16 197.32 125.96 197.72 127.56 191.22 126.76 190.82 125.16 197.32"/><polygon class="cls-1" points="140.76 204.32 142.76 204.82 142.56 198.22 140.56 197.72 140.76 204.32"/><polygon class="cls-1" points="143.76 205.12 144.66 205.32 144.46 198.72 143.56 198.52 143.76 205.12"/><polygon class="cls-1" points="160.86 207.92 162.96 208.02 160.96 201.72 158.86 201.62 160.86 207.92"/><polygon class="cls-1" points="164.06 208.02 164.96 208.02 162.96 201.72 162.06 201.72 164.06 208.02"/><polygon class="cls-1" points="88.56 128.32 88.46 130.32 95.06 128.22 95.16 126.22 88.56 128.32"/><polygon class="cls-1" points="88.46 131.32 88.36 132.22 94.96 130.12 95.06 129.32 88.46 131.32"/><polygon class="cls-1" points="92.76 108.92 92.16 110.82 99.06 110.52 99.66 108.62 92.76 108.92"/><polygon class="cls-1" points="91.86 111.82 91.56 112.62 98.46 112.32 98.76 111.52 91.86 111.82"/><polygon class="cls-1" points="102.06 91.12 100.96 92.82 107.66 94.22 108.76 92.52 102.06 91.12"/><polygon class="cls-1" points="100.46 93.72 99.96 94.52 106.66 95.92 107.16 95.12 100.46 93.72"/><polygon class="cls-1" points="115.86 76.22 114.26 77.62 120.36 80.62 121.86 79.22 115.86 76.22"/><polygon class="cls-1" points="113.46 78.32 112.86 78.92 118.86 81.92 119.56 81.32 113.46 78.32"/><polygon class="cls-1" points="133.06 65.02 131.16 66.02 136.16 70.52 138.06 69.52 133.06 65.02"/><polygon class="cls-1" points="130.26 66.62 129.46 67.02 134.46 71.42 135.26 71.02 130.26 66.62"/></g></g></g></svg>