<!DOCTYPE svg PUBLIC "-//W3C//DTD SVG 1.1//EN" "http://www.w3.org/Graphics/SVG/1.1/DTD/svg11.dtd">
<!-- Uploaded to: SVG Repo, www.svgrepo.com, Transformed by: SVG Repo Mixer Tools -->
<svg fill="#74C7EA" height="800px" width="800px" version="1.1" id="Layer_1" xmlns="http://www.w3.org/2000/svg" xmlns:xlink="http://www.w3.org/1999/xlink" viewBox="0 0 512.00 512.00" xml:space="preserve" stroke="#74C7EA">
<g id="SVGRepo_bgCarrier" stroke-width="0">
<rect x="0" y="0" width="512.00" height="512.00" rx="256" fill="#ffffff" strokewidth="0"/>
</g>
<g id="SVGRepo_tracerCarrier" stroke-linecap="round" stroke-linejoin="round"/>
<g id="SVGRepo_iconCarrier"> <g> <g> <path d="M256,0C114.615,0,0,114.615,0,256s114.615,256,256,256s256-114.616,256-256S397.385,0,256,0z M346.899,280.959 l-85.594,85.594c-13.783,13.784-36.132,13.784-49.917,0c-13.784-13.784-13.784-36.133,0-49.917L272.023,256l-60.635-60.635 c-13.784-13.784-13.784-36.133,0-49.917s36.134-13.784,49.917,0l85.594,85.594C360.683,244.825,360.683,267.175,346.899,280.959z"/> </g> </g> </g>
</svg>